<?xml version="1.0" encoding="utf-8"?>
<!-- Generator: Adobe Illustrator 23.0.1, SVG Export Plug-In . SVG Version: 6.00 Build 0)  -->
<svg version="1.1" id="Слой_1" xmlns="http://www.w3.org/2000/svg" xmlns:xlink="http://www.w3.org/1999/xlink" x="0px" y="0px"
	 viewBox="0 0 40 40" style="enable-background:new 0 0 40 40;" xml:space="preserve">
<style type="text/css">
	.st0{fill-rule:evenodd;clip-rule:evenodd;fill:#2A2A2A;}
	.st1{fill:#5B970D;}
</style>
<path class="st0" d="M26.5,34.3c0,1.2-0.9,1.7-1.9,1.9c0,1.2-0.9,1.7-1.9,1.9c0,2.2-3,2.4-4,1c-1.4,0.8-3.2-0.1-3.2-1.6
	c-0.8,0-1.5-0.6-1.7-1.2c-0.1-0.2-0.1-0.5-0.2-0.7c-0.1-0.1-0.7-0.2-0.9-0.3c-0.7-0.3-0.8-0.9-1.1-1.7c-1.2,0-1.6-0.9-1.9-2
	c-0.6-0.3-1.2-0.7-1.7-1c-0.1,0.2-0.1,0.3-0.2,0.5c-0.4,0-0.9,0-1.3,0c-1.2-0.4-2.4-0.8-3.6-1.2c-0.9-0.3-2-0.5-2.8-0.9
	c0-4.5,0-9,0-13.4c0,0,0,0,0.1,0c0.7,0,1.4,0,2.2,0c1,0.6,2.1,1.2,3.1,1.8C5.5,17.3,7,16.9,7,16.7c0,0,0,0,0,0
	c-1-0.5-1.6-1.7-1.9-2.9c0-0.5,0-1,0-1.6c0-0.6,0-1.2,0.1-1.6c0.5-1.9,2-3.5,4.5-3.5C9.6,6.8,9.1,5.7,9.2,5.4
	c1.1-1.1,2.3-2.3,3.4-3.4c0.5,0.1,1.6,1,2,1.3c0.5-0.2,1-0.5,1.5-0.7c0.3-0.1,0.5-0.2,0.8-0.2c0.1-0.1,0.3-2,0.5-2.3
	c1.2,0,2.4,0,3.6,0c0.4,0,1.1-0.1,1.4,0.1c0.2,0.8,0.3,1.5,0.5,2.3c0.8,0.1,1.7,0.6,2.3,0.9c0.5-0.3,1.6-1.2,2.1-1.3
	c1.2,1.1,2.3,2.3,3.5,3.4c0,0.6-0.5,1.1-0.6,1.6c2.2,0,3.9,1.6,4.4,3.2c0.2,0.6,0.2,1.3,0.2,2.1c0,0.8,0,1.5-0.2,2
	c-0.3,1.1-1,1.6-1.7,2.3c0,0,0,0.1,0,0.1c0.6,0.1,3,0.6,3.3,1c1-0.5,1.6-1.1,3-1.1c0.2,0,0.5,0,0.7,0c0,2.3,0,4.6,0,7
	c0,0.5,0.1,2.3-0.1,2.6c-3.8,1.9-7.7,3.8-11.5,5.8C28.4,33.3,27.6,34.2,26.5,34.3z M18.6,1.5c0,0.5-0.2,1.7-0.5,2.1
	c-0.9,0.1-1.9,0.5-2.5,0.9c-0.3,0.2-0.7,0.6-1.1,0.6C14,4.7,13.4,4.3,12.8,4c-0.6,0.6-1.3,1.3-1.9,1.9c0,0,0,0,0,0
	c0.2,0.5,0.4,1.1,0.7,1.6c0.2,0.1,0.3,0.2,0.5,0.3c0.3,0.2,0.5,0.4,0.8,0.6c0,0,0,0,0,0c0.2-0.6,0.9-1.2,1.4-1.6
	c0.5-0.4,1-0.8,1.6-1.2c1.7-1,4.8-1.4,7-0.6c1.3,0.5,2.5,1.3,3.3,2.2c0.3,0.4,0.6,0.8,0.9,1.1c0.2-0.2,0.5-0.4,0.7-0.6
	c0.2-0.1,0.4-0.2,0.6-0.3c0.2-0.5,0.5-1.1,0.7-1.6c-0.6-0.6-1.3-1.3-1.9-1.9c-0.4,0.2-1.4,1.1-1.9,1.1c-0.6-0.4-1.3-0.7-2-1
	c-0.5-0.2-1.1-0.3-1.6-0.5c-0.1-0.7-0.3-1.4-0.4-2.1C20.4,1.5,19.5,1.5,18.6,1.5z M19.6,6c-0.2,0-0.4,0-0.6,0.1
	c-0.4,0.1-0.8,0.2-1.2,0.3c-1.5,0.5-2.7,1.5-3.5,2.7c-0.1,0.2-0.3,0.4-0.4,0.7c0.3,0.4,0.3,0.9,0.4,1.5c0.3,1.8-0.2,3.6-0.9,4.5
	c-0.3,0.4-0.7,0.6-1,0.9c0,0,0,0.1,0,0.1c0.8,0.2,1.6,0.4,2.4,0.6c0.3,0.1,0.6-0.1,0.9-0.2c0.6-0.1,1.1-0.3,1.7-0.4c0,0,0-0.1,0-0.1
	c0,0,0,0,0-0.1c-0.3-0.1-0.6-0.5-0.8-0.7c-0.8-1-1.1-1.9-1.1-3.8c0-0.7,0-1.3,0.2-1.8c0.6-1.9,1.9-2.9,4.1-3.3c0.3-0.1,0.8,0,1,0.1
	c2.1,0.4,3.4,1.7,3.8,3.7c0.1,0.4,0.1,1,0.1,1.5c0,2.1-0.6,3.5-1.9,4.4c0,0.1,0,0.1,0,0.2c0.6,0.1,1.1,0.3,1.7,0.4
	c0.2,0.1,0.5,0.2,0.9,0.2c0.8-0.2,1.6-0.4,2.4-0.6c0,0,0-0.1,0-0.1c0,0,0,0,0,0c-1.8-1-2.6-4.6-1.5-7C24.9,7.5,22.9,6,19.6,6z
	 M9.6,8.6C9.3,8.6,9,8.7,8.7,8.8C7.9,9,7.4,9.6,7,10.2c-0.2,0.3-0.3,0.7-0.4,1.1c0,0.4,0,0.8,0,1.2c0,2,0.7,2.6,1.9,3.4
	c0,0.5,0.1,1.8,0,2.2c-0.4,0.1-0.8,0.2-1.2,0.3c0,0,0,0,0,0c1.1,0.6,2.1,1.2,3.2,1.9c0,0.4,0,0.9,0,1.3c0.6-0.1,1.2-0.3,1.7-0.4
	c0-1.2,0.3-1.9,0.8-2.5c-0.7-0.2-1.4-0.4-2.1-0.6c0-0.5-0.2-1.8,0-2.2c1.6-0.5,2.4-2.8,1.7-5C12.3,9.6,11.2,8.6,9.6,8.6z M19.8,8.6
	c-0.4,0.1-0.7,0.1-1,0.2c-1.5,0.7-1.9,1.8-1.9,4c0,0.5,0,0.9,0.2,1.3c0.2,0.5,0.6,1.1,1,1.4c0.2,0.2,0.5,0.3,0.7,0.4
	c0,0.5,0.1,1.8-0.1,2.2c-0.7,0.2-1.4,0.4-2.1,0.5c-1.4,0.4-3,0.4-3,2.2c0.5-0.1,1-0.2,1.6-0.2c0.4-0.1,1,0,1.3,0.1
	c1.6,0.3,2.8,0.8,4.2,1.2c0.7,0.2,1.4,0.2,2,0.4c0.7,0.2,1.4,0.4,2.1,0.6c0.4,0.1,0.9,0.4,1.4,0.3c0-0.4,0-0.9,0-1.3
	c0-0.9,0-1.6-0.4-2.1c-0.8-1.1-3.5-0.9-4.8-1.6c0-0.7,0-1.4,0-2.1c0.1-0.2,0.6-0.4,0.8-0.5c0.4-0.3,0.7-0.8,0.9-1.3
	c0.2-0.5,0.2-1,0.2-1.7C23.1,10.1,22,8.6,19.8,8.6z M30.1,8.6c-0.3,0.1-0.6,0.1-0.9,0.2c-0.7,0.2-1.3,0.8-1.7,1.4
	c-0.2,0.3-0.3,0.7-0.4,1.1c0,0.4,0,0.8,0,1.2c0,2,0.7,2.6,1.9,3.4c0,0.5,0.1,1.8,0,2.2c-0.7,0.2-1.4,0.3-2,0.5
	c0.8,1.1,0.8,1.8,0.8,3.7c2.2-1.2,4.4-2.3,6.6-3.5c-0.6-0.2-1.2-0.3-1.9-0.5c-0.4-0.1-0.8-0.1-1.1-0.3c0-0.5-0.1-1.9,0.1-2.2
	c1.5-0.5,2.3-2.7,1.7-4.8C32.9,9.6,31.8,8.6,30.1,8.6z M1.5,16.9c0,3.6,0,7.3,0,10.9c0.9,0.3,1.7,0.6,2.6,0.9c0.8-3,1.5-6.1,2.3-9.1
	c-0.9-0.5-1.8-1-2.7-1.5C3.1,17.7,2.2,16.9,1.5,16.9z M38.4,18.4c-4,2.1-7.9,4.2-11.9,6.2c-0.5,0.1-1.4-0.2-1.8-0.3
	c-1.3-0.3-2.4-0.8-3.8-1c-0.7-0.1-1.3,0.2-1.7,0.4c-0.9,0.5-1.8,0.9-2.7,1.4c-0.4,0.2-1.1,0.4-1,1.1c0.1,0.5,0.6,1,1.1,0.7
	c1.1-0.6,2.9-2.3,4.6-1.7c0.9,0.3,1.4,1.1,2.1,1.6c1.5,1.3,2.9,2.6,4.4,3.9c3.6-1.8,7.1-3.6,10.7-5.3c0-1.7,0-3.4,0-5.2
	C38.5,19.9,38.5,18.5,38.4,18.4z M7.7,20.4C7.1,22.6,6.6,24.8,6,27c-0.1,0.3-0.5,2.1-0.5,2.2c0.4,0.1,0.7,0.2,1.1,0.4
	c0.6-2.1,1.2-4.1,1.7-6.2c0.2-0.5,0.3-1.1,0.5-1.6c0-0.2,0.1-0.4,0.1-0.6C8.5,20.9,8.1,20.6,7.7,20.4z M18.8,34.1
	c1,0,1.3,0.6,1.7,1.2c0.4,0.3,0.8,0.7,1.2,1c0.3,0.2,0.9,0.7,1.3,0.2c0.4-0.6-0.3-0.9-0.6-1.2c-1-0.8-1.9-1.6-2.9-2.5
	c0,0,0-0.1,0-0.1c0.3-0.3,0.6-0.7,0.9-1c0,0,0.1,0,0.1,0c1,0.9,2.1,1.7,3.1,2.6c0.3,0.2,0.9,0.8,1.3,0.3c0.4-0.5-0.2-0.9-0.5-1.2
	c-1-0.8-2-1.6-3-2.5c0,0,0-0.1,0-0.1c0.3-0.3,0.6-0.7,0.9-1c0.4,0,0.7,0.5,0.9,0.7c0.8,0.6,1.5,1.3,2.3,1.9c0.3,0.2,1,0.8,1.3,0.2
	c0.4-0.6-0.4-1-0.6-1.3c-1.1-1-2.1-1.9-3.2-2.9c-0.7-0.5-1.4-1.7-2.4-1.8c-0.5-0.1-0.9,0.3-1.2,0.5c-1,0.6-2.7,2-4.2,1
	c-0.3-0.2-0.5-0.5-0.7-0.8c-0.2-0.3-0.4-0.9-0.3-1.5c0.4-2.1,2.7-2.3,4.2-3.3c-0.7-0.1-1.3-0.4-2.1-0.5c-1-0.2-1.9,0.1-2.7,0.3
	c-0.6,0.1-1.2,0.3-1.7,0.4c-0.4,0.1-1.7,0.2-1.8,0.4c-0.6,2-1.1,3.9-1.7,5.9c0.6,0.3,1.2,0.7,1.8,1c0.4-0.5,1.4-1.5,2-1.7
	c1.6-0.6,2.7,0.6,2.9,1.8c0.9,0,1.5,0.6,1.8,1.3c0,0.2,0.1,0.4,0.1,0.6c0.2,0.1,0.5,0.1,0.7,0.2C18.2,32.5,18.8,33.2,18.8,34.1z
	 M12.7,29.8c-0.4,0.2-2.3,1.7-1.3,2.3c0.5,0.3,1.9-1.1,2-1.5C13.6,30.1,13.1,29.8,12.7,29.8z M14.7,31.7c-0.4,0.2-2.3,1.7-1.4,2.2
	c0.1,0.1,0.4,0.2,0.6,0.1c0.3-0.1,1.4-1.2,1.5-1.5C15.5,32,15.1,31.7,14.7,31.7z M16.6,33.6c-0.4,0.2-2.3,1.7-1.4,2.3
	c0.1,0.1,0.4,0.1,0.5,0.1c0.3-0.1,1.4-1.2,1.5-1.5C17.4,33.9,17,33.6,16.6,33.6z M18.6,35.5c-0.5,0.2-1.4,1-1.6,1.5
	c-0.2,0.3,0,0.7,0.3,0.9C17.9,38.2,20.3,35.7,18.6,35.5z M20.5,37.2c-0.1,0.3-0.5,0.7-0.7,0.9c0.1,0.1,0.1,0.1,0.2,0.2
	c0.3,0.1,0.6,0.5,1,0.2C21.5,38,20.7,37.3,20.5,37.2z"/>
<path class="st1" d="M21.3,1.5c0.1,0.7,0.3,1.4,0.4,2.1c0.5,0.2,1.1,0.3,1.6,0.5c0.7,0.3,1.3,0.7,2,1c0.4,0,1.5-0.9,1.9-1.1
	c0.6,0.6,1.3,1.3,1.9,1.9c-0.2,0.5-0.5,1.1-0.7,1.6c-0.2,0.1-0.4,0.2-0.6,0.3c-0.2,0.2-0.5,0.4-0.7,0.6c-0.3-0.4-0.6-0.8-0.9-1.1
	c-0.8-1-2.1-1.7-3.3-2.2c-0.8-0.3-1.8-0.5-2.7-0.5c-1.6,0-3.2,0.4-4.3,1c-0.6,0.3-1.1,0.8-1.6,1.2c-0.5,0.4-1.1,1-1.4,1.6
	c0,0,0,0,0,0c-0.3-0.2-0.5-0.4-0.8-0.6c-0.2-0.1-0.3-0.2-0.5-0.3c-0.2-0.5-0.4-1.1-0.7-1.6c0,0,0,0,0,0c0.6-0.6,1.3-1.3,1.9-1.9
	c0.6,0.4,1.2,0.8,1.7,1.1c0.4,0,0.8-0.4,1.1-0.6c0.7-0.4,1.6-0.8,2.5-0.9c0.2-0.4,0.4-1.6,0.5-2.1C19.5,1.5,20.4,1.5,21.3,1.5
	 M22.5,0h-1.3h-2.6h-1.2l-0.3,1.4C17.1,1.7,17,2,17,2.3c-0.8,0.2-1.5,0.5-2.1,0.9c-0.1,0-0.2,0.1-0.3,0.2l-0.1-0.1l-0.9-0.6l-1-0.7
	l-0.9,0.9L10,4.6L9.4,5.2L9.1,5.5l0.3,0.7l0.1,0.3l0.2,0.5l1.8,0.4l0.7,0.4l0.6,0.5l1,1.4L14,9.3l0.4-0.5c0.1-0.2,0.3-0.5,0.8-0.9
	c0.1-0.1,0.2-0.2,0.3-0.3c0.4-0.3,0.7-0.6,1-0.8C17.5,6.4,18.8,6,20.1,6c0.8,0,1.6,0.1,2.2,0.4c1.1,0.4,2.1,1.1,2.7,1.8l0.4,0.5
	l0.4,0.6l0.2,0.4l1-1.3l0.7-0.6l0.6-0.3l1.8-0.4l0.3-0.6l0.5-0.9l-0.9-0.8l-1.9-1.9L27.3,2l-1,0.6C26.2,2.6,26,2.9,25.8,3
	c-0.1,0.1-0.3,0.2-0.5,0.3c-0.4-0.3-0.8-0.5-1.3-0.7l-1-0.3l0-0.1l-0.2-1L22.5,0L22.5,0z"/>
</svg>
