<?xml version="1.0" encoding="utf-8"?>
<!-- Generator: Adobe Illustrator 23.0.1, SVG Export Plug-In . SVG Version: 6.00 Build 0)  -->
<svg version="1.1" id="Слой_1" xmlns="http://www.w3.org/2000/svg" xmlns:xlink="http://www.w3.org/1999/xlink" x="0px" y="0px"
	 viewBox="0 0 44 40" style="enable-background:new 0 0 44 40;" xml:space="preserve">
<style type="text/css">
	.st0{fill-rule:evenodd;clip-rule:evenodd;fill:#2A2A2A;}
	.st1{fill-rule:evenodd;clip-rule:evenodd;fill:#5B970D;}
</style>
<path class="st0" d="M32.2,6.6c2.5,0,5,0,7.5,0c1.3,0,2.7-0.1,3.4,0.5c1.1,0.9,0.8,3.4,0.8,5.4c0,3.2,0,6.3,0,9.5
	c0,1.3,0.3,3.2-0.2,4.3c-0.3,0.7-0.8,0.8-1.3,1.2c0,2.8,0,5.5,0,8.3c0,1.6,0.1,3-0.8,3.7c-1.1,0.9-6.2,0.5-8.3,0.5
	c-7.4,0-14.8,0-22.1,0c-2.2,0-7.8,0.4-8.9-0.5c-0.9-0.7-0.8-2.1-0.8-3.7c0-2.8,0-5.5,0-8.3c-1.8-0.8-1.4-2.4-1.4-4.9
	c0-3.4,0-6.7,0-10.1c0-1.5-0.3-3.8,0.3-4.8c0.7-1.1,2-1.1,3.8-1.1c2.5,0,5,0,7.6,0c0-2.7-0.2-4.7,1.3-5.8C14.2-0.1,15.8,0,17.8,0
	c2.8,0,5.6,0,8.5,0c2,0,3.5,0,4.6,0.8C32.4,2,32.2,3.9,32.2,6.6z M14.7,6.6c0-0.8-0.2-3.2,0.2-3.5c0.5-0.4,2.2-0.2,3-0.2
	c2.7,0,5.3,0,8,0c0.8,0,2.8-0.2,3.2,0.2c0.4,0.3,0.2,2.7,0.2,3.5c0.5,0,1,0,1.4,0c0-1.9,0.2-3.9-0.8-4.7c-0.8-0.6-2.3-0.4-3.6-0.4
	c-2.8,0-5.5,0-8.3,0c-1.2,0-3-0.2-3.7,0.3c-1.1,0.7-1,1.9-1,3.6c0,0.4,0,0.8,0,1.2C13.7,6.6,14.2,6.6,14.7,6.6z M16.2,4.5
	c0,0.7,0,1.5,0,2.2c3.9,0,7.8,0,11.7,0c0-0.7,0-1.5,0-2.2C23.9,4.5,20.1,4.5,16.2,4.5z M2.1,8.1c-0.7,0.5-0.5,1.3-0.5,2.4
	c0,2,0,4,0,5.9c0,2.2,0,4.5,0,6.7c0,0.7-0.2,2.1,0.1,2.5c0.4,0.5,3.5,0.6,4.4,0.8c4.3,0.6,8.6,1.2,12.9,1.8c0-2.6,0.8-3.3,3.4-3.3
	c0.7,0,1.1,0.1,1.5,0.3c0.9,0.5,1,1.5,1,3c0,0,0,0,0,0c4.3-0.6,8.6-1.2,12.9-1.8c0.9-0.2,4.1-0.3,4.4-0.8c0.3-0.4,0.1-1.9,0.1-2.6
	c0-2.3,0-4.5,0-6.8c0-2,0-4.1,0-6.1c0-0.7,0.1-1.8-0.3-2.1c-0.4-0.3-2.3-0.1-2.9-0.1c-2.6,0-5.2,0-7.8,0C21.7,8.1,11.9,8.1,2.1,8.1z
	 M21.1,26.6c-0.8,0.5-0.6,1.6-0.6,2.9c0,1.6-0.5,3,1.2,3c0.4,0,0.8,0,1.1,0c0.2-0.1,0.5-0.3,0.5-0.6c0-1.6,0-3.2,0-4.9
	C23.2,26.4,22,26.6,21.1,26.6z M3,27.7c0,2.6,0,5.3,0,7.9c0,0.8-0.2,2.4,0.3,2.7c0.4,0.3,1.5,0.1,2.1,0.1c1.8,0,3.7,0,5.6,0
	c7.2,0,14.3,0,21.5,0c2,0,4.1,0,6.1,0c0.6,0,1.9,0.2,2.3-0.1c0.5-0.4,0.3-1.9,0.3-2.7c0-2.6,0-5.3,0-7.9c-5.4,0.7-10.7,1.5-16.1,2.2
	c0.1,3.3-0.3,4.1-3.6,4.1c-0.7,0-1.1-0.2-1.5-0.5c-0.9-0.7-0.8-2-0.8-3.6C13.7,29.2,8.3,28.4,3,27.7z"/>
<path class="st1" d="M11.8,6.6c0-2.7-0.2-4.7,1.3-5.8C14.2-0.1,15.8,0,17.8,0c2.8,0,5.6,0,8.5,0c2,0,3.5,0,4.6,0.8
	c1.5,1.2,1.4,3.1,1.3,5.8 M14.7,6.6c0-0.8-0.2-3.2,0.2-3.5c0.5-0.4,2.2-0.2,3-0.2c2.7,0,5.3,0,8,0c0.8,0,2.8-0.2,3.2,0.2
	c0.4,0.3,0.2,2.7,0.2,3.5c0.5,0,1,0,1.4,0c0-1.9,0.2-3.9-0.8-4.7c-0.8-0.6-2.3-0.4-3.6-0.4c-2.8,0-5.5,0-8.3,0c-1.2,0-3-0.2-3.7,0.3
	c-1.1,0.7-1,1.9-1,3.6c0,0.4,0,0.8,0,1.2C13.7,6.6,14.2,6.6,14.7,6.6z M16.2,4.5c0,0.7,0,1.5,0,2.2c3.9,0,7.8,0,11.7,0
	c0-0.7,0-1.5,0-2.2C23.9,4.5,20.1,4.5,16.2,4.5z"/>
<path class="st1" d="M21.1,26.6c-0.8,0.5-0.6,1.6-0.6,2.9c0,1.6-0.5,3,1.2,3c0.4,0,0.8,0,1.1,0c0.2-0.1,0.5-0.3,0.5-0.6
	c0-1.6,0-3.2,0-4.9C23.2,26.4,22,26.6,21.1,26.6z M24.9,29.9c0.1,3.3-0.3,4.1-3.6,4.1c-0.7,0-1.1-0.2-1.5-0.5
	c-0.9-0.7-0.8-2-0.8-3.6v-1.5c0-2.6,0.8-3.3,3.4-3.3c0.7,0,1.1,0.1,1.5,0.3c0.9,0.5,1,1.5,1,3V29.9z"/>
</svg>
