<?xml version="1.0" encoding="utf-8"?>
<!-- Generator: Adobe Illustrator 23.0.1, SVG Export Plug-In . SVG Version: 6.00 Build 0)  -->
<svg version="1.1" id="Слой_1" xmlns="http://www.w3.org/2000/svg" xmlns:xlink="http://www.w3.org/1999/xlink" x="0px" y="0px"
	 viewBox="0 0 40 40" style="enable-background:new 0 0 40 40;" xml:space="preserve">
<style type="text/css">
	.st0{fill:#5B970D;}
	.st1{fill-rule:evenodd;clip-rule:evenodd;fill:#2A2A2A;}
</style>
<g>
	<path class="st0" d="M22.5,17.7l0,20.7h-4.6l0-20.7H22.5 M24,16.2h-7.6l0,23.7H24L24,16.2L24,16.2z"/>
</g>
<path class="st1" d="M37.6,17.6c0,5.4,0,10.8,0,16.1c0,1.3,0,2.6,0,3.8c0,0.6,0.1,1.3,0,1.8c-0.1,0.2-0.2,0.4-0.3,0.5
	c-8.6,0-17.2,0-25.8,0c-2.2,0-4.3,0-6.5,0C4.3,40,3.2,40,3,39.7c-0.2-0.4-0.1-1.2-0.1-1.7c0-1.4,0-2.8,0-4.2c0-5.4,0-10.8,0-16.1
	c-0.8,0-2.3,0.2-2.7-0.3c-0.3-0.4-0.1-1.5-0.1-2.1c0-1.7,0-3.3,0-5c0-0.6-0.2-1.6,0.1-2C0.5,7.8,3,8,3.9,8C3.7,7.6,3.4,7.2,3.3,6.7
	c-0.2-1,0.3-2,0.6-2.7c0.4-1,0.7-2.1,1.4-2.9C6.2,0,7.9-0.2,9.5,0.4c1,0.4,1.9,0.9,2.7,1.3c1,0.4,1.9,0.9,2.9,1.3
	C15.7,3.4,16.4,3.7,17,4c0.2,0,0.8-0.4,1.1-0.4c0.5-0.1,1.1-0.1,1.6,0c0.3,0,0.7,0,1,0c1-0.2,2.1,0.1,2.6,0.4
	c1.8-0.8,3.6-1.7,5.4-2.5C29.9,0.9,31,0.3,32.5,0c0.8-0.1,1.5,0.2,2,0.5C35.6,1.3,36,2.7,36.5,4c0.2,0.5,0.5,1,0.6,1.6
	c0.2,0.9-0.2,1.8-0.6,2.4c1.1,0,2.5-0.2,3.4,0.1c0,2.3,0,4.7,0,7c0,0.4,0.1,2.3,0,2.4C39.4,17.8,38.3,17.6,37.6,17.6z M7.5,1.5
	C7.3,1.5,7.1,1.6,6.9,1.7C6.3,1.9,6,2.4,5.8,3C5.4,3.9,4.4,5.8,4.9,7c0.5,1.1,2,1.3,3.3,1.6c2.6,0.7,5.2,1.4,7.8,2.2
	c0-0.9,0-1.9,0-2.8c-0.6-0.3-1.2-0.7-1.7-1c-1.4-0.8-3.1-1.4-4.9-1.8C8.8,5.1,7.7,5.1,7.3,5.4C7.1,5.6,7,6,6.6,6.1
	c-0.5,0.2-1-0.3-0.9-0.8c0.2-1,2.1-1.8,3.6-1.5c1.7,0.3,3.2,0.8,4.6,1.5C14.5,5.6,15.3,6,16,6.4c0-0.5,0.1-0.9,0.2-1.2
	c-1.9-0.9-3.8-1.8-5.8-2.7C9.5,2.1,8.8,1.5,7.5,1.5z M32.4,1.5c-1.9,0.9-3.8,1.8-5.8,2.7c-0.8,0.4-1.6,0.7-2.3,1.1
	c0.2,0.3,0,0.8,0.2,1.1c2.1-1,4-2,6.7-2.6c1.4-0.3,3.3,0.4,3.6,1.5c0.1,0.5-0.4,1-0.9,0.8C33.4,6,33.3,5.6,33,5.4
	c-0.4-0.3-1.3-0.4-2-0.2c-1.9,0.4-3.7,1.1-5.2,1.9c-0.5,0.3-1.1,0.5-1.5,0.9c0,0.9,0,1.9,0,2.8c2.5-0.7,5.1-1.4,7.6-2.1
	c1.1-0.3,2.5-0.4,3.2-1.2c0.7-0.9,0.4-2,0-2.9C34.6,3.1,34.5,1.4,32.4,1.5z M20.4,5c-0.2,0-0.5,0-0.7,0c-0.8,0-1.8,0-2.1,0.5
	c-0.3,0.4-0.2,1.2-0.2,1.9c0,1,0,2,0,3.1c0,0.4-0.1,0.8,0,1.1c0.1,0.3,0.4,0.5,0.7,0.6c0.8,0.2,1.9,0.1,2.8,0.1
	c0.5,0,1.1,0.1,1.4-0.1c0.2-0.1,0.5-0.4,0.6-0.6c0.1-0.4,0-1,0-1.4c0-1,0-2.1,0-3.1c0-0.5,0.1-1.2-0.2-1.5C22.5,5,21.3,5,20.4,5z
	 M1.5,9.4c0,2.3,0,4.5,0,6.8c2.2,0,4.4,0,6.5,0c0.2-0.4,0.4-0.8,0.6-1.2c0.7-1.5,1.6-2.8,2.4-4.2c-1.7-0.5-3.4-1-5.2-1.5
	C4.4,9.4,2.9,9.4,1.5,9.4z M39,16.2c0-2.3,0-4.5,0-6.8c-1.4,0-2.9,0-4.3,0c-1.7,0.5-3.4,1-5.2,1.5c0.3,0.5,0.6,0.9,0.9,1.4
	c0.6,0.9,1.1,1.9,1.5,2.8c0.2,0.4,0.4,0.7,0.5,1.1C34.6,16.2,36.8,16.2,39,16.2z M12.4,11.2c-0.6,1-1.3,2.1-1.9,3.1
	c-1.2,2.1-2.1,4.5-2.9,7c-0.4,1.3-1,2.6-1.1,4.2c0.8-0.6,1.7-1.2,2.5-1.9c0.2-0.2,0.7-0.4,1.1-0.2c0.3,0.2,0.3,0.5,0.5,0.8
	c0.5,0.8,1,1.5,1.4,2.3c0-1.3,0.7-2.6,1-3.7c0.7-2.3,1.6-4.5,2.8-6.4c0.7-1,1.3-2,2-3c-0.6-0.1-1.2-0.6-1.4-1.2
	C15,11.9,13.7,11.6,12.4,11.2z M28,11.2c-1.3,0.3-2.6,0.7-3.8,1c-0.2,0.5-0.8,1-1.4,1.2c0.7,1.1,1.5,2.2,2.2,3.4
	c1.7,2.8,2.7,6.1,3.6,9.8c0,0,0,0,0,0c0.5-0.4,1-1.6,1.4-2.2c0.2-0.3,0.2-0.7,0.5-0.9c0.4-0.3,0.9,0.1,1.1,0.3
	c0.8,0.6,1.7,1.2,2.5,1.8c0-1.3-0.6-2.5-0.9-3.7c-0.7-2.3-1.5-4.7-2.6-6.7c-0.5-0.9-1.1-1.9-1.6-2.8C28.6,12.1,28.3,11.7,28,11.2
	C28,11.2,28,11.2,28,11.2z M16.4,38.6c-4,0-8.1,0-12.1,0c0-7,0-14,0-20.9c1,0,2,0,3.1,0c-0.4,1-0.7,2-1.1,2.9
	c-0.5,1.6-0.9,3.2-1.3,4.9c-0.2,0.7-0.6,2.5,0.3,2.7c0.6,0.1,0.9-0.6,1.2-0.8c0.8-0.6,1.9-1.8,2.9-2.1c0.2,0.4,0.4,0.8,0.7,1.1
	c0.4,0.6,0.9,1.2,1.3,1.9c0.2,0.3,0.4,0.8,0.9,0.9c1.1,0.2,1.1-2.1,1.3-2.9c0.5-2.1,1.2-4.1,2-5.9c0.3-0.6,2.1-4,2.1-4
	c0.6-0.9,1.2-1.8,1.8-2.7c0.5,0,1.1,0,1.6,0l1.8,2.7l1.2,2.1c0.4,0.9,0.8,1.8,1.3,2.7c0.7,1.6,1.2,3.5,1.6,5.4
	c0.2,0.8,0.2,2.9,1.1,2.7c0.5-0.1,0.7-0.6,0.9-0.9c0.4-0.6,0.9-1.3,1.3-1.9c0.2-0.4,0.4-0.7,0.6-1.1c0,0,0,0,0.1,0
	c0.4,0.2,0.6,0.5,0.9,0.7c0.6,0.5,1.3,1,1.9,1.5c0.3,0.2,0.6,0.9,1.2,0.8c1-0.2,0.5-2,0.3-2.7c-0.7-2.7-1.4-5.4-2.4-7.8
	c1,0,2,0,3.1,0c0,7,0,14,0,20.9"/>
</svg>
