<?xml version="1.0" encoding="utf-8"?>
<!-- Generator: Adobe Illustrator 23.0.1, SVG Export Plug-In . SVG Version: 6.00 Build 0)  -->
<svg version="1.1" id="Слой_1" xmlns="http://www.w3.org/2000/svg" xmlns:xlink="http://www.w3.org/1999/xlink" x="0px" y="0px"
	 viewBox="0 0 37 40" style="enable-background:new 0 0 37 40;" xml:space="preserve">
<style type="text/css">
	.st0{fill-rule:evenodd;clip-rule:evenodd;fill:#2A2A2A;}
	.st1{fill-rule:evenodd;clip-rule:evenodd;fill:#5B970D;}
</style>
<path class="st0" d="M36.5,1.2c-0.3-0.5-0.9-0.9-1.5-1.1C34.4-0.1,33.3,0,32.5,0c-1.6,0-3.2,0-4.8,0C19.4,0,11.1,0,2.8,0
	c0,1.6,0,3.3,0,4.9c-1.3,0.4-2.2,1-2.6,2.3C0,7.8-0.1,8.7,0.4,8.9C0.5,9,0.7,9,0.9,8.9c0.6-0.2,0.4-0.7,0.6-1.3
	C1.7,7,2.5,6.1,3.5,6.2c1,0.1,1.6,0.6,1.9,1.5c0.1,0.3,0,0.7,0.2,0.9c0.2,0.2,0.6,0.4,1,0.2C7,8.6,6.9,7.7,6.7,7.2
	c-0.3-1-1-1.7-1.9-2.1C4.6,5,4.4,5,4.2,4.9c0,0,0,0,0,0c0-1.2,0-2.3,0-3.5c2,0,4.1,0,6.2,0c0,12.4,0,24.8,0,37.2c-2,0-4.1,0-6.2,0
	c0-1.2,0-2.4,0-3.5c0-0.4,0.1-1.2,0-1.5c-0.2-0.4-0.9-0.6-1.2-0.2c-0.2,0.3-0.1,1.1-0.1,1.7c-2-0.6-1.7-3.6,0.4-4
	c1.2-0.2,2,0.6,2.3,1.4c0.2,0.6,0,1.2,0.7,1.3c0.2,0,0.4,0,0.5-0.1c0.4-0.3,0.3-1.1,0.1-1.6c-0.4-1.1-1.1-2-2.2-2.3
	c-3.7-1.2-5.9,3.8-3.3,5.9c0.4,0.3,0.9,0.7,1.6,0.8c0,1.2,0,2.3,0,3.5c8.3,0,16.5,0,24.8,0c1.6,0,3.2,0,4.8,0c0.8,0,1.8,0.1,2.5-0.1
	c0.5-0.1,1-0.4,1.3-0.7c0.9-0.7,0.9-1.9,0.9-3.5c0-1.7,0-3.4,0-5.2c0-7,0-14.1,0-21.1c0-1.7,0-3.4,0-5.1C37,3,37,1.9,36.5,1.2z
	 M35,38.3c-0.4,0.3-1.3,0.3-2,0.3c-1.5,0-2.9,0-4.4,0c-5.7,0-11.3,0-17,0c0-12.4,0-24.8,0-37.1c5.9,0,11.7,0,17.6,0
	c1.4,0,2.8,0,4.2,0c0.9,0.1,1.4-0.1,1.8,0.5c0.4,0.5,0.3,1.4,0.3,2.4c0,1.7,0,3.5,0,5.2c0,6.9,0,13.8,0,20.7c0,1.9,0,3.8,0,5.7
	C35.6,36.9,35.7,37.8,35,38.3z"/>
<path class="st1" d="M15.5,6.4c0,2.1,0,4.3,0,6.4c2.1,0,4.3,0,6.4,0c0-2.1,0-4.3,0-6.4C19.7,6.4,17.6,6.4,15.5,6.4z M20.6,11.6
	c-1.3,0-2.6,0-3.9,0c0-1.3,0-2.6,0-3.9c1.3,0,2.6,0,3.9,0C20.6,9,20.6,10.3,20.6,11.6z"/>
<path class="st1" d="M25.2,6.4c0,2.1,0,4.3,0,6.4c2.1,0,4.3,0,6.4,0c0-2.1,0-4.3,0-6.4C29.5,6.4,27.3,6.4,25.2,6.4z M30.4,11.6
	c-1.3,0-2.6,0-3.9,0c0-1.3,0-2.6,0-3.9c1.3,0,2.6,0,3.9,0C30.4,9,30.4,10.3,30.4,11.6z"/>
<path class="st0" d="M3.1,9C5,8.9,6,9.8,6.6,11c0.2,0.4,0.5,1.5,0,1.9c-0.3,0.3-0.9,0.1-1.1-0.2c-0.1-0.2-0.1-0.6-0.1-0.9
	c-0.2-0.8-1.1-1.7-2.2-1.5c-0.9,0.2-1.5,0.7-1.7,1.5c-0.1,0.3,0,0.8-0.2,1c-0.2,0.2-0.6,0.4-1,0.2c-0.5-0.3-0.3-1.2-0.1-1.7
	c0.4-1,1.1-1.8,2.1-2.1C2.6,9.1,2.8,9,3.1,9z"/>
<path class="st0" d="M3.2,13.1c1.8,0,2.9,0.9,3.4,2.1c0.2,0.5,0.5,1.6,0,1.9c-0.3,0.2-0.8,0.1-1-0.2c-0.2-0.2-0.1-0.7-0.2-1
	c-0.2-0.8-0.9-1.3-1.8-1.4c-1.1-0.2-2,0.8-2.2,1.5c-0.1,0.3,0,0.7-0.2,1c-0.2,0.3-0.7,0.4-1,0.2c-0.4-0.3-0.2-1.2,0-1.7
	c0.4-1,1.1-1.7,2.1-2.1C2.6,13.2,2.9,13.2,3.2,13.1z"/>
<path class="st0" d="M3.3,17.2c1.7,0,2.7,0.9,3.3,2.1c0.2,0.4,0.5,1.5,0.1,1.8c-0.3,0.3-0.8,0.2-1.1-0.1c-0.2-0.2-0.1-0.6-0.2-0.9
	c-0.2-0.7-1.1-1.7-2.1-1.5c-0.9,0.1-1.6,0.6-1.8,1.4c-0.1,0.3,0,0.8-0.2,1.1c-0.2,0.3-0.7,0.3-1,0.1c-0.4-0.3-0.2-1.3,0-1.7
	c0.4-1,1.1-1.8,2.2-2.1C2.7,17.3,3,17.3,3.3,17.2z"/>
<path class="st1" d="M15.5,16.4c0,2.1,0,4.3,0,6.4c2.1,0,4.3,0,6.4,0c0-2.1,0-4.3,0-6.4C19.7,16.4,17.6,16.4,15.5,16.4z M20.6,21.6
	c-1.3,0-2.6,0-3.9,0c0-1.3,0-2.6,0-3.9c1.3,0,2.6,0,3.9,0C20.6,19,20.6,20.3,20.6,21.6z"/>
<path class="st1" d="M25.2,16.4c0,2.1,0,4.3,0,6.4c2.1,0,4.3,0,6.4,0c0-2.1,0-4.3,0-6.4C29.5,16.4,27.3,16.4,25.2,16.4z M30.4,21.6
	c-1.3,0-2.6,0-3.9,0c0-1.3,0-2.6,0-3.9c1.3,0,2.6,0,3.9,0C30.4,19,30.4,20.3,30.4,21.6z"/>
<path class="st0" d="M3.1,21.4c1.9,0,2.9,0.8,3.5,2.1c0.2,0.4,0.5,1.5,0,1.9c-0.4,0.3-0.9,0.1-1.1-0.2c-0.1-0.2-0.1-0.6-0.1-0.9
	c-0.2-0.8-1-1.7-2.3-1.5c-0.9,0.2-1.5,0.7-1.7,1.5c-0.1,0.3,0,0.8-0.2,1c-0.2,0.2-0.7,0.4-1,0.2C-0.2,25,0,24.2,0.2,23.7
	c0.4-1,1.1-1.7,2.1-2.1C2.5,21.5,2.8,21.4,3.1,21.4z"/>
<path class="st0" d="M3.2,25.5c1.8,0,2.9,0.9,3.4,2.1c0.2,0.5,0.5,1.5,0,1.9c-0.3,0.2-0.8,0.1-1-0.1c-0.2-0.2-0.1-0.7-0.2-1.1
	c-0.2-0.8-0.9-1.3-1.7-1.4c-1.1-0.2-2,0.7-2.2,1.5c-0.1,0.3,0,0.7-0.2,0.9c-0.2,0.3-0.7,0.5-1.1,0.2c-0.4-0.3-0.2-1.2,0-1.7
	c0.4-1,1-1.7,2-2.1C2.5,25.6,2.9,25.6,3.2,25.5z"/>
<path class="st1" d="M15.5,26.4c0,2.1,0,4.3,0,6.4c2.1,0,4.3,0,6.4,0c0-2.1,0-4.3,0-6.4C19.7,26.4,17.6,26.4,15.5,26.4z M20.6,31.6
	c-1.3,0-2.6,0-3.9,0c0-1.3,0-2.6,0-3.9c1.3,0,2.6,0,3.9,0C20.6,29,20.6,30.3,20.6,31.6z"/>
<path class="st1" d="M25.2,26.4c0,2.1,0,4.3,0,6.4c2.1,0,4.3,0,6.4,0c0-2.1,0-4.3,0-6.4C29.5,26.4,27.3,26.4,25.2,26.4z M30.4,31.6
	c-1.3,0-2.6,0-3.9,0c0-1.3,0-2.6,0-3.9c1.3,0,2.6,0,3.9,0C30.4,29,30.4,30.3,30.4,31.6z"/>
</svg>
