<?xml version="1.0" encoding="utf-8"?>
<!-- Generator: Adobe Illustrator 23.0.1, SVG Export Plug-In . SVG Version: 6.00 Build 0)  -->
<svg version="1.1" id="Слой_1" xmlns="http://www.w3.org/2000/svg" xmlns:xlink="http://www.w3.org/1999/xlink" x="0px" y="0px"
	 viewBox="0 0 40 40" style="enable-background:new 0 0 40 40;" xml:space="preserve">
<style type="text/css">
	.st0{fill-rule:evenodd;clip-rule:evenodd;fill:#2A2A2A;}
	.st1{fill-rule:evenodd;clip-rule:evenodd;fill:#5B970D;}
</style>
<path class="st0" d="M2,0c6.8,0,13.5,0,20.3,0c2.2,0,4.5,0,6.7,0c0.4,0.1,0.8,0.3,1,0.5c0.7,0.6,0.7,1.6,0.7,2.9c0,1.7,0,3.3,0,5
	c0,1.6,0,3.1,0,4.7c0,0.6,0.1,1.5-0.1,1.9c-0.4,0.6-1.3,0.4-1.5-0.2c0-3.4,0-6.7,0-10.1c0-0.8,0.2-2.8-0.3-3c-0.5-0.2-1.3,0-1.9,0
	c-1.4,0-2.9,0-4.3,0c-4.9,0-9.8,0-14.7,0c-1.5,0-3.1,0-4.6,0C2.7,1.7,1.9,1.5,1.7,2c0,9.3,0,18.5,0,27.8c0,2.1,0,4.2,0,6.3
	c0,0.7-0.2,1.9,0.3,2.1c0.3,0.1,1.3,0,1.7,0c1.4,0,2.8,0,4.1,0c4.9,0,9.8,0,14.7,0c1.5,0,3,0,4.5,0c0.5,0,1.4,0.1,1.8-0.1
	c0.3-0.2,0.2-1.2,0.2-1.8c0-1.5,0-3,0-4.5c0-0.8,0-1.7,1-1.5c0.9,0.2,0.7,1.5,0.7,2.5c0,1.2,0,2.5,0,3.7c0,0.6,0.1,1.3-0.1,1.8
	c-0.1,0.5-0.4,0.9-0.8,1.2c-0.2,0.2-0.5,0.3-0.9,0.4c-1.8,0-3.7,0-5.5,0c-5.5,0-10.9,0-16.4,0c-1.2,0-2.5,0-3.7,0
	c-0.6,0-1.3,0.1-1.8-0.1c-0.5-0.1-0.9-0.5-1.2-0.8C-0.2,38.2,0,35,0,33.3c0-4.9,0-9.7,0-14.6c0-4.2,0-8.4,0-12.6c0-1,0-2,0-3
	c0-0.6,0-1.3,0.1-1.8c0.2-0.6,0.7-1,1.3-1.2C1.7,0.1,1.8,0,2,0z"/>
<path class="st1" d="M7.6,5.6c0,0.3,0,0.7,0,1c4.4,0,8.8,0,13.2,0c0.8,0,1.6,0,2.4,0c0.3,0,0.7-0.1,0.9,0c0.3,0.1,0.6,0.4,0.5,0.9
	c-0.1,0.3-0.3,0.6-0.5,0.7c-0.2,0.1-0.7,0-0.9,0c-0.9,0-1.7,0-2.6,0c-3.7,0-7.4,0-11.1,0C8.5,8.3,6.4,8.5,6,7.8C5.9,7.5,5.9,5,6,4.6
	c0-0.2,0.2-0.3,0.3-0.4C6.7,3.8,9,4,9.9,4c3.3,0,6.6,0,9.8,0c1.5,0,3,0,4.5,0c0.3,0.1,0.5,0.3,0.6,0.6c0.1,0.5-0.2,0.9-0.5,1
	c-1.1,0-2.2,0-3.3,0C16.5,5.6,12.1,5.6,7.6,5.6z"/>
<path class="st1" d="M8.7,9.3c3.6,0,7.3,0,10.9,0c1.1,0,3.5-0.3,3.2,0.9c-0.2,1.1-2.3,0.7-3.5,0.7c-3.6,0-7.2,0-10.8,0
	C8,10.8,7.8,10,8.2,9.5C8.3,9.4,8.5,9.3,8.7,9.3z"/>
<path class="st0" d="M37.8,9.6c-0.4,0.2-0.5,0.3-0.7,0.7c0,0,0,0,0,0c0.3,0.2,0.5,0.3,0.8,0.5C38.2,10.3,38.6,9.8,37.8,9.6z"/>
<path class="st1" d="M11.2,13.9c4,0,8,0,12,0c1.2,0,3.9-0.4,3.5,1c-0.1,0.3-0.3,0.5-0.6,0.6c-1.1,0-2.2,0-3.2,0c-3.9,0-7.8,0-11.7,0
	c-0.5-0.1-0.9-0.8-0.5-1.3C10.9,14,11.1,14,11.2,13.9z"/>
<path class="st1" d="M5.4,17.8c3.6,0,7.2,0,10.8,0c1.3,0,3.3-0.4,3.4,0.8c0.1,1.2-2.3,0.8-3.4,0.8c-3.6,0-7.1,0-10.7,0
	c-0.6-0.1-1-0.9-0.5-1.4C5,17.9,5.2,17.9,5.4,17.8z"/>
<path class="st1" d="M21.2,17.8c1.2,0,2.4,0,3.6,0c0.5,0,1.2-0.1,1.5,0.1c0.2,0.1,0.5,0.5,0.4,0.9c-0.1,0.2-0.3,0.5-0.5,0.6
	c-0.3,0.1-0.8,0.1-1.1,0.1c-0.9,0-1.8,0-2.7,0c-0.5,0-1.1,0.1-1.5-0.1c-0.4-0.2-0.6-1-0.2-1.4C20.9,18,21.1,17.9,21.2,17.8z"/>
<path class="st1" d="M5.3,21.2c1.9,0,3.9,0,5.8,0c0.9,0,2-0.1,1.8,0.9c-0.2,0.8-0.9,0.7-1.8,0.7c-1.4,0-2.8,0-4.1,0
	c-0.5,0-1.4,0.1-1.8,0C4.3,22.4,4.6,21.5,5.3,21.2z"/>
<path class="st1" d="M14.5,21.2c1.3,0,2.5,0,3.8,0c0.5,0,1.2-0.1,1.5,0.1c0.2,0.1,0.5,0.5,0.4,0.9c-0.1,0.3-0.3,0.5-0.5,0.6
	c-0.3,0.1-0.7,0-1,0c-0.9,0-1.9,0-2.8,0c-0.5,0-1.2,0.1-1.5-0.1C13.5,22.2,14,21.5,14.5,21.2z"/>
<path class="st0" d="M8.2,25.8c1.6,0,2.7,0.4,3.6,1.1c0.5,0.3,0.7,1.1,0.1,1.5c-0.5,0.3-1-0.1-1.3-0.3c-0.6-0.3-1.5-0.7-2.5-0.6
	c-0.7,0.1-1.3,0.3-1.8,0.6c-1.5,0.9-2.7,3.4-1.5,5.5C5.3,34.3,6,35,6.9,35.4c2.2,0.9,4.2-0.4,5.1-1.7c0.2-0.4,0.4-0.9,0.5-1.3
	c0.2-0.8,0-1.4,0.7-1.6c0.2-0.1,0.5,0,0.6,0.1c0.7,0.5,0.3,2.1,0,2.7c-0.8,2-2.3,3.3-4.8,3.8c-0.9,0.1-1.9,0-2.5-0.3
	c-2.4-0.8-5-3.9-3.6-7.4c0.7-1.7,1.8-2.9,3.5-3.6c0.4-0.1,0.7-0.2,1.1-0.3C7.8,25.8,8,25.8,8.2,25.8z"/>
<path class="st0" d="M37.5,7.9c1.5,0,2.7,1,2.4,2.6c-0.1,0.5-0.4,0.7-0.5,1.1c0.3,0.2,0.3,0.8,0.1,1.1c-0.5,0.9-1,1.7-1.5,2.6
	c0.9,0.3,1.8,1.4,1.4,2.8c-0.1,0.4-0.4,0.7-0.6,1c-0.5,0.9-1,1.8-1.5,2.6c-0.3,0.5-0.8,2-1.7,1.8c-0.9-0.3-0.5-1.2-0.2-1.8
	c0.8-1.4,1.6-2.8,2.4-4.2c0.1-0.5-0.4-0.7-0.7-0.8c-0.8,1.4-1.6,2.8-2.4,4.2c-1.1,1.9-2.1,3.7-3.2,5.6c-0.5,0.7-1.1,1.3-1.6,2
	c-0.3,0.4-0.6,0.7-0.9,1.1c-0.3,0.5-0.6,1.2-1,1.6c-0.3,0.3-0.7,0.5-1.2,0.5c-0.2,0-0.7-0.1-0.8,0c-0.7,0.6-1.1,1.7-1.9,2.2
	c-0.8,0.4-1.6,0-2-0.5c-0.2-0.3-0.3-0.6-0.4-0.9c0,0,0,0,0,0c-0.2,0.2-0.3,0.5-0.6,0.6c-0.2,0.1-0.4,0.1-0.5,0.2
	c-0.4,0.1-0.7-0.1-0.9-0.2c-0.8-0.4-0.7-1.2-0.9-2.3c0-0.2,0-0.5-0.1-0.7c0,0,0,0,0,0c-0.4,1.3-0.9,2.5-1.3,3.8
	c-0.2,0.5-0.6,1.1-1.3,0.7c-0.5-0.4-0.3-1-0.1-1.6c0.4-1.1,0.8-2.3,1.2-3.4c0.2-0.6,0.3-1.2,0.7-1.5c0.2-0.1,0.4-0.3,0.6-0.3
	c0.4-0.1,0.8,0,1,0.1c1,0.5,0.7,1.4,0.9,2.6c0,0.2,0,0.5,0.1,0.7c0,0,0,0,0,0c0.2-0.1,0.3-0.3,0.5-0.4c1.3-0.8,2.3,0.5,2.5,1.5
	c0,0,0,0,0,0c0.4-0.5,0.8-1,1.2-1.5c-0.1-0.3-0.2-0.5-0.3-0.9c-0.2-1,0.5-1.9,0.9-2.4c0.2-0.6,0.5-1.3,0.7-1.9
	c0.2-0.6,0.5-1.2,0.7-1.9c1.9-3.2,3.7-6.4,5.6-9.6c-0.3-0.2-0.6-0.3-0.8-0.7c-0.3-0.6,0.3-1.3,0.9-1.2c0.2,0.1,0.5,0.2,0.7,0.4
	c0.4-0.7,0.8-1.3,1.2-2c0.2-0.3,0.3-0.8,0.6-1c0.2-0.1,0.7-0.1,0.7-0.1C35.8,9.2,36,9,36.1,8.7C36.5,8.3,36.9,8.2,37.5,7.9z
	 M35.7,11.4c-0.2,0.5-1.1,1.6-1.1,2c0.7,0.4,1.3,0.7,2,1.1c0.4-0.7,0.8-1.3,1.1-2C37.1,12.1,36.4,11.7,35.7,11.4z M33.8,14.8
	c-1.7,3-3.4,5.9-5.1,8.9c0.7,0.4,1.3,0.7,2,1.1c1.7-2.9,3.4-5.9,5.1-8.8C35.1,15.6,34.4,15.2,33.8,14.8z M28,25.2
	c-0.3,0.7-0.5,1.5-0.8,2.2c0.3,0.1,0.9,0.7,1.2,0.5c0.5-0.6,0.9-1.1,1.4-1.7c0,0,0,0,0,0C29.1,25.8,28.5,25.5,28,25.2z M26.5,28.9
	c-0.1,0.3-0.3,0.5-0.2,0.9c0.7,0.5,0.8,0,1.1-0.4c0,0,0,0,0,0C27,29.2,26.7,29.1,26.5,28.9z"/>
<path class="st0" d="M10.9,29.5c0.7,0,1.3,0.5,0.9,1.2c-0.2,0.3-0.6,0.5-0.8,0.8c-0.5,0.5-1.4,1.6-2,1.9c-0.2,0.1-0.6,0.2-1,0.2
	c-0.5-0.1-2.1-1.6-2.3-2c-0.1-0.2-0.1-0.7,0-0.9c0.2-0.2,0.7-0.5,1.1-0.3c0.3,0.2,1.3,1.1,1.5,1.4c0,0,0.1-0.1,0.1-0.1
	c0.2-0.1,0.3-0.4,0.5-0.5C9.6,30.7,10.1,29.9,10.9,29.5z"/>
</svg>
