<?xml version="1.0" encoding="utf-8"?>
<!-- Generator: Adobe Illustrator 23.0.1, SVG Export Plug-In . SVG Version: 6.00 Build 0)  -->
<svg version="1.1" id="Слой_1" xmlns="http://www.w3.org/2000/svg" xmlns:xlink="http://www.w3.org/1999/xlink" x="0px" y="0px"
	 viewBox="0 0 41 40" style="enable-background:new 0 0 41 40;" xml:space="preserve">
<style type="text/css">
	.st0{fill-rule:evenodd;clip-rule:evenodd;fill:#5B970D;}
	.st1{fill-rule:evenodd;clip-rule:evenodd;fill:#2A2A2A;}
</style>
<path class="st0" d="M5.9,0c4.1-0.1,7.4,4.1,5.7,8.2c-0.9,2.2-2.6,3.3-5.2,3.8c-0.9,0.2-2-0.2-2.7-0.5c-2.3-1-4.6-4.1-3.3-7.5
	C1.1,2.2,2.3,1,4,0.3C4.5,0.2,4.9,0.1,5.3,0C5.5,0,5.7,0,5.9,0z M33.8,0c4-0.1,7.4,3.9,5.7,8.1c-0.9,2.2-2.6,3.5-5.3,3.9
	c-0.9,0.1-2-0.2-2.7-0.5c-2.5-1.1-4.7-4.2-3.3-7.7C29,2.2,30.2,1,31.8,0.4c0.4-0.2,0.9-0.3,1.4-0.3C33.4,0,33.6,0,33.8,0z M5.6,1.4
	C5.3,1.5,4.8,1.5,4.5,1.6C3.1,2.1,2,3.2,1.6,4.6c-0.9,2.8,0.9,4.9,2.7,5.7c0.6,0.2,1.4,0.5,2.3,0.3c1.8-0.3,3.1-1.2,3.8-2.7
	c1.2-2.8-0.5-5.4-2.6-6.3C7.2,1.4,6.5,1.3,5.6,1.4z M33.6,1.4c-0.4,0.2-0.9,0.1-1.3,0.3c-1.2,0.5-2.2,1.4-2.7,2.7
	c-1.1,2.8,0.8,5.2,2.7,6c0.5,0.2,1.4,0.5,2.2,0.3c1.8-0.3,3.1-1.3,3.8-2.7c1.2-2.8-0.5-5.4-2.5-6.2C35.1,1.4,34.4,1.3,33.6,1.4z
	 M6.7,2.7c1.2,0,2,0.8,2,2c-0.4,0-0.9,0-1.3,0C7.4,4.3,7.1,4,6.7,4c0,0.4,0,0.9,0,1.3c2.6,0,2.6,4,0,4c0,0.2,0,0.4,0,0.7
	c-0.4,0-0.9,0-1.3,0c0-0.2,0-0.4,0-0.7c-1.1,0-2-0.8-2-2c0.4,0,0.9,0,1.3,0C4.7,7.8,5,7.9,5.4,8c0-0.4,0-0.9,0-1.3
	c-1.3,0-2.5-1.3-1.9-2.8c0.4-0.9,0.9-1,1.9-1.2c0-0.2,0-0.4,0-0.6c0.4,0,0.9,0,1.3,0C6.7,2.2,6.7,2.5,6.7,2.7z M34.6,2
	c0,0.2,0,0.4,0,0.7c1.1,0,2,0.8,2,2c-0.4,0-0.9,0-1.3,0C35.3,4.3,35,4,34.6,4c0,0.4,0,0.9,0,1.3c2.6,0,2.6,4,0,4c0,0.2,0,0.4,0,0.7
	c-0.4,0-0.9,0-1.3,0c0-0.2,0-0.4,0-0.7c-1.1,0-2-0.9-2-2c0.4,0,0.9,0,1.3,0c0,0.4,0.3,0.6,0.7,0.7c0-0.4,0-0.9,0-1.3
	c-2.6,0-2.6-4,0-4c0-0.2,0-0.5,0-0.7C33.8,2,34.2,2,34.6,2z M19.5,3.3c3.2,0,5,1.4,6,3.6c0.4,0.8,0.7,2.2,0.4,3.5
	c-0.1,0.5-0.3,1.1-0.5,1.5c-0.9,1.9-2.5,3-5,3.4c-1,0.2-2-0.2-2.7-0.5c-2.3-1-4.6-3.8-3.5-7.3c0.6-1.8,1.8-3.1,3.4-3.8
	c0.4-0.1,0.8-0.2,1.2-0.4C19.1,3.4,19.3,3.4,19.5,3.3z M5.4,4c-0.9,0-0.8,1.1,0,1.3C5.4,4.9,5.4,4.5,5.4,4z M33.3,4
	c-0.9,0-0.9,1.1,0,1.3C33.3,4.9,33.3,4.5,33.3,4z M19.6,4.7c-0.5,0.2-1,0.2-1.4,0.3c-1.2,0.5-2.1,1.5-2.6,2.7
	c-1.1,2.8,0.9,5.2,2.7,5.9c0.5,0.2,1.4,0.4,2.1,0.3c1.8-0.3,3.1-1.2,3.8-2.7C25.8,7.8,23.1,4.7,19.6,4.7z M19.3,5.3
	c0.4,0,0.9,0,1.3,0c0,0.2,0,0.4,0,0.7c1.1,0,2,0.9,2,2c-0.4,0-0.9,0-1.3,0c0-0.4-0.3-0.7-0.7-0.7c0,0.4,0,0.9,0,1.3c2.6,0,2.6,4,0,4
	c0,0.2,0,0.4,0,0.7c-0.4,0-0.9,0-1.3,0c0-0.2,0-0.4,0-0.7c-1.1,0-2-0.8-2-2c0.4,0,0.9,0,1.3,0c0,0.4,0.3,0.6,0.7,0.7
	c0-0.4,0-0.9,0-1.3c-1.3,0-2.4-1.3-1.9-2.7c0.3-0.9,0.9-1.1,1.9-1.3C19.3,5.8,19.3,5.6,19.3,5.3z M6.7,6.7c0,0.4,0,0.9,0,1.3
	c0,0,0,0,0,0C7.5,7.8,7.6,6.7,6.7,6.7z M34.6,6.7c0,0.4,0,0.9,0,1.3C35.5,7.8,35.5,6.7,34.6,6.7z M19.3,7.3c-0.9,0-0.9,1.2,0,1.3
	C19.3,8.2,19.3,7.8,19.3,7.3z M20.7,10c0,0.4,0,0.9,0,1.3C21.5,11.3,21.5,10,20.7,10z M4.1,13.3c0.4,0,0.9,0,1.3,0c0,1.3,0,2.7,0,4
	c-0.4,0-0.9,0-1.3,0C4.1,16,4.1,14.7,4.1,13.3z M6.7,13.3c0.4,0,0.9,0,1.3,0c0,0.4,0,0.9,0,1.3c-0.4,0-0.9,0-1.3,0
	C6.7,14.2,6.7,13.8,6.7,13.3z M32,13.3c0.4,0,0.9,0,1.3,0c0,0.4,0,0.9,0,1.3c-0.4,0-0.9,0-1.3,0C32,14.2,32,13.8,32,13.3z
	 M34.6,13.3c0.4,0,0.9,0,1.3,0c0,1.3,0,2.7,0,4c-0.4,0-0.9,0-1.3,0C34.6,16,34.6,14.7,34.6,13.3z M19.3,16c0.4,0,0.9,0,1.3,0
	c0,0.4,0,0.9,0,1.3c-0.4,0-0.9,0-1.3,0C19.3,16.9,19.3,16.4,19.3,16z"/>
<path class="st1" d="M36.6,24.6c1.8,0,2.9,1.2,3.3,2.6c0.2,0.6,0.1,1.5,0.1,2.2c0,0.8,0,1.6-0.2,2.2c-0.3,1.1-1.2,1.9-2.3,2.2
	c-0.3,0-0.6,0.1-0.9,0.1c0,1.8,0.3,4.7-0.6,5.5c-1,0.8-4.2,0.5-6,0.5c-5.1,0-10.3,0-15.4,0c-2.1,0-4.1,0-6.2,0
	c-2.2,0-3.9,0.2-4.3-1.7c0-4.9,0-9.8,0-14.7c0-2.3-0.4-4.3,1.4-4.8c0.6-0.2,1.6-0.1,2.3-0.1c1.6,0,3.2,0,4.8,0c5.2,0,10.5,0,15.7,0
	c1.6,0,3.3,0,5,0c1.1,0,2,0,2.6,0.4C37,19.9,36.6,22.7,36.6,24.6z M35.3,33.9c-1.8,0-4.5,0.3-5.7-0.4c-0.7-0.4-1.3-1.2-1.6-2.1
	c-0.1-0.5-0.1-1.2-0.1-1.8c0-2,0-2.9,0.9-4c1.1-1.4,3.9-1.1,6.4-1.1c0-1.1,0-2.2,0-3.2c0-0.6,0.1-1.1-0.3-1.3
	c-0.3-0.2-1.1-0.1-1.6-0.1c-1.3,0-2.6,0-4,0c-5,0-10,0-15.1,0c-2.3,0-4.5,0-6.8,0c-0.9,0-2.1-0.2-2.2,0.5c0,4.6,0,9.2,0,13.9
	c0,1.2,0,2.5,0,3.7c0,0.2,0.2,0.4,0.4,0.5c7.4,0,14.8,0,22.2,0c1.7,0,3.4,0,5.1,0c0.6,0,1.6,0.1,2-0.2c0.3-0.2,0.2-0.8,0.2-1.3
	C35.3,36.1,35.3,35,35.3,33.9z M7.4,22c0.4,0,0.9,0,1.3,0c0,4.9,0,9.8,0,14.6c-0.4,0-0.9,0-1.3,0C7.4,31.7,7.4,26.8,7.4,22z
	 M31.2,26c-0.8,0.3-1.1,0.2-1.5,0.9c-0.6,0.8-0.5,4.2,0.1,5c0.8,1.1,3.2,0.8,5.1,0.8c1.5,0,2.7,0.1,3.4-0.7c0.4-0.5,0.5-1.1,0.5-2.1
	c0-1.4,0.1-2.4-0.5-3.2c-0.2-0.3-0.6-0.5-1-0.6c-0.5-0.1-1.3-0.1-1.9-0.1C33.9,26,32.5,26,31.2,26z M32.4,27.3
	c2.7-0.1,2.9,3.6,0.5,4c-1.5,0.3-2.7-1.3-2.1-2.7C31.1,27.7,31.6,27.6,32.4,27.3z M32.5,28.6c-0.9,0.4-0.6,1.5,0.2,1.3
	C33.5,29.8,33.4,28.6,32.5,28.6z"/>
</svg>
