<?xml version="1.0" encoding="utf-8"?>
<!-- Generator: Adobe Illustrator 23.0.1, SVG Export Plug-In . SVG Version: 6.00 Build 0)  -->
<svg version="1.1" id="Слой_1" xmlns="http://www.w3.org/2000/svg" xmlns:xlink="http://www.w3.org/1999/xlink" x="0px" y="0px"
	 viewBox="0 0 40 27" style="enable-background:new 0 0 40 27;" xml:space="preserve">
<style type="text/css">
	.st0{fill-rule:evenodd;clip-rule:evenodd;fill:#2A2A2A;}
	.st1{fill-rule:evenodd;clip-rule:evenodd;fill:#5B970D;}
</style>
<path class="st0" d="M29.4,9c0,0.9,0,1.8,0,2.6c0,0.6,0,1.1-0.1,1.7c-0.3,1.6-0.7,2.9-1.5,4.1c-1,1.4-2,2.8-3,4.2
	c-0.1,0.3-0.1,0.8-0.1,1.2c0,1.8,0.4,3.7-1.1,4.2c-0.6,0.2-1.8,0-2.5,0c-1.8,0-3.5,0-5.3,0c-0.9,0-2.2,0.1-2.8-0.3
	c-0.2-0.2-0.5-0.5-0.6-0.8c-0.1-0.4,0-0.9,0-1.3c0-1.1,0-2.2,0-3.2c0-0.4,0-0.8,0-1.2c-0.2-0.6-0.7-1.3-1.1-1.8
	c-0.8-1.3-1.6-2.7-2.4-4c-0.4-0.7-1.2-1.6-0.9-2.9c0.2-0.9,0.6-1.7,1-2.5C8.9,9,8.4,8.9,8.3,9C8.1,9.2,8,9.4,7.8,9.6
	c-0.6,0.5-1.2,0.9-2.1,1.2c-2.2,0.7-5.3-0.6-5.6-2.3c-0.2-1,0.5-1.6,1.2-1.8c1.3-0.2,2.5,0.4,3.1-0.6C4.5,6,4.7,5.7,4.6,5.4
	C4.2,3.3,1.2,5.2,0.2,3.6C0.1,3.3-0.1,2.9,0,2.5c0.1-0.4,0.4-0.7,0.7-1c1.1-1.1,3-1.9,5.1-1.3C7,0.6,7.6,1.3,8.4,2
	c1.2,0,2.4,0,3.7,0c0.2-1.1,1.7-2.3,3.2-1.9c0.6,0.1,1,0.5,1.4,0.8c0,0,0,0,0,0c0.8-1.1,3.2-1,3.9,0c0.1-0.1,0.1-0.1,0.2-0.2
	c0.3-0.1,0.5-0.4,0.8-0.5c1.1-0.4,2.4,0,2.9,0.7c0.1-0.1,0.1-0.1,0.2-0.2c0.4-0.2,0.7-0.5,1.2-0.6c1.6-0.4,3,0.8,3.3,1.9
	c0.8,0,1.6,0,2.3,0c0.3-0.5,0.7-0.8,1.1-1.1c2-1.4,4.4-1.1,6.2,0.2c0.4,0.3,0.9,0.7,1,1.3c0.2,1-0.5,1.7-1.2,1.8
	c-1.3,0.2-2.5-0.4-3.1,0.6c-0.1,0.2-0.3,0.5-0.2,0.8c0.4,2,3.5,0.1,4.4,1.8C39.8,7.7,40,8,39.9,8.3c-0.1,0.7-0.6,1.1-1.1,1.5
	c-1.9,1.4-4.4,1.4-6.3,0c-0.3-0.2-0.7-0.5-0.8-0.8C30.9,9,30.2,9,29.4,9z M4,1.7c-0.2,0-0.4,0.1-0.6,0.1C2.8,2,2.2,2.3,1.8,2.7
	c0.7,0,1.4,0,2,0c1.3,0.3,3,1.8,2.3,3.6C6,6.7,5.8,7.1,5.5,7.4c-0.7,0.9-2,0.9-3.6,0.9c0.2,0.3,0.5,0.4,0.8,0.6
	c1.6,0.8,3.5,0.1,4.4-1c0.3-0.4,0.5-0.8,0.7-1.3C8.6,3.9,6.5,1.6,4,1.7z M13.5,4.7c0.8,0,1.6,0,2.3,0c0-1.4,0.2-3.3-1.3-3
	C13.3,1.9,13.5,3.3,13.5,4.7z M17.5,4.7c0.8,0,1.7-0.1,2.3,0.1c0-1.5,0.2-2.9-1-3.1C17.3,1.4,17.5,3.3,17.5,4.7z M22.5,1.7
	c-0.5,0.2-0.8,0.3-1,0.8c-0.2,0.5-0.1,1.3-0.1,1.9c0,1.6-0.5,4.7,1.4,4.3c0.4-0.1,0.8-0.4,0.9-0.7c0.1-0.3,0.1-0.7,0.1-1.1
	c0-0.9,0-1.8,0-2.6c0-0.7,0.1-1.6-0.2-2C23.4,1.8,23,1.7,22.5,1.7z M26.5,1.7c-0.5,0.2-0.8,0.3-1,0.8c-0.2,0.5-0.1,1.4-0.1,1.9
	c0,1.6-0.5,4.7,1.4,4.3c0.4-0.1,0.8-0.4,0.9-0.7c0.1-0.3,0.1-0.8,0.1-1.2c0-0.8,0-1.7,0-2.5c0-0.7,0.1-1.6-0.2-2.1
	C27.3,1.8,27,1.7,26.5,1.7z M35.4,1.7c-0.4,0.1-0.7,0.1-1.1,0.2c-1.1,0.5-1.9,1.4-2.3,2.7c-0.6,2.3,1,4,2.4,4.5c1.2,0.5,3,0,3.6-0.8
	c-2.2,0-3.4-0.2-4.1-1.7c-0.2-0.5-0.3-1.3-0.1-1.9c0.1-0.4,0.3-0.7,0.6-1c0.7-0.9,2-1,3.7-1c0,0,0,0,0,0c-0.2-0.1-0.3-0.3-0.5-0.4
	C37.1,1.9,36.4,1.7,35.4,1.7z M11.9,3.7c-0.9,0-1.8,0-2.7,0c0.5,1,0.3,2.6,0,3.7c0.2,0,0.4,0,0.5,0c0.2-0.4,0.3-0.7,0.5-1.1
	c0.3-0.5,1-1.2,1.6-1.3C11.9,4.5,11.9,4.1,11.9,3.7z M29.4,3.7c0,1.2,0,2.5,0,3.7c0.4,0,0.9,0,1.3,0c0,0,0,0,0,0
	c-0.5-1.3-0.3-2.4,0-3.7C30.3,3.7,29.9,3.7,29.4,3.7z M14.2,25.3c3,0,6,0,9,0c0-0.9,0-1.7,0-2.6c0-0.5,0-1.1,0.1-1.5
	c0.2-0.6,0.6-1,0.9-1.5c0.8-1.1,1.6-2.2,2.4-3.2c0.7-1.1,1-2.3,1.2-3.8c0-0.9,0-1.7,0-2.6c-1.1,0.5-2.6,0.2-3.1-0.6
	c-0.1,0.1-0.1,0.1-0.2,0.2c-0.3,0.1-0.6,0.4-0.9,0.5c-1.4,0.5-2.3-0.2-3-0.8c0,0,0,0-0.1,0c-0.4,0.9-1.7,1.2-2.8,1.6
	c0,0,0.1,0.1,0.1,0.1c0.2,0.1,0.4,0.3,0.5,0.5c1.1,0.9,1.9,2.2,2.3,3.8c0.2,0.8,0.3,2-0.3,2.3c-0.5,0.2-0.9-0.1-1.1-0.4
	c-0.1-0.2,0-0.6-0.1-0.9c-0.1-0.4-0.2-0.8-0.3-1.2c-0.5-1.4-1.7-2.5-2.8-3.2c-0.5-0.4-2.1-0.8-2.2-1.5c-0.3-1.5,2.1-0.8,3.2-1
	c1.2-0.2,2-0.5,2.4-1.4c0.1-0.3,0.5-1,0.3-1.4c-0.2-0.4-1.3-0.2-1.9-0.2c-1.7,0-3.3,0-5,0c-0.3,0.1-0.6,0.2-0.8,0.4
	c-0.6,0.5-0.8,1.5-1.1,2.3c-0.3,0.7-0.5,1.4-0.8,2C10,11.3,9.8,11.6,9.7,12c-0.1,0.6,0.8,1.7,1.1,2.1c0.7,1.2,1.4,2.3,2.1,3.5
	c0.4,0.6,0.9,1.2,1.1,1.8c0.2,0.6,0.1,1.4,0.1,2.2C14.2,22.9,14.2,24.1,14.2,25.3z"/>
<path class="st1" d="M4,1.7c-0.2,0-0.4,0.1-0.6,0.1C2.8,2,2.2,2.3,1.8,2.7c0.7,0,1.4,0,2,0c1.3,0.3,3,1.8,2.3,3.6
	C6,6.7,5.8,7.1,5.5,7.4c-0.7,0.9-2,0.9-3.6,0.9c0.2,0.3,0.5,0.4,0.8,0.6c1.6,0.8,3.5,0.1,4.4-1c0.3-0.4,0.5-0.8,0.7-1.3
	C8.6,3.9,6.5,1.6,4,1.7z M35.4,1.7c-0.4,0.1-0.7,0.1-1.1,0.2c-1.1,0.5-1.9,1.4-2.3,2.7c-0.6,2.3,1,4,2.4,4.5c1.2,0.5,3,0,3.6-0.8
	c-2.2,0-3.4-0.2-4.1-1.7c-0.2-0.5-0.3-1.3-0.1-1.9c0.1-0.4,0.3-0.7,0.6-1c0.7-0.9,2-1,3.7-1c0,0,0,0,0,0c-0.2-0.1-0.3-0.3-0.5-0.4
	C37.1,1.9,36.4,1.7,35.4,1.7z M11.9,3.7c-0.9,0-1.8,0-2.7,0c0.5,1,0.3,2.6,0,3.7c0.2,0,0.4,0,0.5,0L9.1,9C8.9,9,8.4,8.9,8.3,9
	C8.1,9.2,8,9.4,7.8,9.6c-0.6,0.5-1.2,0.9-2.1,1.2c-2.2,0.7-5.3-0.6-5.6-2.3c-0.2-1,0.5-1.6,1.2-1.8c1.3-0.2,2.5,0.4,3.1-0.6
	C4.5,6,4.7,5.7,4.6,5.4C4.2,3.3,1.2,5.2,0.2,3.6C0.1,3.3-0.1,2.9,0,2.5c0.1-0.4,0.4-0.7,0.7-1c1.1-1.1,3-1.9,5.1-1.3
	C7,0.6,7.6,1.3,8.4,2c1.2,0,2.4,0,3.7,0L11.9,3.7z M29.4,7.4c0.4,0,0.9,0,1.3,0c0,0,0,0,0,0c-0.5-1.3-0.3-2.4,0-3.7
	c-0.4,0-0.9,0-1.3,0L29.3,2c0.8,0,1.6,0,2.3,0c0.3-0.5,0.7-0.8,1.1-1.1c2-1.4,4.4-1.1,6.2,0.2c0.4,0.3,0.9,0.7,1,1.3
	c0.2,1-0.5,1.7-1.2,1.8c-1.3,0.2-2.5-0.4-3.1,0.6c-0.1,0.2-0.3,0.5-0.2,0.8c0.4,2,3.5,0.1,4.4,1.8C39.8,7.7,40,8,39.9,8.3
	c-0.1,0.7-0.6,1.1-1.1,1.5c-1.9,1.4-4.4,1.4-6.3,0c-0.3-0.2-0.7-0.5-0.8-0.8c-0.8,0-1.5,0-2.3,0V7.4z"/>
</svg>
