<?xml version="1.0" encoding="utf-8"?>
<!-- Generator: Adobe Illustrator 23.0.1, SVG Export Plug-In . SVG Version: 6.00 Build 0)  -->
<svg version="1.1" id="Слой_1" xmlns="http://www.w3.org/2000/svg" xmlns:xlink="http://www.w3.org/1999/xlink" x="0px" y="0px"
	 viewBox="0 0 40 40" style="enable-background:new 0 0 40 40;" xml:space="preserve">
<style type="text/css">
	.st0{fill-rule:evenodd;clip-rule:evenodd;fill:#5B970D;}
	.st1{fill-rule:evenodd;clip-rule:evenodd;fill:#2A2A2A;}
</style>
<path class="st0" d="M35.1,5.4c0.5,0,1,0,1.5,0c0,1.2,0,2.3,0,3.5c0,0.4,0.1,1,0,1.4c-1.7,0-3.4,0-5.1,0c0-0.5,0-1,0-1.5
	c0.8,0,1.6,0,2.4,0c0,0,0,0,0,0c-0.1-0.4-0.5-0.6-0.7-0.9c-0.9-1.1-2.2-2-3.4-2.8c-2.2-1.5-4.5-2.4-7.4-3.1
	c-1.3-0.3-2.7-0.5-4.6-0.4c-1.2,0.1-2.3,0.2-3.4,0.5c-2.3,0.7-4.3,1.4-6.1,2.6C7.5,5.3,6.7,5.9,6,6.5C5.4,6.4,5.2,6.1,4.9,5.8
	c0-0.1,0.1-0.4,0.1-0.5c0.7-0.5,1.3-1,2-1.5c1.5-1.1,3.3-2,5.3-2.6c1.4-0.4,2.8-0.7,4.3-1c1.6-0.3,3.5-0.1,5,0.1
	c0.4,0,0.8,0.1,1.2,0.1c1.8,0.4,3.4,0.9,4.9,1.6c2.1,0.9,3.8,2.3,5.4,3.7c0.8,0.6,1.2,1.5,2,2.1C35.1,7,35.1,6.2,35.1,5.4z"/>
<path class="st0" d="M7.3,29.6c0,0.5,0,1,0,1.5c-0.8,0-1.6,0-2.4,0c0.8,1.3,2,2.2,3.2,3.1c2.4,1.7,4.9,2.8,8.2,3.7
	c1.3,0.4,2.9,0.6,4.7,0.5c1.1-0.1,2.2-0.2,3.2-0.5c2.4-0.7,4.6-1.5,6.4-2.7c0.8-0.6,1.5-1.2,2.3-1.8c0.6,0.1,0.8,0.4,1.1,0.7
	c0,0.1-0.1,0.4-0.1,0.5c-0.7,0.5-1.3,1-2,1.6c-1.5,1.1-3.3,2-5.3,2.6c-1.4,0.4-2.8,0.7-4.3,1c-1.6,0.3-3.5,0.1-5-0.1
	c-0.4,0-0.8-0.1-1.2-0.1c-1.8-0.4-3.4-0.9-4.9-1.6c-2.1-0.9-3.8-2.3-5.4-3.7c-0.8-0.6-1.2-1.5-2-2.1c0,0.8,0,1.6,0,2.3
	c-0.5,0-1,0-1.5,0c0-1.2,0-2.3,0-3.5c0-0.4-0.1-1,0-1.4C3.9,29.6,5.6,29.6,7.3,29.6z"/>
<path class="st1" d="M7.5,23.4c0-1.6,0.6-1.9,2.2-2c0.5,0,1.5-0.2,1.7,0.2c0.2,0.2,0.1,0.9,0,1.1c-0.6,0.4-1.5,0.1-2.3,0.3
	c0,0.1,0,0.2,0,0.4c1,0,2.2-0.3,2.4,0.6c0.1,0.3,0,0.7-0.1,0.9C10.8,25.1,9.9,25,9.1,25c-1.3,0-2.6,0-4,0c0,0.9,0.2,2.2-0.4,2.7
	c-0.7,0.6-3.1,0.5-3.5-0.3c-0.5-0.8-0.2-2.4-0.2-3.5c0-1.5,0-3.1,0-4.7c0-0.8-0.1-1.6,0-2.3c0.2-0.8,0.8-1.2,1.1-1.9c0,0,0,0,0,0
	c-1.5,0-2.8-1.3-1.9-2.7c0.8-1.2,2.5-0.9,3.5-0.2c0,0,0,0,0.1,0c0.1-0.4,0.3-0.7,0.4-1.1c0.4-1,0.6-2.2,1.5-2.7C6.6,7.7,8.5,8,10,8
	c3,0,6,0,8.9,0c1.5,0,3.2-0.2,4.2,0.4c0.8,0.5,1.2,1.7,1.6,2.7c0.2,0.5,0.2,1.1-0.2,1.3c-0.2,0.1-0.8,0.2-1,0
	c-0.3-0.3-0.5-1-0.6-1.4c-0.2-0.5-0.5-1-0.8-1.4c-3.7,0-7.5,0-11.2,0c-1,0-2,0-3,0c-0.4,0-1-0.1-1.3,0.1c-0.3,0.2-0.3,0.7-0.5,1
	c-0.3,0.9-0.7,1.9-1,2.8c2.6,0,5.2,0,7.8,0c0.6,0,2.4-0.1,2.7,0.2c0.1,0.1,0.1,0.4,0.1,0.6c0,0.9-1,1-1.9,0.8c-0.8,0-1.5,0-2.3,0
	c-1.5,0-3,0-4.6,0c-0.9,0-1.7,0-2.6,0c-0.3,0.1-0.4,0.5-0.6,0.7c-0.3,0.4-0.8,0.7-0.9,1.3c0,1.2,0,2.5,0,3.7c0,0.7-0.3,1.9,0.1,2.4
	c0.2,0.2,0.7,0.3,1.1,0.3C5.1,23.5,6.3,23.5,7.5,23.4z M1.8,13.1c0,0-0.1,0.1-0.1,0.1c0,0.1,0,0.2,0,0.3c0.2,0,0.6,0,0.8,0
	c0-0.1,0-0.2,0-0.3C2.3,13.1,2,13.1,1.8,13.1z M34.9,30.5c-6.1,0-12.3,0-18.4,0c0,0.9,0.2,2.3-0.4,2.7c-0.8,0.6-3,0.5-3.5-0.3
	c-0.5-0.8-0.2-2.4-0.2-3.5c0-1.6,0-3.1,0-4.7c0-0.7-0.1-1.6,0-2.3c0.2-0.8,0.8-1.2,1.1-1.8c0,0,0,0,0,0c-1.5,0-2.8-1.3-1.9-2.7
	c0.8-1.2,2.5-0.9,3.5-0.2c0,0,0,0,0.1,0c0.1-0.4,0.3-0.8,0.4-1.2c0.4-1,0.6-2.1,1.5-2.6c0.9-0.6,2.8-0.3,4.2-0.3c3,0,6,0,9,0
	c1.4,0,3.1-0.3,4,0.3c1.1,0.7,1.4,2.6,1.9,3.9c0,0,0.1-0.1,0.1-0.1c0.2-0.2,0.5-0.3,0.7-0.5c1.1-0.4,2.3,0.2,2.7,0.8
	c0.6,1-0.1,2.3-0.9,2.6c-0.3,0-0.7,0.1-1,0.1c0.4,0.6,0.9,1.1,1.1,1.9c0.2,0.7,0,1.5,0,2.3c0,1.6,0,3.2,0,4.7c0,1.1,0.4,2.7-0.2,3.5
	c-0.5,0.7-3,0.9-3.6,0.1C34.8,32.5,34.9,31.4,34.9,30.5z M25.4,15.1c-2.5,0-4.9,0-7.4,0c-0.4,0.1-0.5,0.6-0.6,1
	c-0.4,1-0.7,1.9-1.1,2.9c6.2,0,12.5,0,18.7,0c0,0,0,0,0,0c-0.3-0.8-0.6-1.7-1-2.5c-0.1-0.4-0.2-0.9-0.4-1.2
	c-0.4-0.3-1.6-0.2-2.3-0.2C29.4,15.1,27.4,15.1,25.4,15.1z M5,16.5c2.5,0,3,3.5,0.7,4c0,0,0,0,0,0c1.4,0.1,1.2,2.3-0.3,2.5
	c-0.9,0.2-1.6-0.9-1.3-1.7c0.1-0.4,0.5-0.5,0.8-0.8c-1.1-0.1-2.3-1.4-1.7-2.7c0.2-0.5,0.7-1.1,1.3-1.3C4.6,16.5,4.8,16.5,5,16.5z
	 M9.2,17c0.4,0,1.3-0.1,1.5,0.1c0.3,0.3,0,1.3-0.1,1.5c-0.4,0-0.8,0-1.2,0c0,0,0,0,0,0c0,0.1,0.1,0.3,0.1,0.4c0.5,0,1-0.1,1.3,0.1
	c0.1,0.4,0.1,1,0,1.3c-1.6,0.5-2.5-0.1-2.9-1.4c-0.1-0.4-0.2-1.1,0-1.5C8,17.3,8.5,17.1,8.7,17C8.9,17,9.1,17,9.2,17z M5.1,18
	c-0.2,0.2-0.4,0.4-0.3,0.8c0.1,0,0.1,0.1,0.2,0.1c0.2,0.1,0.4-0.1,0.5-0.1C5.6,18.4,5.4,18.1,5.1,18z M13.1,18.6
	c0,0-0.1,0.1-0.1,0.1c0,0.1,0,0.2,0,0.3c0.3,0,0.6,0,0.8,0c0,0,0-0.1,0-0.1c0-0.1,0-0.1,0-0.2C13.6,18.6,13.4,18.6,13.1,18.6z
	 M37.7,18.6c-0.1,0.1-0.1,0.1-0.2,0.2c0,0.1,0.1,0.2,0.1,0.2c0.2,0,0.4,0,0.6,0c0,0,0.1-0.1,0.1-0.1c0-0.1,0-0.1,0-0.2
	C38.2,18.6,37.9,18.6,37.7,18.6z M18.9,29c0-0.8,0.1-1.5,0.6-1.8c0.7-0.4,2-0.2,3-0.2c2.2,0,4.4,0,6.6,0c0.9,0,2.2-0.2,2.9,0.2
	c0.5,0.3,0.4,1.1,0.6,1.8c1.1,0,2.3,0,3.4,0c0.5,0,1.1,0,1.4-0.3c0.3-0.5,0.1-1.6,0.1-2.3c0-1,0-2,0-2.9c-0.1-0.4,0-0.8-0.1-1
	c-0.2-0.6-1.1-1.3-1.5-1.9c-6.8,0-13.5,0-20.3,0c-0.2,0.1-0.4,0.5-0.6,0.7c-0.3,0.4-0.8,0.7-0.9,1.3c0,1.2,0,2.5,0,3.7
	c0,0.7-0.3,1.9,0.1,2.4c0.2,0.3,0.8,0.3,1.3,0.3C16.6,29,17.7,29,18.9,29z M16.3,22c2.5,0,3,3.5,0.7,4c0,0,0,0,0,0
	c0.7,0,1.1,0.7,0.9,1.5c-0.2,0.6-0.6,1-1.3,1.1c-0.9,0.1-1.5-1-1.2-1.9c0.1-0.3,0.5-0.4,0.7-0.7c0,0,0,0,0,0
	c-1.1-0.1-2.2-1.4-1.7-2.7c0.2-0.5,0.7-1.1,1.3-1.3C15.9,22,16.1,22,16.3,22z M34.8,22c2.9-0.1,2.8,3.6,0.4,4.1c0,0,0,0,0,0
	c0,0,0,0,0,0c0.2,0.1,0.4,0.2,0.6,0.4c0.5,0.8,0,2.3-1,2.1c-0.9-0.2-1.8-1.2-1.1-2.2c0.1-0.2,0.5-0.3,0.7-0.4c0,0,0,0,0,0
	c-1-0.1-1.8-1.6-1.3-2.7c0.2-0.4,0.6-0.9,1-1.1C34.3,22.1,34.5,22,34.8,22z M26.2,22.5c1.3,0,4.8-0.2,5.6,0.2c1,0.6,0.5,2.7-0.2,3.2
	c-0.6,0.5-2.2,0.2-3.2,0.2c-1.9,0-3.8,0-5.7,0c-0.8,0-2,0.2-2.6-0.1c-0.4-0.2-0.6-0.6-0.8-1c-0.1-0.3-0.2-0.6-0.2-0.9
	c-0.1-0.7,0.1-1.1,0.5-1.4c0.8-0.5,3.8-0.3,5.2-0.3C25.2,22.5,25.7,22.5,26.2,22.5z M16.4,23.6c-0.1,0.1-0.3,0.3-0.4,0.5
	c-0.1,0.4,0.3,0.5,0.6,0.4C17,24.2,16.9,23.6,16.4,23.6z M34.9,23.6c-0.1,0.1-0.5,0.4-0.4,0.7c0.1,0.2,0.2,0.2,0.3,0.3
	c0.3,0,0.5-0.2,0.5-0.6C35.3,23.7,35.1,23.6,34.9,23.6z M20.7,24.1c0,0.1,0.1,0.3,0.1,0.4c3.3,0,6.5,0,9.8,0c0-0.1,0-0.3,0.1-0.4
	C27.3,24.1,24,24.1,20.7,24.1z M2.6,26.4c0.3,0,0.6,0,0.9,0c0-0.5,0-0.9,0-1.4c-0.4,0-0.6,0-0.9-0.1C2.7,25.4,2.6,25.9,2.6,26.4z
	 M20.5,28.6c0,0.1,0,0.3,0,0.4c3.5,0,6.9,0,10.4,0c0-0.1,0-0.3,0-0.4C27.4,28.6,24,28.6,20.5,28.6z M14,31.9c0.3,0,0.6,0,0.9,0
	c0-0.5,0-0.9,0-1.4c-0.4,0-0.6,0-0.9-0.1C14,30.9,14,31.4,14,31.9z M36.5,30.5c0,0.5,0,0.9,0,1.4c0.3,0,0.6,0,0.9,0c0-0.5,0-1,0-1.5
	C37.1,30.5,36.9,30.5,36.5,30.5z"/>
</svg>
