<svg 
 xmlns="http://www.w3.org/2000/svg"
 xmlns:xlink="http://www.w3.org/1999/xlink"
 width="40px" height="40px">
<path fill-rule="evenodd"  fill="rgb(42, 42, 42)"
 d="M26.494,34.255 C26.453,35.496 25.589,35.911 24.554,36.196 C24.546,37.367 23.660,37.927 22.636,38.115 C22.594,40.329 19.679,40.514 18.608,39.075 C17.183,39.853 15.448,39.022 15.389,37.454 C14.579,37.439 13.892,36.863 13.641,36.281 C13.578,36.032 13.514,35.783 13.450,35.534 C13.379,35.469 12.709,35.350 12.576,35.279 C11.917,34.929 11.779,34.358 11.510,33.594 C10.272,33.567 9.869,32.647 9.592,31.611 C9.009,31.270 8.427,30.928 7.844,30.588 C7.787,30.744 7.730,30.900 7.674,31.056 C7.226,31.056 6.778,31.056 6.331,31.056 C5.144,30.651 3.958,30.246 2.771,29.841 C1.879,29.493 0.806,29.371 0.001,28.903 C0.001,24.425 0.001,19.945 0.001,15.468 C0.022,15.461 0.043,15.453 0.064,15.447 C0.782,15.439 1.500,15.432 2.217,15.425 C3.254,16.036 4.292,16.648 5.329,17.259 C5.514,17.330 7.014,16.916 7.034,16.726 C7.034,16.719 7.034,16.712 7.034,16.705 C6.074,16.179 5.417,14.989 5.158,13.762 C5.144,13.243 5.130,12.724 5.116,12.205 C5.116,11.622 5.095,11.046 5.222,10.584 C5.758,8.645 7.271,7.074 9.741,7.087 C9.622,6.791 9.063,5.681 9.166,5.445 C10.309,4.315 11.453,3.184 12.597,2.054 C13.058,2.129 14.167,3.068 14.643,3.334 C15.117,3.089 15.617,2.830 16.135,2.630 C16.405,2.551 16.675,2.474 16.945,2.395 C17.073,2.274 17.286,0.381 17.457,0.049 C18.671,0.043 19.887,0.035 21.101,0.028 C21.519,0.028 22.230,-0.068 22.529,0.092 C22.686,0.860 22.842,1.628 22.998,2.395 C23.823,2.466 24.671,2.988 25.300,3.334 C25.791,3.072 26.887,2.118 27.368,2.054 C28.519,3.199 29.670,4.343 30.820,5.488 C30.803,6.063 30.357,6.563 30.202,7.087 C32.406,7.054 34.121,8.661 34.614,10.328 C34.793,10.932 34.827,11.589 34.828,12.397 C34.828,13.198 34.793,13.850 34.614,14.444 C34.298,15.495 33.571,16.033 32.909,16.726 C32.909,16.776 32.909,16.826 32.909,16.875 C33.545,16.964 35.900,17.523 36.256,17.835 C37.228,17.352 37.827,16.705 39.282,16.705 C39.499,16.705 39.794,16.678 39.943,16.747 C39.950,19.071 39.957,21.396 39.964,23.721 C39.964,24.261 40.073,25.999 39.900,26.322 C36.071,28.242 32.241,30.161 28.412,32.080 C28.433,33.308 27.635,34.212 26.494,34.255 ZM18.650,1.521 C18.605,2.055 18.407,3.212 18.181,3.632 C17.315,3.713 16.319,4.105 15.666,4.485 C15.357,4.665 14.948,5.046 14.558,5.082 C13.983,4.705 13.407,4.329 12.832,3.952 C12.185,4.591 11.538,5.232 10.892,5.872 C10.892,5.878 10.892,5.886 10.892,5.893 C11.112,6.426 11.332,6.959 11.553,7.492 C11.723,7.577 11.894,7.663 12.064,7.748 C12.327,7.961 12.590,8.174 12.853,8.388 C12.867,8.381 12.881,8.373 12.896,8.366 C13.141,7.774 13.781,7.153 14.260,6.767 C14.761,6.363 15.238,5.931 15.815,5.594 C17.561,4.574 20.582,4.150 22.828,4.997 C24.108,5.480 25.360,6.251 26.174,7.215 C26.472,7.592 26.771,7.968 27.069,8.345 C27.297,8.160 27.524,7.976 27.751,7.791 C27.957,7.691 28.163,7.592 28.369,7.492 C28.597,6.959 28.824,6.426 29.051,5.893 C28.412,5.246 27.773,4.599 27.133,3.952 C26.739,4.189 25.694,5.040 25.279,5.082 C24.664,4.710 24.025,4.345 23.318,4.059 C22.785,3.903 22.252,3.746 21.719,3.589 C21.577,2.900 21.435,2.210 21.293,1.521 C20.412,1.521 19.531,1.521 18.650,1.521 ZM19.609,6.021 C19.396,6.042 19.183,6.063 18.970,6.084 C18.558,6.184 18.146,6.284 17.734,6.383 C16.245,6.868 15.012,7.877 14.238,9.091 C14.105,9.300 13.894,9.500 13.833,9.774 C14.114,10.147 14.159,10.693 14.260,11.246 C14.596,13.096 14.084,14.823 13.364,15.788 C13.090,16.156 12.697,16.398 12.384,16.726 C12.384,16.776 12.384,16.826 12.384,16.875 C13.172,17.074 13.961,17.273 14.750,17.472 C15.056,17.523 15.373,17.347 15.602,17.280 C16.164,17.145 16.725,17.010 17.286,16.875 C17.286,16.826 17.286,16.776 17.286,16.726 C17.272,16.705 17.258,16.683 17.244,16.662 C16.937,16.521 16.679,16.192 16.476,15.937 C15.695,14.956 15.368,13.992 15.368,12.163 C15.368,11.499 15.383,10.900 15.538,10.392 C16.119,8.500 17.477,7.450 19.609,7.087 C19.956,7.028 20.389,7.099 20.654,7.151 C22.725,7.557 24.018,8.869 24.490,10.861 C24.596,11.308 24.575,11.824 24.576,12.355 C24.576,14.493 23.945,15.878 22.657,16.705 C22.657,16.761 22.657,16.818 22.657,16.875 C23.219,17.010 23.780,17.145 24.341,17.280 C24.571,17.347 24.888,17.524 25.194,17.472 C25.982,17.273 26.771,17.074 27.560,16.875 C27.560,16.826 27.560,16.776 27.560,16.726 C27.560,16.719 27.560,16.712 27.560,16.705 C25.750,15.711 24.993,12.140 26.089,9.689 C24.941,7.544 22.896,6.026 19.609,6.021 ZM9.571,8.580 C9.272,8.636 8.974,8.694 8.675,8.750 C7.944,8.986 7.353,9.563 6.991,10.179 C6.816,10.479 6.703,10.880 6.629,11.267 C6.622,11.664 6.615,12.063 6.608,12.461 C6.608,14.448 7.348,15.095 8.526,15.873 C8.531,16.395 8.658,17.686 8.483,18.069 C8.079,18.169 7.674,18.268 7.269,18.368 C7.283,18.375 7.297,18.382 7.311,18.390 C8.363,19.007 9.414,19.626 10.466,20.245 C10.459,20.671 10.451,21.098 10.444,21.524 C11.020,21.396 11.595,21.268 12.171,21.140 C12.146,19.908 12.455,19.270 12.959,18.602 C12.270,18.410 11.581,18.218 10.892,18.026 C10.887,17.497 10.725,16.246 10.913,15.830 C12.464,15.314 13.296,13.024 12.661,10.840 C12.295,9.581 11.198,8.581 9.571,8.580 ZM19.822,8.580 C19.466,8.716 19.095,8.679 18.778,8.814 C17.257,9.465 16.881,10.586 16.881,12.780 C16.881,13.304 16.919,13.709 17.073,14.082 C17.295,14.618 17.668,15.154 18.117,15.468 C18.346,15.627 18.605,15.725 18.799,15.916 C18.805,16.425 18.919,17.730 18.736,18.069 C18.046,18.247 17.357,18.425 16.668,18.602 C15.278,19.017 13.655,19.005 13.663,20.799 C14.150,20.741 14.678,20.646 15.219,20.565 C15.654,20.499 16.181,20.570 16.540,20.628 C18.135,20.888 19.332,21.380 20.718,21.801 C21.402,22.009 22.123,22.036 22.764,22.228 C23.460,22.427 24.156,22.626 24.853,22.824 C25.269,22.950 25.712,23.194 26.259,23.102 C26.266,22.661 26.274,22.221 26.281,21.780 C26.281,20.883 26.291,20.148 25.918,19.647 C25.092,18.537 22.464,18.716 21.165,18.026 C21.165,17.323 21.165,16.619 21.165,15.916 C21.294,15.672 21.719,15.549 21.933,15.382 C22.329,15.073 22.665,14.577 22.870,14.082 C23.062,13.618 23.062,13.040 23.062,12.375 C23.062,10.141 22.000,8.576 19.822,8.580 ZM30.096,8.580 C29.798,8.636 29.499,8.694 29.201,8.750 C28.476,8.985 27.871,9.564 27.517,10.179 C27.344,10.479 27.223,10.882 27.154,11.267 C27.147,11.664 27.140,12.063 27.133,12.461 C27.133,14.444 27.876,15.095 29.051,15.873 C29.057,16.395 29.183,17.686 29.009,18.069 C28.327,18.240 27.645,18.410 26.963,18.582 C27.796,19.703 27.775,20.351 27.773,22.292 C29.982,21.126 32.192,19.960 34.401,18.794 C33.783,18.638 33.165,18.482 32.547,18.326 C32.165,18.212 31.738,18.200 31.417,18.026 C31.412,17.526 31.295,16.129 31.481,15.809 C32.944,15.299 33.798,13.130 33.229,10.968 C32.879,9.638 31.779,8.581 30.096,8.580 ZM1.471,16.939 C1.471,20.571 1.471,24.204 1.471,27.836 C2.331,28.120 3.191,28.405 4.050,28.690 C4.803,25.648 5.557,22.604 6.310,19.563 C5.421,19.051 4.533,18.538 3.645,18.026 C3.096,17.701 2.229,16.947 1.471,16.939 ZM38.430,18.390 C34.480,20.472 30.529,22.555 26.579,24.637 C26.042,24.786 25.134,24.474 24.789,24.382 C23.527,24.043 22.344,23.594 21.037,23.358 C20.296,23.224 19.759,23.584 19.332,23.785 C18.423,24.240 17.513,24.694 16.604,25.149 C16.196,25.376 15.456,25.506 15.581,26.237 C15.662,26.714 16.138,27.226 16.711,26.898 C17.822,26.262 19.564,24.639 21.357,25.171 C22.252,25.436 22.772,26.246 23.425,26.771 C24.881,28.071 26.338,29.372 27.794,30.673 C31.353,28.896 34.913,27.119 38.472,25.341 C38.472,23.621 38.472,21.901 38.472,20.180 C38.472,19.876 38.546,18.524 38.430,18.390 ZM7.674,20.373 C7.119,22.576 6.565,24.780 6.011,26.984 C5.934,27.249 5.492,29.125 5.521,29.159 C5.876,29.280 6.231,29.400 6.587,29.521 C7.169,27.453 7.752,25.384 8.334,23.315 C8.491,22.775 8.647,22.235 8.803,21.695 C8.853,21.496 8.903,21.297 8.952,21.098 C8.526,20.856 8.100,20.614 7.674,20.373 ZM18.778,34.063 C19.761,34.093 20.049,34.682 20.505,35.236 C20.895,35.563 21.286,35.890 21.677,36.217 C21.930,36.414 22.620,36.876 22.956,36.409 C23.360,35.845 22.655,35.473 22.380,35.236 C21.407,34.411 20.433,33.587 19.460,32.762 C19.460,32.734 19.460,32.705 19.460,32.677 C19.751,32.329 20.043,31.981 20.334,31.632 C20.362,31.632 20.391,31.632 20.419,31.632 C21.456,32.499 22.494,33.367 23.531,34.234 C23.800,34.444 24.473,35.000 24.874,34.490 C25.262,33.996 24.655,33.574 24.384,33.338 C23.382,32.514 22.380,31.689 21.378,30.864 C21.378,30.829 21.378,30.793 21.378,30.758 C21.670,30.410 21.961,30.061 22.252,29.713 C22.625,29.742 22.920,30.202 23.169,30.396 C23.936,31.035 24.704,31.675 25.471,32.315 C25.766,32.545 26.429,33.067 26.813,32.528 C27.221,31.957 26.446,31.523 26.174,31.270 C25.101,30.303 24.028,29.336 22.956,28.370 C22.301,27.843 21.523,26.688 20.569,26.557 C20.046,26.485 19.639,26.899 19.332,27.090 C18.312,27.725 16.631,29.100 15.112,28.135 C14.796,27.934 14.581,27.653 14.387,27.324 C14.184,26.980 14.002,26.438 14.110,25.853 C14.500,23.749 16.778,23.562 18.288,22.590 C17.604,22.461 16.968,22.203 16.178,22.079 C15.175,21.920 14.240,22.219 13.514,22.399 C12.938,22.526 12.363,22.655 11.787,22.782 C11.432,22.876 10.103,23.024 9.954,23.230 C9.400,25.185 8.846,27.140 8.292,29.095 C8.896,29.443 9.500,29.792 10.103,30.140 C10.456,29.667 11.506,28.617 12.064,28.391 C13.615,27.762 14.717,28.996 14.942,30.204 C15.824,30.254 16.450,30.846 16.732,31.505 C16.775,31.711 16.817,31.917 16.860,32.123 C17.094,32.180 17.329,32.237 17.563,32.293 C18.166,32.549 18.774,33.217 18.778,34.063 ZM12.682,29.777 C12.287,30.022 10.393,31.524 11.425,32.059 C11.952,32.332 13.307,30.912 13.428,30.566 C13.608,30.053 13.149,29.763 12.682,29.777 ZM14.665,31.696 C14.242,31.898 12.390,33.374 13.279,33.935 C13.422,34.025 13.679,34.087 13.876,33.999 C14.137,33.883 15.252,32.773 15.347,32.507 C15.522,32.010 15.101,31.689 14.665,31.696 ZM16.604,33.615 C16.201,33.826 14.258,35.342 15.219,35.876 C15.337,35.942 15.580,36.006 15.752,35.940 C16.063,35.819 17.148,34.738 17.265,34.426 C17.448,33.936 17.015,33.618 16.604,33.615 ZM18.565,35.534 C18.069,35.763 17.194,36.532 16.945,36.985 C16.771,37.301 16.968,37.730 17.201,37.838 C17.892,38.158 20.332,35.674 18.565,35.534 ZM20.462,37.155 C20.329,37.492 19.989,37.827 19.716,38.030 C19.780,38.101 19.844,38.172 19.908,38.243 C20.191,38.392 20.547,38.718 20.952,38.414 C21.538,37.972 20.747,37.350 20.462,37.155 Z"/>
</svg>