<svg 
 xmlns="http://www.w3.org/2000/svg"
 xmlns:xlink="http://www.w3.org/1999/xlink"
 width="33px" height="40px">
<path fill-rule="evenodd"  fill="rgb(42, 42, 42)"
 d="M17.355,6.628 C19.571,6.640 21.538,7.330 23.134,8.031 C27.483,9.942 30.597,13.370 32.205,18.042 C33.298,21.220 33.261,25.906 32.078,28.967 C30.107,34.068 26.445,37.770 21.025,39.382 C19.825,39.740 18.578,39.787 17.165,39.999 C16.750,39.992 16.335,39.985 15.920,39.977 C15.280,39.881 14.728,39.943 14.148,39.829 C12.571,39.519 11.205,39.135 9.929,38.575 C5.493,36.627 1.921,32.752 0.627,27.649 C0.203,25.978 -0.225,23.542 0.142,21.400 C0.298,20.487 0.405,19.596 0.648,18.765 C2.059,13.931 5.402,9.969 9.761,8.116 C11.458,7.394 13.385,6.686 15.730,6.628 C15.730,4.963 15.730,3.297 15.730,1.633 C15.730,0.784 15.710,-0.184 16.680,-0.004 C17.445,0.138 17.355,0.934 17.355,1.845 C17.355,3.439 17.355,5.034 17.355,6.628 ZM17.355,8.264 C17.362,9.526 17.369,10.787 17.376,12.048 C18.599,12.270 19.786,14.064 19.169,15.662 C18.776,16.678 18.019,17.315 16.806,17.510 C15.000,17.801 13.232,15.796 13.853,13.940 C14.179,12.965 14.791,12.386 15.730,12.027 C15.730,10.773 15.730,9.519 15.730,8.264 C13.813,8.255 12.022,8.840 10.626,9.455 C6.607,11.223 3.218,14.785 2.104,19.466 C1.712,21.110 1.344,23.527 1.745,25.524 C1.943,26.509 2.103,27.440 2.420,28.308 C4.148,33.039 7.604,36.382 12.566,37.852 C13.687,38.184 14.869,38.183 16.194,38.383 C16.701,38.362 17.207,38.341 17.713,38.320 C18.212,38.263 18.712,38.206 19.211,38.149 C20.472,37.876 21.603,37.498 22.649,37.045 C26.590,35.334 29.893,31.712 30.981,27.140 C31.340,25.634 31.729,23.497 31.403,21.591 C31.260,20.755 31.165,19.948 30.939,19.190 C29.605,14.714 26.706,11.336 22.670,9.582 C21.174,8.933 19.435,8.305 17.355,8.264 ZM15.709,13.876 C15.569,14.111 15.422,14.299 15.372,14.641 C15.268,15.346 15.989,16.043 16.764,15.874 C17.362,15.743 17.885,15.102 17.650,14.343 C17.558,14.188 17.467,14.032 17.376,13.876 C17.369,13.876 17.362,13.876 17.355,13.876 C17.376,14.619 16.687,15.164 16.047,14.705 C15.771,14.508 15.836,14.242 15.709,13.876 ZM13.030,21.167 C16.795,21.103 16.971,26.176 13.642,26.757 C11.621,27.109 9.875,24.946 10.647,22.973 C10.924,22.263 11.495,21.624 12.208,21.358 C12.482,21.294 12.756,21.230 13.030,21.167 ZM20.350,21.167 C20.733,21.157 20.955,21.267 21.109,21.485 C21.638,22.235 20.589,23.202 20.223,23.717 C18.388,26.168 16.553,28.621 14.718,31.072 C14.373,31.532 14.029,31.993 13.684,32.453 C13.487,32.724 13.312,33.100 13.030,33.282 C12.802,33.429 12.352,33.410 12.144,33.261 C11.915,33.096 11.682,32.687 11.828,32.283 C12.341,31.575 12.855,30.866 13.368,30.158 C14.893,28.125 16.420,26.091 17.945,24.057 C18.538,23.216 19.468,21.633 20.350,21.167 ZM13.094,22.803 C12.606,23.032 12.272,23.135 12.123,23.696 C11.912,24.491 12.617,25.297 13.410,25.141 C14.812,24.867 14.754,22.761 13.094,22.803 ZM19.464,27.798 C20.915,27.774 21.717,28.293 22.248,29.180 C23.368,31.049 21.914,33.055 20.266,33.367 C18.248,33.749 16.423,31.611 17.207,29.605 C17.481,28.905 18.012,28.307 18.684,28.011 C18.944,27.940 19.204,27.869 19.464,27.798 ZM19.717,29.413 C19.274,29.597 18.915,29.671 18.747,30.115 C18.433,30.945 19.057,31.952 20.012,31.752 C21.367,31.469 21.288,29.391 19.717,29.413 Z"/>
</svg>