<svg 
 xmlns="http://www.w3.org/2000/svg"
 xmlns:xlink="http://www.w3.org/1999/xlink"
 width="37px" height="42px">
<path fill-rule="evenodd"  fill="rgb(42, 42, 42)"
 d="M18.762,0.000 C19.180,-0.005 19.438,0.121 19.585,0.379 C19.784,0.726 19.674,1.550 19.674,2.051 C19.674,3.390 19.674,4.728 19.674,6.065 C19.674,6.985 19.815,7.909 19.051,8.073 C18.002,8.296 18.116,7.076 18.116,6.199 C18.116,4.869 18.116,3.538 18.116,2.208 C18.116,1.673 18.007,0.860 18.183,0.446 C18.293,0.187 18.509,0.121 18.762,0.000 ZM13.599,3.434 C14.880,3.406 14.533,4.933 14.533,6.133 C14.533,6.566 14.635,7.259 14.489,7.604 C14.403,7.808 14.165,8.018 13.932,8.073 C12.631,8.378 12.976,6.226 12.976,5.196 C12.976,4.755 12.906,4.141 13.065,3.835 C13.180,3.614 13.384,3.559 13.599,3.434 ZM23.880,3.434 C25.142,3.408 24.815,4.900 24.815,6.088 C24.815,6.542 24.908,7.211 24.770,7.582 C24.687,7.805 24.441,8.018 24.192,8.073 C22.906,8.353 23.257,6.228 23.257,5.196 C23.257,4.806 23.174,4.210 23.302,3.903 C23.410,3.642 23.632,3.561 23.880,3.434 ZM18.250,9.143 C23.379,9.061 26.559,11.678 28.086,15.186 C29.076,17.459 29.188,20.671 28.175,23.037 C26.964,25.865 24.731,27.918 21.633,28.856 C20.950,29.063 20.235,29.082 19.452,29.213 C17.872,29.477 15.868,28.788 14.889,28.366 C11.149,26.751 7.507,21.959 9.281,16.279 C10.208,13.314 12.313,10.939 15.112,9.857 C15.695,9.631 16.333,9.438 16.981,9.299 C17.404,9.247 17.827,9.195 18.250,9.143 ZM18.673,10.682 C18.391,10.704 18.109,10.726 17.827,10.748 C17.173,10.868 16.543,10.974 15.980,11.195 C13.486,12.172 11.823,13.939 10.861,16.457 C10.550,17.273 10.285,18.564 10.461,19.691 C10.584,20.483 10.614,21.105 10.817,21.765 C11.584,24.261 13.451,26.197 15.846,27.073 C16.745,27.401 18.025,27.862 19.385,27.652 C20.099,27.543 20.728,27.506 21.343,27.318 C23.822,26.562 25.759,24.794 26.707,22.501 C26.934,21.952 27.107,21.346 27.241,20.717 C27.589,19.079 27.227,17.241 26.751,16.034 C25.550,12.989 22.888,10.689 18.673,10.682 ZM18.695,12.599 C19.498,12.583 19.611,13.113 19.585,13.937 C20.648,14.160 21.436,14.942 21.766,15.900 C21.969,16.490 22.011,17.282 21.521,17.573 C21.185,17.772 20.691,17.604 20.520,17.372 C20.285,17.054 20.352,16.406 20.142,16.078 C19.532,15.130 17.940,15.299 17.538,16.324 C17.400,16.675 17.428,17.097 17.560,17.416 C18.044,18.588 19.055,18.129 20.142,18.598 C21.133,19.026 21.723,19.906 21.922,21.141 C22.122,22.385 21.159,23.529 20.498,23.951 C20.394,24.016 19.609,24.275 19.585,24.308 C19.397,24.565 19.772,25.145 19.318,25.489 C18.855,25.840 18.190,25.575 18.050,25.088 C18.035,24.805 18.020,24.523 18.005,24.240 C17.012,24.121 16.291,23.092 16.002,22.233 C15.820,21.691 15.832,20.949 16.247,20.694 C16.570,20.496 17.015,20.609 17.226,20.829 C17.533,21.148 17.474,21.927 17.738,22.278 C18.557,23.369 20.157,22.747 20.364,21.498 C20.476,20.819 19.984,20.288 19.607,20.070 C19.253,19.865 18.725,19.958 18.250,19.847 C17.717,19.723 17.263,19.451 16.892,19.155 C15.028,17.666 15.959,14.534 18.027,13.982 C18.007,13.093 18.128,12.890 18.695,12.599 ZM0.980,27.987 C2.464,28.032 3.948,28.076 5.431,28.120 C5.970,28.202 6.638,28.019 6.989,28.277 C7.394,28.575 7.286,29.257 7.278,29.927 C8.977,29.106 11.648,28.637 13.844,29.325 C15.286,29.777 16.206,30.546 17.872,30.819 C18.302,30.826 18.732,30.834 19.162,30.841 C20.650,31.076 22.326,30.710 23.791,31.020 C24.675,31.206 25.295,31.578 25.883,32.046 C26.245,32.333 26.697,32.760 26.862,33.228 C28.828,32.313 30.794,31.398 32.760,30.484 C34.514,29.942 36.490,31.079 36.921,32.268 C37.125,32.829 36.711,33.119 36.432,33.294 C35.586,33.844 34.740,34.394 33.895,34.944 C31.632,36.408 29.370,37.874 27.107,39.338 C25.770,40.219 24.547,41.261 22.812,41.724 C20.220,42.416 17.789,41.653 15.713,41.010 C14.541,40.683 13.369,40.356 12.197,40.029 C11.526,39.811 9.833,39.194 9.014,39.382 C8.548,39.489 8.175,39.727 7.813,39.940 C7.538,40.088 7.264,40.237 6.989,40.386 C6.993,40.790 6.983,41.224 6.744,41.434 C6.403,41.736 5.676,41.613 5.075,41.612 C3.547,41.560 2.019,41.508 0.491,41.456 C0.283,41.386 0.061,41.141 0.001,40.921 C0.016,40.006 0.031,39.092 0.046,38.178 C0.120,35.748 0.194,33.316 0.268,30.885 C0.498,29.479 -0.192,28.594 0.980,27.987 ZM1.848,29.570 C1.752,33.027 1.655,36.484 1.559,39.940 C2.850,39.977 4.141,40.014 5.431,40.051 C5.528,36.595 5.624,33.138 5.721,29.682 C4.430,29.644 3.139,29.607 1.848,29.570 ZM10.906,30.529 C10.683,30.552 10.461,30.574 10.238,30.596 C9.867,30.677 9.496,30.759 9.126,30.841 C8.418,31.063 7.854,31.473 7.234,31.733 C7.175,34.008 7.115,36.282 7.056,38.557 C7.701,38.239 8.243,37.952 9.103,37.799 C10.097,37.623 11.292,38.151 12.019,38.379 C13.903,38.899 15.787,39.420 17.671,39.940 C18.798,40.279 20.368,40.675 21.855,40.341 C23.586,39.953 24.588,39.095 25.861,38.289 C28.917,36.320 31.974,34.350 35.030,32.380 C35.022,32.365 35.015,32.351 35.008,32.335 C34.780,32.230 34.582,32.057 34.318,31.978 C33.223,31.653 32.368,32.396 31.647,32.715 C30.230,33.376 28.813,34.038 27.396,34.699 C27.502,35.221 27.511,35.895 27.174,36.149 C26.849,36.394 25.946,36.342 25.394,36.282 C23.769,36.231 22.144,36.179 20.520,36.127 C19.473,35.957 17.970,36.457 17.760,35.457 C17.565,34.526 18.657,34.408 19.496,34.543 C21.603,34.603 23.710,34.662 25.816,34.722 C25.816,34.714 25.816,34.707 25.816,34.699 C25.463,33.782 24.991,33.059 24.081,32.715 C23.599,32.532 23.101,32.613 22.456,32.514 C20.791,32.258 18.877,32.629 17.271,32.313 C15.998,32.062 15.180,31.508 14.155,31.087 C13.227,30.705 12.222,30.536 10.906,30.529 Z"/>
</svg>