<svg 
 xmlns="http://www.w3.org/2000/svg"
 xmlns:xlink="http://www.w3.org/1999/xlink"
 width="40px" height="40px">
<path fill-rule="evenodd"  fill="rgb(42, 42, 42)"
 d="M37.556,17.638 C37.556,23.016 37.556,28.395 37.556,33.773 C37.556,35.048 37.556,36.323 37.556,37.598 C37.556,38.203 37.669,38.918 37.513,39.415 C37.445,39.632 37.291,39.767 37.168,39.928 C28.558,39.928 19.946,39.928 11.336,39.928 C9.173,39.935 7.009,39.942 4.845,39.949 C4.263,40.036 3.226,40.035 2.991,39.692 C2.744,39.333 2.883,38.509 2.883,37.983 C2.883,36.580 2.883,35.176 2.883,33.773 C2.883,28.395 2.883,23.016 2.883,17.638 C2.087,17.650 0.594,17.886 0.188,17.382 C-0.126,16.991 0.058,15.872 0.058,15.266 C0.058,13.592 0.058,11.917 0.058,10.244 C0.058,9.614 -0.126,8.676 0.188,8.256 C0.540,7.786 3.034,7.992 3.875,8.000 C3.666,7.584 3.433,7.176 3.314,6.675 C3.078,5.677 3.623,4.682 3.897,4.025 C4.331,2.980 4.623,1.924 5.277,1.118 C6.199,-0.018 7.925,-0.174 9.481,0.434 C10.432,0.807 11.348,1.288 12.198,1.781 C13.168,2.222 14.139,2.664 15.109,3.105 C15.749,3.419 16.389,3.732 17.028,4.046 C17.253,4.058 17.829,3.684 18.171,3.618 C18.635,3.530 19.273,3.541 19.745,3.618 C20.076,3.611 20.407,3.604 20.737,3.597 C21.782,3.425 22.814,3.697 23.368,4.046 C25.172,3.206 26.976,2.365 28.780,1.524 C29.930,0.944 30.973,0.272 32.467,0.028 C33.255,-0.100 34.007,0.246 34.451,0.520 C35.647,1.258 35.992,2.658 36.543,4.046 C36.744,4.554 37.005,5.036 37.125,5.628 C37.313,6.556 36.890,7.458 36.564,8.000 C37.649,7.990 39.055,7.795 39.971,8.107 C39.971,10.443 39.971,12.780 39.971,15.116 C39.971,15.493 40.065,17.395 39.928,17.553 C39.375,17.842 38.263,17.646 37.556,17.638 ZM7.476,1.460 C7.268,1.539 7.059,1.617 6.851,1.695 C6.281,1.927 5.987,2.394 5.772,2.977 C5.425,3.924 4.385,5.804 4.888,7.017 C5.366,8.167 6.879,8.283 8.188,8.619 C10.789,9.339 13.392,10.058 15.993,10.778 C15.993,9.852 15.993,8.926 15.993,8.000 C15.411,7.672 14.829,7.345 14.247,7.017 C12.840,6.200 11.174,5.633 9.395,5.221 C8.752,5.072 7.748,5.147 7.325,5.435 C7.063,5.614 6.954,5.969 6.614,6.076 C6.116,6.233 5.573,5.810 5.686,5.285 C5.910,4.248 7.808,3.500 9.244,3.790 C10.941,4.131 12.403,4.629 13.816,5.243 C14.541,5.621 15.267,5.998 15.993,6.375 C15.988,5.904 16.135,5.488 16.144,5.179 C14.225,4.281 12.306,3.383 10.387,2.486 C9.474,2.089 8.784,1.453 7.476,1.460 ZM32.360,1.460 C30.441,2.343 28.521,3.227 26.602,4.110 C25.826,4.481 25.050,4.851 24.273,5.221 C24.448,5.523 24.321,5.989 24.468,6.354 C26.582,5.383 28.475,4.305 31.130,3.790 C32.548,3.514 34.470,4.235 34.688,5.264 C34.802,5.801 34.270,6.237 33.761,6.076 C33.421,5.969 33.312,5.614 33.049,5.435 C32.652,5.165 31.722,5.072 31.087,5.200 C29.147,5.593 27.420,6.283 25.934,7.145 C25.463,7.418 24.813,7.618 24.446,8.000 C24.446,8.926 24.446,9.852 24.446,10.778 C26.990,10.073 29.535,9.368 32.079,8.662 C33.185,8.332 34.621,8.269 35.249,7.465 C35.943,6.577 35.613,5.497 35.227,4.559 C34.617,3.074 34.500,1.439 32.360,1.460 ZM20.435,4.965 C20.191,4.972 19.946,4.979 19.702,4.986 C18.872,4.989 17.945,4.977 17.589,5.457 C17.292,5.857 17.416,6.677 17.417,7.316 C17.417,8.334 17.417,9.353 17.417,10.372 C17.415,10.737 17.337,11.202 17.460,11.504 C17.568,11.772 17.863,11.991 18.150,12.081 C18.937,12.329 20.017,12.167 20.953,12.167 C21.439,12.167 22.007,12.259 22.397,12.103 C22.631,12.009 22.887,11.738 22.980,11.504 C23.128,11.130 23.023,10.553 23.023,10.094 C23.023,9.068 23.023,8.042 23.023,7.017 C23.023,6.490 23.093,5.803 22.872,5.478 C22.516,4.953 21.288,4.985 20.435,4.965 ZM1.482,9.410 C1.482,11.682 1.482,13.955 1.482,16.228 C3.659,16.228 5.837,16.228 8.015,16.228 C8.202,15.843 8.389,15.458 8.576,15.073 C9.256,13.551 10.183,12.257 10.948,10.863 C9.230,10.379 7.512,9.894 5.794,9.410 C4.357,9.410 2.919,9.410 1.482,9.410 ZM38.958,16.228 C38.958,13.955 38.958,11.682 38.958,9.410 C37.520,9.410 36.083,9.410 34.645,9.410 C32.927,9.894 31.209,10.379 29.492,10.863 C29.794,11.333 30.095,11.804 30.397,12.274 C30.956,13.159 31.450,14.134 31.885,15.116 C32.065,15.486 32.245,15.857 32.424,16.228 C34.602,16.228 36.780,16.228 38.958,16.228 ZM12.371,11.248 C11.731,12.295 11.091,13.343 10.452,14.390 C9.204,16.467 8.336,18.894 7.541,21.399 C7.120,22.722 6.567,24.046 6.419,25.609 C7.260,24.990 8.101,24.369 8.942,23.750 C9.176,23.570 9.641,23.309 10.020,23.536 C10.299,23.703 10.370,24.069 10.538,24.348 C11.020,25.103 11.501,25.858 11.983,26.614 C11.999,25.305 12.650,23.965 12.996,22.874 C13.730,20.561 14.607,18.385 15.756,16.462 C16.410,15.459 17.064,14.454 17.718,13.449 C17.119,13.346 16.500,12.820 16.317,12.295 C15.002,11.946 13.686,11.597 12.371,11.248 ZM27.961,11.248 C26.681,11.597 25.402,11.946 24.123,12.295 C23.934,12.830 23.324,13.331 22.721,13.449 C23.421,14.593 24.205,15.671 24.899,16.847 C26.568,19.679 27.615,22.994 28.457,26.635 C28.464,26.621 28.471,26.607 28.478,26.593 C29.019,26.156 29.514,25.024 29.880,24.391 C30.057,24.085 30.118,23.715 30.419,23.536 C30.853,23.278 31.271,23.627 31.519,23.814 C32.335,24.434 33.201,25.013 34.020,25.609 C33.984,24.267 33.423,23.066 33.071,21.955 C32.329,19.616 31.597,17.237 30.440,15.266 C29.909,14.340 29.377,13.414 28.845,12.487 C28.579,12.074 28.313,11.661 28.047,11.248 C28.018,11.248 27.989,11.248 27.961,11.248 ZM19.400,13.556 C18.836,14.464 18.176,15.313 17.589,16.228 C19.350,16.228 21.111,16.228 22.872,16.228 C22.384,15.236 21.627,14.453 21.039,13.556 C20.493,13.556 19.946,13.556 19.400,13.556 ZM4.306,17.638 C4.306,24.618 4.306,31.601 4.306,38.581 C8.338,38.581 12.371,38.581 16.403,38.581 C16.389,31.822 16.374,25.060 16.360,18.300 C16.360,18.315 16.360,18.329 16.360,18.344 C15.934,18.794 15.754,19.673 15.497,20.267 C14.712,22.080 13.991,24.064 13.514,26.165 C13.325,26.997 13.302,29.360 12.241,29.114 C11.787,29.009 11.615,28.504 11.379,28.174 C10.940,27.554 10.502,26.934 10.064,26.314 C9.841,25.937 9.618,25.559 9.395,25.182 C8.464,25.542 7.312,26.699 6.527,27.319 C6.227,27.556 5.923,28.244 5.298,28.109 C4.374,27.911 4.800,26.128 4.996,25.416 C5.447,23.786 5.812,22.138 6.312,20.566 C6.664,19.590 7.016,18.614 7.368,17.638 C6.348,17.638 5.327,17.638 4.306,17.638 ZM17.826,17.638 C17.826,24.618 17.826,31.601 17.826,38.581 C19.422,38.581 21.018,38.581 22.613,38.581 C22.613,31.601 22.613,24.618 22.613,17.638 C21.018,17.638 19.422,17.638 17.826,17.638 ZM24.036,38.581 C28.068,38.581 32.101,38.581 36.133,38.581 C36.133,31.601 36.133,24.618 36.133,17.638 C35.113,17.646 34.092,17.652 33.071,17.659 C34.035,20.056 34.755,22.691 35.443,25.416 C35.622,26.128 36.090,27.946 35.120,28.109 C34.499,28.215 34.222,27.562 33.912,27.319 C33.265,26.834 32.618,26.350 31.971,25.865 C31.661,25.646 31.421,25.362 31.066,25.182 C31.001,25.209 31.040,25.181 31.001,25.225 C30.785,25.581 30.570,25.937 30.354,26.293 C29.916,26.927 29.477,27.561 29.039,28.196 C28.795,28.538 28.609,29.052 28.112,29.135 C27.190,29.290 27.126,27.171 26.969,26.421 C26.572,24.527 26.033,22.683 25.330,21.036 C24.906,20.131 24.482,19.227 24.058,18.322 C24.051,18.322 24.043,18.322 24.036,18.322 C24.036,25.074 24.036,31.828 24.036,38.581 Z"/>
</svg>