<svg 
 xmlns="http://www.w3.org/2000/svg"
 xmlns:xlink="http://www.w3.org/1999/xlink"
 width="38px" height="40px">
<path fill-rule="evenodd"  fill="rgb(42, 42, 42)"
 d="M19.718,4.647 C19.718,5.032 19.718,5.417 19.718,5.801 C20.928,5.788 22.094,6.306 22.899,6.785 C25.468,8.316 26.775,10.182 27.272,13.841 C27.326,14.240 27.137,14.666 26.916,14.803 C26.819,14.832 26.721,14.861 26.623,14.889 C26.623,17.826 26.623,20.762 26.623,23.699 C29.218,23.699 31.813,23.699 34.407,23.699 C35.083,23.699 37.138,23.558 37.525,23.763 C37.661,23.835 37.827,24.016 37.881,24.169 C38.026,24.580 38.025,26.375 37.839,26.713 C37.644,27.069 37.182,27.087 36.625,27.077 C36.625,30.227 36.625,33.378 36.625,36.528 C37.198,36.518 37.689,36.538 37.860,36.934 C38.032,37.333 38.040,39.002 37.881,39.436 C37.814,39.617 37.593,39.836 37.400,39.885 C28.556,39.892 19.710,39.899 10.867,39.906 C8.468,39.906 6.068,39.906 3.669,39.906 C2.780,39.906 1.259,40.147 0.531,39.864 C-0.021,39.649 -0.137,37.651 0.154,36.934 C0.316,36.535 0.800,36.519 1.368,36.528 C1.368,33.378 1.368,30.227 1.368,27.077 C0.857,27.087 0.384,27.074 0.196,26.757 C-0.002,26.423 -0.032,24.597 0.133,24.169 C0.197,24.002 0.372,23.812 0.531,23.742 C0.769,23.635 1.120,23.696 1.409,23.699 C2.176,23.699 2.944,23.699 3.711,23.699 C6.271,23.699 8.831,23.699 11.390,23.699 C11.390,20.762 11.390,17.826 11.390,14.889 C10.926,14.861 10.644,14.336 10.742,13.755 C10.916,12.715 11.067,11.659 11.432,10.805 C12.419,8.499 15.080,5.791 18.295,5.801 C18.302,4.027 18.309,2.252 18.316,0.477 C18.519,-0.301 19.506,-0.028 19.718,0.627 C20.644,0.618 23.649,0.444 23.966,0.884 C24.267,1.302 24.112,2.282 24.113,2.936 C24.113,3.394 24.213,3.979 24.029,4.304 C23.715,4.860 20.700,4.656 19.718,4.647 ZM19.718,2.102 C19.718,2.466 19.718,2.829 19.718,3.193 C20.702,3.193 21.685,3.193 22.669,3.193 C22.669,2.829 22.669,2.466 22.669,2.102 C21.685,2.102 20.702,2.102 19.718,2.102 ZM18.693,7.191 C18.477,7.213 18.261,7.234 18.044,7.255 C17.544,7.358 17.063,7.463 16.622,7.640 C14.425,8.523 12.474,10.587 12.227,13.435 C16.747,13.435 21.267,13.435 25.786,13.435 C25.786,13.414 25.786,13.392 25.786,13.371 C25.652,12.822 25.650,12.336 25.473,11.874 C24.448,9.213 22.328,7.178 18.693,7.191 ZM12.813,14.910 C12.813,17.839 12.813,20.769 12.813,23.699 C16.942,23.699 21.072,23.699 25.201,23.699 C25.201,20.769 25.201,17.839 25.201,14.910 C21.072,14.910 16.942,14.910 12.813,14.910 ZM15.136,15.360 C16.103,15.439 15.952,16.284 15.952,17.284 C15.959,18.731 15.966,20.177 15.973,21.624 C16.093,22.402 15.903,23.132 15.345,23.250 C14.345,23.459 14.529,22.079 14.529,21.282 C14.529,20.042 14.529,18.802 14.529,17.562 C14.529,17.010 14.413,16.303 14.592,15.872 C14.699,15.616 14.922,15.509 15.136,15.360 ZM18.902,15.360 C19.857,15.476 19.718,16.266 19.718,17.326 C19.725,18.802 19.732,20.277 19.739,21.753 C19.850,22.482 19.635,23.139 19.112,23.250 C18.359,23.408 18.168,22.495 18.275,21.795 C18.282,20.377 18.289,18.959 18.295,17.540 C18.295,17.021 18.181,16.349 18.337,15.915 C18.438,15.635 18.673,15.512 18.902,15.360 ZM22.669,15.360 C22.963,15.395 23.210,15.457 23.338,15.659 C23.565,16.016 23.485,16.778 23.485,17.348 C23.485,18.645 23.485,19.943 23.485,21.240 C23.485,22.116 23.632,23.090 22.878,23.250 C22.077,23.419 21.926,22.396 22.041,21.646 C22.048,20.256 22.055,18.866 22.062,17.476 C22.062,16.948 21.945,16.202 22.146,15.808 C22.257,15.591 22.468,15.490 22.669,15.360 ZM1.535,25.153 C1.535,25.310 1.535,25.466 1.535,25.623 C13.175,25.623 24.818,25.623 36.458,25.623 C36.458,25.466 36.458,25.310 36.458,25.153 C24.818,25.153 13.175,25.153 1.535,25.153 ZM2.811,27.077 C2.811,30.227 2.811,33.378 2.811,36.528 C13.607,36.528 24.407,36.528 35.203,36.528 C35.203,33.378 35.203,30.227 35.203,27.077 C24.407,27.077 13.607,27.077 2.811,27.077 ZM3.816,27.547 C4.789,27.539 4.674,28.415 4.674,29.386 C4.674,30.954 4.674,32.522 4.674,34.090 C4.674,35.006 4.801,35.927 4.004,36.079 C3.054,36.260 3.230,34.808 3.230,33.983 C3.230,32.622 3.230,31.261 3.230,29.899 C3.230,29.304 3.102,28.519 3.293,28.061 C3.398,27.808 3.624,27.712 3.816,27.547 ZM7.582,27.547 C8.424,27.541 8.585,28.381 8.440,29.322 C8.440,30.904 8.440,32.487 8.440,34.069 C8.521,35.000 8.495,35.941 7.770,36.079 C6.814,36.262 6.996,34.809 6.996,33.983 C6.996,32.622 6.996,31.261 6.996,29.899 C6.996,29.334 6.859,28.561 7.038,28.103 C7.147,27.826 7.371,27.718 7.582,27.547 ZM11.349,27.547 C11.723,27.543 12.001,27.662 12.123,27.911 C12.302,28.279 12.186,28.978 12.185,29.450 C12.185,30.334 12.185,31.218 12.185,32.102 C12.210,32.394 12.017,34.974 11.985,35.230 C11.871,35.802 11.903,35.924 11.147,35.938 C10.769,35.822 10.842,35.635 10.714,35.266 C10.763,30.905 10.763,29.963 10.763,29.023 C10.757,28.672 10.689,28.200 10.825,27.932 C10.933,27.721 11.166,27.682 11.349,27.547 ZM15.115,27.547 C16.118,27.541 15.952,28.498 15.952,29.450 C15.959,31.082 15.966,32.715 15.973,34.347 C16.103,35.199 15.910,35.963 15.282,36.079 C14.328,36.255 14.529,34.771 14.529,33.983 C14.529,32.629 14.529,31.275 14.529,29.921 C14.529,29.349 14.391,28.571 14.571,28.103 C14.680,27.821 14.898,27.718 15.115,27.547 ZM18.860,27.547 C19.862,27.537 19.718,28.457 19.718,29.450 C19.725,31.118 19.732,32.786 19.739,34.454 C19.865,35.266 19.645,35.968 19.049,36.079 C18.311,36.216 18.163,35.159 18.275,34.432 C18.282,32.900 18.289,31.367 18.295,29.835 C18.295,29.262 18.170,28.492 18.358,28.039 C18.462,27.791 18.686,27.719 18.860,27.547 ZM22.627,27.547 C23.633,27.537 23.485,28.474 23.485,29.472 C23.492,31.168 23.499,32.865 23.506,34.561 C23.624,35.328 23.378,35.974 22.815,36.079 C22.036,36.224 21.924,35.068 22.041,34.304 C22.048,32.808 22.055,31.310 22.062,29.814 C22.062,29.284 21.929,28.524 22.104,28.082 C22.210,27.812 22.427,27.719 22.627,27.547 ZM26.393,27.547 C27.367,27.538 27.251,28.416 27.251,29.386 C27.251,30.954 27.251,32.522 27.251,34.090 C27.251,35.004 27.383,35.929 26.582,36.079 C25.752,36.235 25.684,34.916 25.807,34.112 C25.814,32.658 25.821,31.203 25.828,29.750 C25.824,29.214 25.699,28.517 25.870,28.082 C25.977,27.809 26.185,27.715 26.393,27.547 ZM30.160,27.547 C31.130,27.539 31.018,28.419 31.018,29.386 C31.018,30.954 31.018,32.522 31.018,34.090 C31.018,35.030 31.128,35.927 30.348,36.079 C29.393,36.265 29.574,34.807 29.574,33.983 C29.574,32.644 29.574,31.303 29.574,29.964 C29.574,29.364 29.451,28.609 29.616,28.125 C29.716,27.827 29.941,27.724 30.160,27.547 ZM33.926,27.547 C34.279,27.544 34.546,27.652 34.679,27.868 C34.884,28.198 34.770,28.967 34.763,29.429 C34.763,30.298 34.763,31.169 34.763,32.038 C34.806,32.332 34.706,35.065 34.713,35.322 C34.665,35.845 34.495,35.843 34.036,35.922 C33.509,35.828 33.441,35.824 33.317,35.347 C33.317,34.291 33.195,28.222 33.424,27.890 C33.546,27.712 33.754,27.669 33.926,27.547 ZM1.535,37.982 C1.535,38.139 1.535,38.296 1.535,38.452 C13.175,38.452 24.818,38.452 36.458,38.452 C36.458,38.296 36.458,38.139 36.458,37.982 C24.818,37.982 13.175,37.982 1.535,37.982 Z"/>
</svg>