<svg 
 xmlns="http://www.w3.org/2000/svg"
 xmlns:xlink="http://www.w3.org/1999/xlink"
 width="41px" height="40px">
<path fill-rule="evenodd"  fill="rgb(42, 42, 42)"
 d="M5.902,-0.000 C9.987,-0.056 13.318,4.052 11.626,8.215 C10.731,10.416 9.074,11.538 6.395,11.991 C5.465,12.149 4.362,11.787 3.694,11.498 C1.401,10.503 -0.941,7.430 0.393,3.990 C1.074,2.234 2.285,1.026 4.037,0.343 C4.466,0.243 4.895,0.143 5.324,0.043 C5.516,0.028 5.709,0.014 5.902,-0.000 ZM33.833,-0.000 C37.815,-0.055 41.223,3.934 39.578,8.130 C38.722,10.313 37.022,11.626 34.326,11.991 C33.397,12.116 32.346,11.812 31.668,11.519 C29.196,10.451 26.988,7.346 28.367,3.839 C29.000,2.230 30.230,1.020 31.840,0.386 C32.271,0.216 32.751,0.135 33.254,0.043 C33.447,0.028 33.640,0.014 33.833,-0.000 ZM5.645,1.351 C5.259,1.502 4.823,1.470 4.466,1.609 C3.098,2.141 2.046,3.168 1.594,4.612 C0.730,7.369 2.490,9.528 4.295,10.296 C4.847,10.531 5.715,10.785 6.545,10.639 C8.364,10.321 9.650,9.394 10.297,7.915 C11.528,5.099 9.812,2.491 7.746,1.652 C7.153,1.411 6.488,1.347 5.645,1.351 ZM33.554,1.351 C33.128,1.519 32.659,1.492 32.268,1.652 C31.035,2.153 30.111,3.097 29.610,4.333 C28.488,7.105 30.364,9.538 32.268,10.318 C32.811,10.540 33.650,10.778 34.455,10.639 C36.298,10.324 37.574,9.387 38.227,7.894 C39.445,5.109 37.726,2.497 35.719,1.673 C35.110,1.422 34.431,1.347 33.554,1.351 ZM6.717,2.682 C7.881,2.665 8.710,3.528 8.710,4.676 C8.267,4.676 7.824,4.676 7.381,4.676 C7.356,4.292 7.117,4.019 6.717,4.011 C6.717,4.455 6.717,4.898 6.717,5.341 C9.323,5.301 9.331,9.330 6.717,9.331 C6.717,9.553 6.717,9.774 6.717,9.996 C6.274,9.996 5.831,9.996 5.388,9.996 C5.388,9.774 5.388,9.553 5.388,9.331 C4.240,9.337 3.378,8.497 3.394,7.336 C3.837,7.336 4.280,7.336 4.723,7.336 C4.735,7.780 5.003,7.901 5.366,8.001 C5.374,7.557 5.381,7.115 5.388,6.671 C4.083,6.676 2.936,5.322 3.523,3.904 C3.881,3.040 4.408,2.912 5.388,2.660 C5.388,2.445 5.388,2.231 5.388,2.016 C5.831,2.016 6.274,2.016 6.717,2.016 C6.717,2.238 6.717,2.460 6.717,2.682 ZM34.626,2.016 C34.633,2.238 34.640,2.460 34.648,2.682 C35.795,2.667 36.636,3.523 36.620,4.676 C36.177,4.676 35.734,4.676 35.291,4.676 C35.285,4.279 35.027,4.012 34.626,4.011 C34.633,4.455 34.640,4.898 34.648,5.341 C37.242,5.301 37.247,9.343 34.626,9.331 C34.626,9.553 34.626,9.774 34.626,9.996 C34.183,9.996 33.740,9.996 33.297,9.996 C33.297,9.774 33.297,9.553 33.297,9.331 C32.154,9.332 31.304,8.479 31.304,7.336 C31.747,7.336 32.190,7.336 32.633,7.336 C32.683,7.752 32.901,7.929 33.297,8.001 C33.297,7.557 33.297,7.115 33.297,6.671 C30.691,6.675 30.684,2.648 33.297,2.682 C33.304,2.453 33.311,2.224 33.319,1.995 C33.754,2.002 34.190,2.009 34.626,2.016 ZM19.514,3.346 C22.697,3.299 24.554,4.783 25.495,6.971 C25.859,7.820 26.185,9.203 25.902,10.425 C25.774,10.973 25.625,11.484 25.409,11.948 C24.509,13.874 22.862,14.905 20.414,15.316 C19.411,15.485 18.399,15.134 17.756,14.865 C15.466,13.909 13.165,11.102 14.262,7.594 C14.816,5.824 16.041,4.490 17.671,3.797 C18.071,3.675 18.471,3.553 18.871,3.432 C19.085,3.403 19.300,3.375 19.514,3.346 ZM5.388,4.011 C4.478,4.011 4.552,5.119 5.366,5.341 C5.374,4.898 5.381,4.455 5.388,4.011 ZM33.297,4.011 C32.440,4.014 32.409,5.085 33.297,5.341 C33.297,4.898 33.297,4.455 33.297,4.011 ZM19.643,4.676 C19.154,4.865 18.641,4.839 18.206,5.019 C16.986,5.527 16.097,6.516 15.613,7.765 C14.540,10.530 16.488,12.931 18.356,13.664 C18.894,13.875 19.712,14.100 20.500,13.964 C22.312,13.654 23.610,12.729 24.251,11.262 C25.785,7.752 23.122,4.658 19.643,4.676 ZM19.343,5.341 C19.785,5.341 20.229,5.341 20.672,5.341 C20.679,5.563 20.686,5.785 20.693,6.006 C21.837,5.992 22.670,6.863 22.665,8.001 C22.222,8.001 21.779,8.001 21.336,8.001 C21.321,7.613 21.070,7.343 20.672,7.336 C20.672,7.779 20.672,8.223 20.672,8.666 C23.284,8.631 23.291,12.655 20.672,12.656 C20.672,12.878 20.672,13.099 20.672,13.321 C20.229,13.321 19.785,13.321 19.343,13.321 C19.343,13.099 19.343,12.878 19.343,12.656 C18.195,12.662 17.344,11.811 17.349,10.661 C17.792,10.661 18.235,10.661 18.678,10.661 C18.695,11.059 18.954,11.298 19.343,11.326 C19.343,10.883 19.343,10.439 19.343,9.996 C18.084,9.990 16.905,8.697 17.456,7.293 C17.795,6.430 18.361,6.235 19.343,5.985 C19.343,5.770 19.343,5.556 19.343,5.341 ZM6.717,6.671 C6.717,7.115 6.717,7.557 6.717,8.001 C6.724,8.001 6.731,8.001 6.738,8.001 C7.549,7.794 7.608,6.689 6.717,6.671 ZM34.626,6.671 C34.633,7.115 34.640,7.557 34.648,8.001 C35.468,7.792 35.536,6.684 34.626,6.671 ZM19.343,7.336 C18.475,7.345 18.465,8.566 19.343,8.666 C19.343,8.223 19.343,7.779 19.343,7.336 ZM20.672,9.996 C20.672,10.439 20.672,10.883 20.672,11.326 C21.514,11.275 21.538,10.006 20.672,9.996 ZM4.059,13.321 C4.502,13.321 4.945,13.321 5.388,13.321 C5.388,14.651 5.388,15.981 5.388,17.311 C4.945,17.311 4.502,17.311 4.059,17.311 C4.059,15.981 4.059,14.651 4.059,13.321 ZM6.717,13.321 C7.160,13.321 7.603,13.321 8.046,13.321 C8.046,13.764 8.046,14.208 8.046,14.651 C7.603,14.651 7.160,14.651 6.717,14.651 C6.717,14.208 6.717,13.764 6.717,13.321 ZM31.968,13.321 C32.411,13.321 32.854,13.321 33.297,13.321 C33.297,13.764 33.297,14.208 33.297,14.651 C32.854,14.651 32.411,14.651 31.968,14.651 C31.968,14.208 31.968,13.764 31.968,13.321 ZM34.626,13.321 C35.069,13.321 35.512,13.321 35.955,13.321 C35.955,14.651 35.955,15.981 35.955,17.311 C35.512,17.311 35.069,17.311 34.626,17.311 C34.626,15.981 34.626,14.651 34.626,13.321 ZM19.343,15.981 C19.785,15.981 20.229,15.981 20.672,15.981 C20.672,16.424 20.672,16.867 20.672,17.311 C20.229,17.311 19.785,17.311 19.343,17.311 C19.343,16.867 19.343,16.424 19.343,15.981 ZM36.620,24.625 C38.387,24.609 39.528,25.786 39.878,27.200 C40.031,27.819 39.964,28.669 39.964,29.409 C39.964,30.197 40.000,31.015 39.814,31.619 C39.481,32.699 38.629,33.499 37.541,33.828 C37.234,33.871 36.927,33.914 36.620,33.957 C36.629,35.720 36.951,38.647 35.977,39.427 C34.954,40.245 31.812,39.942 29.953,39.942 C24.809,39.942 19.664,39.942 14.519,39.942 C12.455,39.942 10.389,39.942 8.325,39.942 C6.084,39.942 4.424,40.151 4.059,38.226 C4.059,33.335 4.059,28.443 4.059,23.553 C4.059,21.264 3.680,19.260 5.495,18.705 C6.100,18.521 7.070,18.641 7.789,18.641 C9.382,18.641 10.976,18.641 12.569,18.641 C17.813,18.641 23.059,18.641 28.303,18.641 C29.953,18.641 31.604,18.641 33.254,18.641 C34.354,18.641 35.289,18.602 35.891,19.070 C36.976,19.913 36.627,22.714 36.620,24.625 ZM35.291,33.936 C33.471,33.946 30.787,34.191 29.632,33.507 C28.889,33.067 28.321,32.351 28.067,31.426 C27.930,30.930 27.981,30.255 27.981,29.645 C27.981,27.682 27.984,26.769 28.860,25.677 C29.982,24.277 32.799,24.618 35.291,24.625 C35.291,23.546 35.291,22.466 35.291,21.386 C35.291,20.825 35.345,20.303 35.012,20.078 C34.703,19.869 33.911,19.971 33.426,19.971 C32.104,19.971 30.782,19.971 29.460,19.971 C24.438,19.971 19.414,19.971 14.391,19.971 C12.133,19.971 9.875,19.971 7.617,19.971 C6.751,19.971 5.558,19.770 5.388,20.485 C5.388,25.104 5.388,29.724 5.388,34.343 C5.388,35.587 5.388,36.831 5.388,38.076 C5.437,38.286 5.625,38.501 5.817,38.569 C13.225,38.576 20.637,38.583 28.045,38.590 C29.739,38.590 31.432,38.590 33.126,38.590 C33.721,38.590 34.728,38.720 35.076,38.440 C35.351,38.220 35.291,37.669 35.291,37.174 C35.291,36.095 35.291,35.015 35.291,33.936 ZM7.381,21.966 C7.824,21.966 8.267,21.966 8.710,21.966 C8.710,26.842 8.710,31.719 8.710,36.595 C8.267,36.595 7.824,36.595 7.381,36.595 C7.381,31.719 7.381,26.842 7.381,21.966 ZM31.175,25.955 C30.411,26.254 30.069,26.199 29.632,26.856 C29.070,27.703 29.161,31.088 29.717,31.833 C30.540,32.936 32.890,32.606 34.776,32.606 C36.244,32.606 37.523,32.711 38.163,31.898 C38.571,31.380 38.613,30.757 38.613,29.795 C38.613,28.438 38.728,27.380 38.120,26.620 C37.914,26.363 37.511,26.119 37.156,26.020 C36.638,25.875 35.867,25.955 35.248,25.955 C33.890,25.955 32.533,25.955 31.175,25.955 ZM32.440,27.285 C35.179,27.232 35.316,30.851 32.911,31.275 C31.411,31.540 30.223,29.933 30.768,28.551 C31.119,27.660 31.577,27.637 32.440,27.285 ZM32.547,28.616 C31.669,29.003 31.934,30.133 32.761,29.946 C33.510,29.776 33.444,28.594 32.547,28.616 Z"/>
</svg>