<svg 
 xmlns="http://www.w3.org/2000/svg"
 xmlns:xlink="http://www.w3.org/1999/xlink"
 width="37px" height="40px">
<path fill-rule="evenodd"  fill="rgb(42, 42, 42)"
 d="M4.114,38.553 C6.164,38.553 8.216,38.553 10.266,38.553 C10.266,26.168 10.266,13.779 10.266,1.394 C8.216,1.394 6.164,1.394 4.114,1.394 C4.114,2.562 4.114,3.732 4.114,4.900 C4.127,4.900 4.139,4.900 4.152,4.900 C4.369,4.970 4.587,5.041 4.804,5.112 C5.722,5.510 6.341,6.244 6.682,7.231 C6.852,7.722 7.000,8.577 6.548,8.869 C6.222,9.078 5.752,8.915 5.590,8.676 C5.437,8.450 5.505,8.028 5.417,7.732 C5.158,6.850 4.523,6.356 3.520,6.210 C2.541,6.067 1.681,6.973 1.469,7.635 C1.282,8.220 1.466,8.723 0.894,8.926 C0.747,8.978 0.514,8.975 0.376,8.907 C-0.143,8.650 -0.016,7.752 0.166,7.193 C0.571,5.937 1.476,5.318 2.734,4.900 C2.740,3.269 2.747,1.638 2.753,0.007 C11.064,0.014 19.378,0.020 27.689,0.026 C29.305,0.026 30.922,0.026 32.538,0.026 C33.340,0.026 34.361,-0.076 35.010,0.123 C35.625,0.311 36.152,0.708 36.486,1.182 C36.999,1.910 36.985,2.987 36.985,4.264 C36.985,5.972 36.985,7.681 36.985,9.388 C36.985,16.425 36.985,23.464 36.985,30.501 C36.985,32.222 36.985,33.943 36.985,35.664 C36.985,37.245 36.977,38.493 36.122,39.189 C35.753,39.490 35.341,39.755 34.800,39.883 C34.103,40.046 33.138,39.940 32.346,39.940 C30.743,39.940 29.139,39.940 27.535,39.940 C19.269,39.934 11.000,39.927 2.734,39.921 C2.734,38.752 2.734,37.584 2.734,36.415 C2.070,36.314 1.606,35.967 1.181,35.626 C-1.448,33.511 0.710,28.565 4.459,29.750 C5.595,30.109 6.320,30.931 6.701,32.061 C6.864,32.543 6.973,33.330 6.567,33.622 C6.449,33.707 6.233,33.762 6.050,33.718 C5.367,33.555 5.596,32.991 5.379,32.370 C5.112,31.605 4.262,30.771 3.098,31.002 C1.083,31.402 0.736,34.371 2.734,34.970 C2.724,34.449 2.639,33.625 2.868,33.314 C3.176,32.895 3.896,33.023 4.076,33.467 C4.224,33.836 4.114,34.559 4.114,35.009 C4.114,36.190 4.114,37.372 4.114,38.553 ZM11.646,1.413 C11.646,13.792 11.646,26.175 11.646,38.553 C17.313,38.553 22.981,38.553 28.647,38.553 C30.097,38.553 31.548,38.553 32.998,38.553 C33.762,38.554 34.584,38.618 35.030,38.303 C35.677,37.845 35.605,36.918 35.604,35.798 C35.604,33.911 35.604,32.022 35.604,30.135 C35.604,23.239 35.604,16.342 35.604,9.446 C35.604,7.713 35.604,5.978 35.604,4.245 C35.605,3.322 35.678,2.384 35.279,1.875 C34.810,1.280 34.342,1.553 33.439,1.413 C32.046,1.407 30.653,1.400 29.260,1.394 C23.390,1.400 17.517,1.407 11.646,1.413 ZM15.480,6.403 C17.613,6.403 19.748,6.403 21.881,6.403 C21.881,8.547 21.881,10.692 21.881,12.836 C19.748,12.836 17.613,12.836 15.480,12.836 C15.480,10.692 15.480,8.547 15.480,6.403 ZM25.197,6.403 C27.331,6.403 29.465,6.403 31.599,6.403 C31.599,8.547 31.599,10.692 31.599,12.836 C29.465,12.836 27.331,12.836 25.197,12.836 C25.197,10.692 25.197,8.547 25.197,6.403 ZM16.725,7.654 C16.725,8.964 16.725,10.275 16.725,11.584 C18.029,11.584 19.332,11.584 20.635,11.584 C20.635,10.275 20.635,8.964 20.635,7.654 C19.332,7.654 18.029,7.654 16.725,7.654 ZM26.443,7.654 C26.443,8.964 26.443,10.275 26.443,11.584 C27.746,11.584 29.050,11.584 30.353,11.584 C30.353,10.275 30.353,8.964 30.353,7.654 C29.050,7.654 27.746,7.654 26.443,7.654 ZM3.117,8.964 C4.977,8.938 5.994,9.781 6.567,11.045 C6.767,11.484 7.090,12.578 6.605,12.952 C6.258,13.221 5.732,13.064 5.551,12.741 C5.429,12.520 5.490,12.115 5.417,11.854 C5.205,11.090 4.319,10.153 3.175,10.352 C2.296,10.504 1.689,11.043 1.450,11.835 C1.358,12.136 1.424,12.591 1.258,12.817 C1.081,13.060 0.614,13.206 0.300,12.991 C-0.167,12.671 0.026,11.777 0.204,11.276 C0.574,10.233 1.291,9.523 2.312,9.138 C2.580,9.080 2.849,9.023 3.117,8.964 ZM3.194,13.087 C4.953,13.062 6.066,13.952 6.586,15.168 C6.792,15.648 7.078,16.763 6.567,17.113 C6.262,17.322 5.786,17.202 5.609,16.959 C5.432,16.717 5.498,16.239 5.398,15.919 C5.152,15.130 4.523,14.624 3.635,14.474 C2.534,14.288 1.671,15.227 1.450,15.958 C1.362,16.246 1.426,16.690 1.277,16.920 C1.084,17.220 0.564,17.323 0.242,17.075 C-0.169,16.757 0.041,15.844 0.204,15.399 C0.580,14.374 1.269,13.668 2.274,13.280 C2.580,13.216 2.887,13.151 3.194,13.087 ZM15.480,16.420 C17.613,16.420 19.748,16.420 21.881,16.420 C21.881,18.564 21.881,20.709 21.881,22.854 C19.748,22.854 17.613,22.854 15.480,22.854 C15.480,20.709 15.480,18.564 15.480,16.420 ZM25.197,16.420 C27.331,16.420 29.465,16.420 31.599,16.420 C31.599,18.564 31.599,20.709 31.599,22.854 C29.465,22.854 27.331,22.854 25.197,22.854 C25.197,20.709 25.197,18.564 25.197,16.420 ZM3.309,17.209 C5.042,17.190 6.049,18.148 6.586,19.348 C6.767,19.751 7.076,20.814 6.644,21.178 C6.336,21.437 5.798,21.369 5.590,21.062 C5.436,20.836 5.505,20.415 5.417,20.118 C5.203,19.393 4.363,18.434 3.309,18.596 C2.373,18.741 1.729,19.211 1.469,20.022 C1.363,20.352 1.424,20.850 1.239,21.100 C1.051,21.355 0.551,21.432 0.261,21.216 C-0.181,20.887 0.042,19.944 0.223,19.483 C0.624,18.458 1.332,17.701 2.408,17.363 C2.708,17.312 3.009,17.261 3.309,17.209 ZM16.725,17.671 C16.725,18.981 16.725,20.292 16.725,21.602 C18.029,21.602 19.332,21.602 20.635,21.602 C20.635,20.292 20.635,18.981 20.635,17.671 C19.332,17.671 18.029,17.671 16.725,17.671 ZM26.443,17.671 C26.443,18.981 26.443,20.292 26.443,21.602 C27.746,21.602 29.050,21.602 30.353,21.602 C30.353,20.292 30.353,18.981 30.353,17.671 C29.050,17.671 27.746,17.671 26.443,17.671 ZM3.098,21.351 C4.975,21.324 5.990,22.158 6.567,23.431 C6.764,23.865 7.094,24.971 6.605,25.338 C6.252,25.604 5.725,25.434 5.551,25.126 C5.428,24.907 5.494,24.500 5.417,24.241 C5.178,23.433 4.373,22.527 3.156,22.738 C2.287,22.889 1.687,23.438 1.450,24.221 C1.358,24.522 1.424,24.977 1.258,25.204 C1.082,25.445 0.589,25.586 0.281,25.358 C-0.164,25.029 0.030,24.154 0.204,23.663 C0.567,22.639 1.265,21.932 2.255,21.544 C2.536,21.480 2.817,21.416 3.098,21.351 ZM3.175,25.473 C4.993,25.447 6.060,26.338 6.586,27.612 C6.777,28.073 7.081,29.116 6.586,29.481 C6.300,29.692 5.818,29.612 5.628,29.365 C5.439,29.119 5.501,28.643 5.398,28.305 C5.160,27.524 4.527,27.008 3.654,26.860 C2.535,26.671 1.674,27.602 1.450,28.344 C1.368,28.612 1.431,29.044 1.296,29.268 C1.097,29.602 0.566,29.721 0.223,29.442 C-0.173,29.119 0.051,28.216 0.204,27.785 C0.560,26.785 1.250,26.067 2.216,25.685 C2.506,25.572 2.859,25.598 3.175,25.473 ZM15.480,26.436 C17.613,26.436 19.748,26.436 21.881,26.436 C21.881,28.581 21.881,30.726 21.881,32.871 C19.748,32.871 17.613,32.871 15.480,32.871 C15.480,30.726 15.480,28.581 15.480,26.436 ZM25.197,26.436 C27.331,26.436 29.465,26.436 31.599,26.436 C31.599,28.581 31.599,30.726 31.599,32.871 C29.465,32.871 27.331,32.871 25.197,32.871 C25.197,30.726 25.197,28.581 25.197,26.436 ZM16.725,27.689 C16.725,28.999 16.725,30.308 16.725,31.619 C18.029,31.619 19.332,31.619 20.635,31.619 C20.635,30.308 20.635,28.999 20.635,27.689 C19.332,27.689 18.029,27.689 16.725,27.689 ZM26.443,27.689 C26.443,28.999 26.443,30.308 26.443,31.619 C27.746,31.619 29.050,31.619 30.353,31.619 C30.353,30.308 30.353,28.999 30.353,27.689 C29.050,27.689 27.746,27.689 26.443,27.689 Z"/>
</svg>