<svg 
 xmlns="http://www.w3.org/2000/svg"
 xmlns:xlink="http://www.w3.org/1999/xlink"
 width="40px" height="40px">
<path fill-rule="evenodd"  fill="rgb(42, 42, 42)"
 d="M35.139,5.432 C35.654,5.447 36.168,5.462 36.682,5.477 C36.682,6.649 36.682,7.823 36.682,8.995 C36.720,9.437 36.774,10.012 36.636,10.383 C34.947,10.376 33.258,10.368 31.569,10.360 C31.569,9.851 31.569,9.342 31.569,8.833 C32.375,8.833 33.182,8.833 33.988,8.833 C33.972,8.818 33.957,8.802 33.942,8.787 C33.814,8.430 33.491,8.202 33.274,7.931 C32.365,6.794 31.084,5.909 29.865,5.084 C27.710,3.625 25.368,2.695 22.426,1.960 C21.151,1.641 19.774,1.462 17.801,1.566 C16.555,1.647 15.476,1.765 14.411,2.098 C12.128,2.813 10.087,3.547 8.284,4.690 C7.517,5.284 6.749,5.879 5.981,6.473 C5.392,6.409 5.166,6.121 4.898,5.755 C4.926,5.609 4.949,5.377 5.014,5.269 C5.666,4.752 6.319,4.235 6.971,3.719 C8.489,2.644 10.320,1.762 12.269,1.150 C13.632,0.721 15.046,0.430 16.576,0.154 C18.148,-0.128 20.087,0.019 21.550,0.270 C21.965,0.317 22.380,0.363 22.794,0.409 C24.555,0.837 26.212,1.316 27.723,1.983 C29.788,2.894 31.483,4.318 33.159,5.639 C33.919,6.239 34.364,7.182 35.139,7.768 C35.139,6.989 35.139,6.210 35.139,5.432 ZM7.547,23.436 C7.514,21.807 8.175,21.517 9.712,21.469 C10.233,21.453 11.186,21.279 11.416,21.677 C11.600,21.871 11.524,22.583 11.463,22.812 C10.907,23.233 9.953,22.961 9.136,23.066 C9.136,23.189 9.136,23.313 9.136,23.436 C10.102,23.409 11.343,23.129 11.532,24.038 C11.593,24.332 11.530,24.719 11.416,24.918 C10.785,25.089 9.924,25.033 9.113,25.033 C7.793,25.033 6.472,25.033 5.152,25.033 C5.165,25.949 5.309,27.246 4.783,27.694 C4.044,28.325 1.713,28.219 1.236,27.440 C0.743,26.634 1.052,25.021 1.052,23.899 C1.052,22.349 1.052,20.797 1.052,19.248 C1.052,18.480 0.914,17.672 1.075,16.979 C1.266,16.163 1.830,15.731 2.181,15.082 C2.181,15.074 2.181,15.066 2.181,15.058 C0.661,15.088 -0.587,13.760 0.292,12.327 C1.052,11.088 2.795,11.406 3.770,12.166 C3.793,12.150 3.816,12.135 3.839,12.119 C3.969,11.765 4.100,11.410 4.230,11.054 C4.621,10.054 4.852,8.902 5.682,8.347 C6.617,7.721 8.549,8.000 9.965,8.000 C12.944,8.000 15.923,8.000 18.902,8.000 C20.362,8.000 22.119,7.813 23.071,8.393 C23.919,8.910 24.309,10.113 24.683,11.101 C24.855,11.555 24.839,12.195 24.476,12.420 C24.241,12.565 23.691,12.591 23.462,12.420 C23.118,12.163 22.997,11.423 22.817,11.008 C22.605,10.520 22.304,10.054 22.034,9.620 C18.288,9.612 14.541,9.604 10.795,9.597 C9.797,9.597 8.798,9.597 7.800,9.597 C7.405,9.596 6.822,9.491 6.534,9.666 C6.212,9.862 6.195,10.328 6.050,10.707 C5.705,11.633 5.359,12.559 5.014,13.485 C7.601,13.477 10.188,13.469 12.775,13.462 C13.413,13.462 15.176,13.318 15.447,13.670 C15.538,13.808 15.540,14.041 15.539,14.272 C15.535,15.149 14.553,15.251 13.604,15.105 C12.845,15.089 12.084,15.074 11.324,15.058 C9.804,15.066 8.284,15.074 6.764,15.082 C5.904,15.089 5.044,15.097 4.184,15.105 C3.924,15.247 3.784,15.612 3.609,15.845 C3.312,16.242 2.791,16.594 2.664,17.142 C2.664,18.368 2.664,19.595 2.664,20.821 C2.659,21.525 2.399,22.707 2.779,23.205 C2.941,23.416 3.497,23.545 3.908,23.482 C5.121,23.467 6.334,23.452 7.547,23.436 ZM1.789,13.069 C1.751,13.114 1.712,13.161 1.674,13.207 C1.689,13.292 1.705,13.377 1.720,13.462 C1.967,13.468 2.332,13.496 2.503,13.416 C2.503,13.323 2.503,13.230 2.503,13.138 C2.265,13.114 2.027,13.092 1.789,13.069 ZM34.886,30.541 C28.752,30.541 22.617,30.541 16.483,30.541 C16.497,31.474 16.654,32.798 16.092,33.225 C15.313,33.819 13.044,33.726 12.568,32.948 C12.064,32.124 12.406,30.525 12.407,29.407 C12.407,27.841 12.407,26.275 12.407,24.709 C12.384,24.000 12.257,23.076 12.430,22.395 C12.625,21.626 13.186,21.223 13.512,20.590 C13.512,20.582 13.512,20.574 13.512,20.566 C11.996,20.595 10.750,19.261 11.624,17.836 C12.378,16.604 14.133,16.919 15.102,17.674 C15.125,17.658 15.148,17.643 15.171,17.628 C15.316,17.234 15.462,16.840 15.608,16.447 C15.992,15.468 16.217,14.345 17.059,13.832 C17.985,13.267 19.895,13.508 21.274,13.508 C24.283,13.508 27.293,13.508 30.303,13.508 C31.655,13.507 33.390,13.227 34.333,13.809 C35.438,14.491 35.767,16.393 36.268,17.674 C36.299,17.643 36.329,17.612 36.360,17.581 C36.606,17.411 36.851,17.242 37.097,17.072 C38.148,16.643 39.372,17.254 39.769,17.882 C40.387,18.862 39.671,20.161 38.893,20.474 C38.548,20.513 38.202,20.551 37.857,20.590 C38.226,21.177 38.789,21.712 38.963,22.441 C39.130,23.142 38.986,23.975 38.986,24.755 C38.986,26.337 38.986,27.918 38.986,29.500 C38.986,30.607 39.338,32.238 38.778,32.995 C38.233,33.730 35.762,33.903 35.162,33.087 C34.760,32.539 34.875,31.434 34.886,30.541 ZM25.420,15.082 C22.963,15.089 20.506,15.097 18.050,15.105 C17.632,15.227 17.581,15.702 17.428,16.100 C17.067,17.064 16.706,18.029 16.345,18.993 C22.579,18.993 28.814,18.993 35.047,18.993 C35.047,18.985 35.047,18.977 35.047,18.970 C34.725,18.129 34.402,17.288 34.080,16.447 C33.942,16.053 33.929,15.510 33.642,15.267 C33.247,14.931 32.074,15.082 31.385,15.082 C29.397,15.082 27.408,15.082 25.420,15.082 ZM4.968,16.470 C7.462,16.435 7.933,19.977 5.658,20.474 C5.666,20.489 5.674,20.505 5.682,20.520 C7.132,20.585 6.875,22.781 5.428,23.066 C4.530,23.243 3.794,22.212 4.092,21.353 C4.231,20.953 4.617,20.819 4.852,20.520 C3.734,20.457 2.584,19.152 3.125,17.836 C3.350,17.290 3.834,16.748 4.415,16.563 C4.599,16.532 4.783,16.501 4.968,16.470 ZM9.205,16.956 C9.625,16.942 10.479,16.864 10.725,17.072 C11.023,17.323 10.743,18.342 10.610,18.530 C10.204,18.538 9.797,18.545 9.390,18.553 C9.390,18.561 9.390,18.568 9.390,18.576 C9.420,18.708 9.451,18.839 9.482,18.970 C9.959,18.955 10.437,18.918 10.749,19.109 C10.852,19.488 10.891,20.108 10.725,20.451 C9.094,20.990 8.214,20.380 7.823,19.085 C7.694,18.655 7.607,17.977 7.847,17.581 C7.993,17.340 8.469,17.072 8.745,16.979 C8.898,16.971 9.052,16.964 9.205,16.956 ZM5.060,18.044 C4.863,18.266 4.653,18.425 4.760,18.831 C4.822,18.869 4.883,18.908 4.944,18.947 C5.148,19.037 5.359,18.886 5.474,18.808 C5.585,18.395 5.442,18.101 5.060,18.044 ZM13.121,18.576 C13.082,18.622 13.044,18.669 13.006,18.715 C13.021,18.800 13.036,18.884 13.052,18.970 C13.334,18.975 13.639,18.972 13.858,18.923 C13.866,18.884 13.873,18.846 13.881,18.808 C13.866,18.754 13.850,18.700 13.835,18.646 C13.597,18.622 13.359,18.600 13.121,18.576 ZM37.650,18.576 C37.596,18.638 37.542,18.700 37.489,18.762 C37.527,18.839 37.565,18.916 37.604,18.993 C37.811,18.985 38.018,18.977 38.226,18.970 C38.272,18.931 38.318,18.893 38.364,18.854 C38.356,18.792 38.348,18.731 38.341,18.669 C38.158,18.591 37.916,18.573 37.650,18.576 ZM18.879,28.967 C18.869,28.189 18.971,27.468 19.432,27.162 C20.098,26.719 21.459,26.954 22.449,26.954 C24.652,26.954 26.856,26.954 29.059,26.954 C30.008,26.952 31.242,26.718 31.915,27.139 C32.446,27.471 32.359,28.257 32.514,28.967 C33.650,28.967 34.786,28.967 35.922,28.967 C36.459,28.967 37.063,29.009 37.281,28.690 C37.612,28.206 37.398,27.101 37.396,26.421 C37.389,25.442 37.381,24.462 37.373,23.482 C37.319,23.120 37.421,22.730 37.304,22.441 C37.064,21.847 36.182,21.179 35.784,20.566 C29.029,20.582 22.271,20.597 15.516,20.613 C15.275,20.752 15.128,21.106 14.963,21.330 C14.678,21.720 14.157,22.062 14.019,22.580 C14.011,23.822 14.004,25.064 13.996,26.306 C13.995,27.046 13.741,28.189 14.111,28.713 C14.319,29.007 14.948,28.967 15.447,28.967 C16.591,28.967 17.735,28.967 18.879,28.967 ZM16.299,21.978 C18.797,21.939 19.267,25.484 16.990,25.982 C16.998,25.997 17.006,26.013 17.013,26.028 C17.725,26.043 18.156,26.733 17.911,27.532 C17.737,28.100 17.285,28.495 16.645,28.597 C15.773,28.736 15.127,27.550 15.470,26.746 C15.607,26.425 15.975,26.303 16.184,26.051 C16.184,26.044 16.184,26.036 16.184,26.028 C15.123,25.939 13.942,24.604 14.457,23.344 C14.679,22.799 15.170,22.254 15.746,22.071 C15.931,22.040 16.115,22.009 16.299,21.978 ZM34.771,21.978 C37.671,21.927 37.547,25.529 35.162,26.051 C35.162,26.059 35.162,26.067 35.162,26.074 C35.178,26.074 35.193,26.074 35.208,26.074 C35.440,26.196 35.629,26.273 35.761,26.491 C36.227,27.263 35.777,28.789 34.725,28.597 C33.830,28.435 32.890,27.379 33.619,26.421 C33.764,26.231 34.134,26.112 34.356,26.005 C34.348,25.990 34.341,25.974 34.333,25.959 C33.309,25.844 32.560,24.401 33.043,23.228 C33.213,22.816 33.604,22.335 34.011,22.163 C34.264,22.101 34.517,22.040 34.771,21.978 ZM26.203,22.464 C27.498,22.452 31.022,22.245 31.777,22.695 C32.764,23.286 32.244,25.353 31.546,25.866 C30.897,26.343 29.380,26.074 28.368,26.074 C26.464,26.074 24.560,26.074 22.656,26.074 C21.822,26.075 20.705,26.272 20.030,25.982 C19.664,25.825 19.418,25.365 19.270,24.987 C19.194,24.701 19.117,24.416 19.040,24.131 C18.901,23.478 19.154,22.988 19.524,22.766 C20.337,22.273 23.351,22.487 24.706,22.488 C25.205,22.480 25.704,22.472 26.203,22.464 ZM16.391,23.552 C16.265,23.700 16.047,23.845 16.000,24.061 C15.918,24.435 16.345,24.523 16.645,24.455 C16.980,24.160 16.896,23.623 16.391,23.552 ZM34.886,23.552 C34.751,23.702 34.385,23.923 34.517,24.246 C34.592,24.406 34.712,24.420 34.863,24.501 C35.190,24.480 35.382,24.314 35.370,23.946 C35.269,23.730 35.135,23.616 34.886,23.552 ZM20.721,24.061 C20.752,24.200 20.783,24.339 20.813,24.478 C24.068,24.478 27.324,24.478 30.579,24.478 C30.602,24.339 30.625,24.200 30.648,24.061 C27.339,24.061 24.030,24.061 20.721,24.061 ZM2.641,26.421 C2.948,26.421 3.256,26.421 3.563,26.421 C3.563,25.959 3.563,25.496 3.563,25.033 C3.208,25.040 2.929,24.990 2.664,24.918 C2.657,25.419 2.649,25.920 2.641,26.421 ZM20.491,28.551 C20.499,28.690 20.506,28.829 20.514,28.967 C23.976,28.960 27.439,28.952 30.901,28.944 C30.901,28.813 30.901,28.682 30.901,28.551 C27.432,28.551 23.961,28.551 20.491,28.551 ZM7.294,29.639 C7.294,30.148 7.294,30.657 7.294,31.166 C6.488,31.166 5.681,31.166 4.875,31.166 C5.643,32.427 6.884,33.382 8.054,34.244 C10.405,35.976 12.937,37.071 16.230,37.993 C17.523,38.355 19.083,38.613 20.946,38.449 C22.027,38.355 23.153,38.261 24.176,37.970 C26.561,37.292 28.733,36.479 30.579,35.309 C31.347,34.715 32.114,34.121 32.882,33.527 C33.471,33.590 33.697,33.878 33.965,34.244 C33.937,34.390 33.914,34.621 33.849,34.730 C33.197,35.247 32.544,35.764 31.892,36.281 C30.374,37.355 28.543,38.237 26.594,38.849 C25.231,39.277 23.817,39.570 22.287,39.845 C20.715,40.127 18.776,39.980 17.313,39.729 C16.898,39.682 16.483,39.636 16.069,39.590 C14.308,39.162 12.651,38.682 11.140,38.016 C9.075,37.105 7.381,35.681 5.705,34.360 C4.944,33.759 4.499,32.817 3.724,32.230 C3.724,33.009 3.724,33.789 3.724,34.568 C3.210,34.552 2.695,34.537 2.181,34.522 C2.181,33.349 2.181,32.176 2.181,31.004 C2.143,30.561 2.089,29.987 2.227,29.616 C3.916,29.623 5.605,29.631 7.294,29.639 ZM13.996,31.930 C14.295,31.930 14.595,31.930 14.894,31.930 C14.894,31.467 14.894,31.004 14.894,30.541 C14.539,30.548 14.259,30.497 13.996,30.425 C13.996,30.927 13.996,31.428 13.996,31.930 ZM36.498,30.541 C36.490,31.004 36.483,31.467 36.475,31.930 C36.782,31.930 37.089,31.930 37.396,31.930 C37.396,31.428 37.396,30.927 37.396,30.425 C37.116,30.475 36.859,30.540 36.498,30.541 Z"/>
</svg>