<svg 
 xmlns="http://www.w3.org/2000/svg"
 xmlns:xlink="http://www.w3.org/1999/xlink"
 width="140px" height="141px">
<path fill-rule="evenodd"  fill="rgb(244, 244, 244)"
 d="M52.606,129.678 C46.978,128.003 41.705,125.640 36.784,122.587 C31.863,119.535 27.409,115.840 23.423,111.503 C19.435,107.166 16.098,102.312 13.410,96.942 L35.007,96.942 L35.007,88.130 L0.015,88.130 L0.015,123.379 L8.763,123.379 L8.763,106.649 C12.043,112.019 15.916,116.828 20.382,121.072 C24.846,125.318 29.711,128.920 34.973,131.881 C40.236,134.841 45.828,137.103 51.752,138.663 C57.674,140.224 63.757,141.004 70.000,141.004 C77.928,141.004 85.548,139.753 92.861,137.251 C100.174,134.750 106.872,131.227 112.955,126.683 C119.037,122.140 124.334,116.712 128.845,110.401 C133.356,104.091 136.749,97.103 139.028,89.438 L130.690,86.822 C128.640,93.614 125.643,99.799 121.703,105.376 C117.761,110.952 113.136,115.726 107.829,119.695 C102.520,123.666 96.643,126.741 90.196,128.920 C83.748,131.101 77.016,132.191 70.000,132.191 C64.030,132.191 58.233,131.354 52.606,129.678 ZM131.237,17.632 L131.237,34.362 C127.956,28.992 124.083,24.184 119.618,19.938 C115.152,15.693 110.289,12.090 105.027,9.130 C99.764,6.169 94.170,3.909 88.248,2.348 C82.324,0.789 76.242,0.008 70.000,0.008 C62.072,0.008 54.451,1.259 47.138,3.760 C39.826,6.262 33.128,9.784 27.045,14.328 C20.962,18.871 15.666,24.310 11.155,30.644 C6.644,36.977 3.249,43.955 0.972,51.573 L9.310,54.189 C11.360,47.397 14.355,41.212 18.297,35.636 C22.238,30.059 26.863,25.286 32.171,21.315 C37.478,17.346 43.356,14.271 49.804,12.090 C56.251,9.911 62.983,8.820 70.000,8.820 C75.968,8.820 81.766,9.658 87.394,11.333 C93.020,13.009 98.295,15.372 103.215,18.423 C108.136,21.477 112.589,25.171 116.577,29.508 C120.563,33.845 123.900,38.699 126.589,44.069 L104.992,44.069 L104.992,52.881 L139.985,52.881 L139.985,17.632 L131.237,17.632 Z"/>
</svg>