<?xml version="1.0" encoding="utf-8"?>
<!-- Generator: Adobe Illustrator 23.0.1, SVG Export Plug-In . SVG Version: 6.00 Build 0)  -->
<svg version="1.1" id="Слой_1" xmlns="http://www.w3.org/2000/svg" xmlns:xlink="http://www.w3.org/1999/xlink" x="0px" y="0px"
	 viewBox="0 0 40 40" style="enable-background:new 0 0 40 40;" xml:space="preserve">
<style type="text/css">
	.st0{fill-rule:evenodd;clip-rule:evenodd;fill:#2A2A2A;}
	.st1{fill-rule:evenodd;clip-rule:evenodd;fill:#5B970D;}
</style>
<path class="st0" d="M19.3,0c9.8-0.1,16.5,5.6,19.3,12.4c1.9,4.7,1.9,10.6,0,15.2C36.2,33,31.9,37.2,26.1,39
	c-1.1,0.3-2.2,0.5-3.5,0.8c-0.6,0.1-1.2,0.1-1.8,0.2c-0.8,0.1-2.1,0-2.8-0.1c-0.5-0.1-1.1-0.1-1.6-0.2c-1.5-0.3-2.9-0.7-4.2-1.3
	C6.7,36,2.8,31.8,0.9,25.7c-0.7-2.2-1.2-5.5-0.7-8.4c0.2-1.3,0.4-2.6,0.9-3.7c2.3-6,6.1-10.1,12.2-12.4c1.2-0.5,2.5-0.7,3.9-1
	C17.8,0.1,18.5,0.1,19.3,0z M19.8,1.8c-0.7,0.1-1.4,0.1-2.1,0.2c-1.3,0.2-2.6,0.5-3.8,0.9c-5.3,2.1-9,5.7-11,11
	c-0.4,1.1-0.6,2.2-0.9,3.4c-0.5,2.5-0.1,5.6,0.5,7.6c1.6,5.4,5.1,9.5,10,11.6c1.3,0.6,2.8,1,4.4,1.4c0.6,0.1,1.2,0.1,1.9,0.2
	c0.5,0,1,0,1.5,0.1c0.4,0,0.9,0,1.3-0.1c1.1-0.2,2.2-0.3,3.2-0.6c5.7-1.7,9.9-5.3,12.1-10.5c1.8-4.3,1.8-9.6,0-13.9
	C34.3,6.9,28.5,1.8,19.8,1.8z"/>
<path class="st1" d="M26.2,9.4c0.7,0,1.3,0.5,1,1.2c-0.6,1-1.3,2-1.9,2.9c-2.8,4.2-5.5,8.5-8.3,12.7c-0.8,1.3-1.7,2.6-2.5,3.9
	c-0.2,0.3-0.8,0.5-1.2,0.2c-0.4-0.3-0.5-0.9-0.2-1.3c0.8-1.3,1.7-2.6,2.5-3.8c2.5-3.8,5-7.6,7.4-11.4c0.6-1,1.3-1.9,1.9-2.9
	c0.3-0.4,0.5-1.1,0.9-1.4C25.9,9.5,26.1,9.5,26.2,9.4z M14.7,10.8c2.8,0,5,2.4,3.7,5.3c-0.5,1.2-1.6,1.9-3,2.1
	c-2.5,0.4-4.7-2.4-3.8-4.9c0.4-1.1,1.2-1.9,2.3-2.3C14.2,10.9,14.4,10.9,14.7,10.8z M15,12.6c-0.9,0.3-1.3,0.3-1.7,1.2
	c-0.5,1.3,0.7,2.8,2.1,2.6C17.7,16,17.5,12.6,15,12.6z M24.5,22c2.6,0,4.8,2.3,3.7,5c-0.5,1.3-1.5,2.1-3.1,2.3
	c-2.6,0.4-4.8-2.5-3.8-5c0.4-1,1.2-1.8,2.2-2.1C23.8,22.1,24.1,22.1,24.5,22z M24.5,23.8c-0.8,0.3-1.3,0.5-1.6,1.4
	c-0.4,1.3,0.8,2.7,2.2,2.4C27.3,27.1,27.2,23.7,24.5,23.8z"/>
</svg>
