<?xml version="1.0" encoding="utf-8"?>
<!-- Generator: Adobe Illustrator 23.0.1, SVG Export Plug-In . SVG Version: 6.00 Build 0)  -->
<svg version="1.1" id="Слой_1" xmlns="http://www.w3.org/2000/svg" xmlns:xlink="http://www.w3.org/1999/xlink" x="0px" y="0px"
	 viewBox="0 0 33 40" style="enable-background:new 0 0 33 40;" xml:space="preserve">
<style type="text/css">
	.st0{fill-rule:evenodd;clip-rule:evenodd;fill:#2A2A2A;}
	.st1{fill-rule:evenodd;clip-rule:evenodd;fill:#5B970D;}
</style>
<path class="st0" d="M11.2,0c3.6,0,7.1,0,10.7,0c2.3,1.4,4.5,2.9,6.8,4.3c1,0.7,2.1,1.3,3.1,2c0.4,0.2,1,0.4,1.1,0.9
	c0.2,0.5,0,2.1,0,2.7c0,2.1,0,4.2,0,6.3c0,2.5,0.2,5.4-0.2,7.5c-0.9,4.1-2.8,7.2-5.6,9.3c-1.5,1.1-3,2.1-4.6,3.1
	c-1.3,0.9-2.7,1.8-4,2.7c-0.4,0.3-1.4,1.1-1.8,1.2c-0.6,0.2-1.6-0.7-1.9-1c-1.6-1.1-3.2-2.2-4.9-3.3c-3.7-2.4-7-4.7-8.8-9.1
	c-0.4-1-0.6-2.1-0.9-3.3C0,22.2,0.1,21,0.1,19.7c0-1.7,0-3.4,0-5.1c0-2.5,0-5,0-7.5c0.1-0.5,2.2-1.6,2.8-2C4.6,4.1,6.3,3,8,1.9
	C9.1,1.3,10.1,0.5,11.2,0z M11.5,1.7C8.2,3.7,5,5.8,1.7,7.9c0,3.3,0,6.5,0,9.8c0,2.1-0.1,4.3,0.3,6c0.4,2,1.2,3.7,2.3,5.2
	c0.4,0.5,0.8,1,1.2,1.5c0.8,1,2,1.7,3.1,2.4c1.8,1.2,3.5,2.4,5.3,3.6c0.9,0.6,1.8,1.2,2.7,1.8c1.9-1.3,3.7-2.5,5.6-3.8
	c3.8-2.5,6.7-4.2,8.4-8.9c0.8-2.1,0.8-4.7,0.8-7.7c0-3.3,0-6.6,0-10c-3.3-2.1-6.5-4.1-9.8-6.2C18.2,1.7,14.8,1.7,11.5,1.7z
	 M11.9,2.7c3.1,0,6.2,0,9.3,0C23,3.8,24.9,5,26.7,6.2c0.9,0.5,1.7,1.1,2.6,1.6c0.3,0.2,0.8,0.4,1,0.8c0,2.2,0,4.4,0,6.6
	c0,1.5,0,3,0,4.5c0,1.2,0,2.4-0.2,3.4c-0.7,3.3-2.3,6-4.6,7.7c-1.2,0.8-2.4,1.7-3.7,2.5c-1.2,0.8-2.4,1.6-3.6,2.4
	c-0.4,0.3-1.1,0.9-1.7,1.1c-0.5,0.1-1.3-0.7-1.6-0.9c-1.3-0.9-2.7-1.8-4-2.7c-1.2-0.8-2.3-1.6-3.5-2.4c-2.3-1.7-3.9-4.4-4.6-7.7
	c-0.2-1-0.2-2.2-0.2-3.4c0-1.5,0-3,0-4.5c0-2.2,0-4.4,0-6.7c0.2-0.5,1.9-1.4,2.4-1.7C6.6,6,8,5.1,9.5,4.1C10.3,3.6,11,3.1,11.9,2.7z
	 M12.3,4.3C9.6,6,6.9,7.7,4.3,9.4c0,2.5,0,4.9,0,7.4c0,1.1,0,2.2,0,3.3c0,0.6,0,1.2,0,1.8C4.5,23,4.7,24,5.1,25
	c1.3,3.5,4.4,5.4,7.3,7.2c1.4,0.9,2.7,1.9,4.1,2.8c0.1,0,0.9-0.6,1-0.7c1.1-0.7,2.1-1.4,3.2-2.1c3.4-2.2,6.8-4.2,7.8-8.8
	c0.4-1.6,0.3-3.7,0.3-5.7c0-2,0-4.1,0-6.1c0-0.3,0.1-2,0-2.1C26,7.7,23.4,6,20.7,4.3C17.9,4.3,15.1,4.3,12.3,4.3z"/>
<path class="st1" d="M12.8,13.7c1.7,0,3.4,0,5.1,0c1.1,0,2.1,0,2.7,0.4c1.1,0.7,1.8,2.4,2.7,3.3c0.4,0,0.8,0,1.2,0
	c0.5,0.1,0.9,0.7,1.3,1c0.2,0.2,0.6,0.4,0.7,0.7c0,0.4,0,0.8,0,1.3c0,2.3,0,2.2-2.3,2.2c-0.5,1.6-3.7,1.5-4.2,0c-2.4,0-4.7,0-7.1,0
	c-0.3,1-2,1.5-3.2,1c-0.5-0.2-0.7-0.6-1.1-1c-0.8,0-1.8,0.1-2.1-0.3c-0.2-0.2-0.1-0.7-0.1-1.1c0-0.9-0.2-2.4,0.2-3
	c0.5-0.8,1.7-0.7,3-0.7c0.2-0.3,0.3-0.5,0.5-0.8c0.5-0.8,0.9-1.9,1.6-2.4C12,13.8,12.4,13.8,12.8,13.7z M15.6,17.3
	c0-0.7,0-1.4,0-2.1c-0.9,0-1.8,0-2.7,0c-0.3,0.1-1.1,1.6-1.3,2C12.9,17.3,14.3,17.3,15.6,17.3z M17.4,15.2c0,0.7,0,1.4,0,2.1
	c1.3,0,2.5,0,3.8,0c0,0,0,0,0-0.1c-0.5-0.6-1-1.3-1.5-1.9C19.3,15.1,17.9,15.2,17.4,15.2z M8.2,18.8c0,0.7,0,1.4,0,2.1
	c0.2,0,0.4,0,0.6,0c0.6-1.2,2.4-1.6,3.7-0.7c0.2,0.2,0.5,0.4,0.5,0.7c0.9,0,1.8,0,2.7,0c0-0.7,0-1.4,0-2.1
	C13.1,18.8,10.7,18.8,8.2,18.8z M17.4,18.8c0,0.7,0,1.4,0,2.1c0.9,0,1.8,0,2.7,0c0.5-1.5,3.7-1.6,4.2,0c0.2,0,0.4,0,0.6,0
	c0-0.4,0.1-1.1-0.1-1.4c-0.3-0.2-0.5-0.5-0.8-0.7C21.8,18.8,19.6,18.8,17.4,18.8z M10.8,21.2c-0.3,0.1-0.3,0.1-0.5,0.4
	c0,0.5,0.8,0.7,1,0.2C11.5,21.4,11.1,21.2,10.8,21.2z M22.1,21.2c-0.2,0.1-0.6,0.2-0.5,0.5c0,0.5,0.9,0.5,1,0.1c0-0.1,0-0.2,0-0.3
	C22.5,21.3,22.4,21.2,22.1,21.2z"/>
</svg>
