<svg 
 xmlns="http://www.w3.org/2000/svg"
 xmlns:xlink="http://www.w3.org/1999/xlink"
 width="40px" height="40px">
<path fill-rule="evenodd"  fill="rgb(42, 42, 42)"
 d="M2.024,0.004 C8.776,0.004 15.530,0.004 22.283,0.004 C24.518,0.011 26.753,0.017 28.988,0.025 C29.392,0.109 29.739,0.319 30.016,0.539 C30.747,1.119 30.736,2.150 30.736,3.484 C30.736,5.138 30.736,6.792 30.736,8.447 C30.736,10.005 30.736,11.563 30.736,13.121 C30.736,13.701 30.856,14.640 30.613,15.015 C30.254,15.570 29.270,15.437 29.091,14.809 C29.084,11.446 29.077,8.083 29.070,4.719 C29.070,3.962 29.261,1.888 28.762,1.692 C28.305,1.514 27.436,1.651 26.890,1.651 C25.464,1.651 24.038,1.651 22.612,1.651 C17.724,1.651 12.835,1.651 7.947,1.651 C6.398,1.651 4.848,1.651 3.299,1.651 C2.661,1.651 1.870,1.526 1.715,2.022 C1.708,11.295 1.702,20.569 1.695,29.842 C1.695,31.956 1.695,34.071 1.695,36.185 C1.695,36.851 1.523,38.062 1.983,38.285 C2.278,38.428 3.276,38.326 3.690,38.326 C5.068,38.326 6.446,38.326 7.824,38.326 C12.732,38.326 17.642,38.326 22.550,38.326 C24.065,38.326 25.581,38.326 27.096,38.326 C27.583,38.326 28.537,38.464 28.864,38.244 C29.206,38.015 29.070,37.025 29.070,36.473 C29.070,34.963 29.070,33.452 29.070,31.943 C29.070,31.126 29.104,30.196 30.057,30.398 C30.958,30.589 30.736,31.862 30.736,32.931 C30.736,34.160 30.736,35.388 30.736,36.617 C30.736,37.189 30.807,37.891 30.674,38.368 C30.537,38.860 30.238,39.294 29.872,39.562 C29.644,39.728 29.323,39.891 29.008,39.953 C27.178,39.960 25.347,39.967 23.517,39.974 C18.060,39.974 12.602,39.974 7.145,39.974 C5.904,39.974 4.663,39.974 3.422,39.974 C2.837,39.974 2.077,40.061 1.592,39.912 C1.127,39.770 0.695,39.448 0.440,39.088 C-0.216,38.162 0.049,34.969 0.049,33.343 C0.049,28.484 0.049,23.623 0.049,18.763 C0.049,14.556 0.049,10.348 0.049,6.140 C0.049,5.132 0.049,4.122 0.049,3.113 C0.049,2.478 0.002,1.766 0.193,1.322 C0.430,0.771 0.921,0.328 1.489,0.107 C1.667,0.073 1.846,0.038 2.024,0.004 ZM7.639,5.626 C7.639,5.955 7.639,6.284 7.639,6.614 C12.053,6.614 16.469,6.614 20.884,6.614 C21.693,6.614 22.502,6.614 23.311,6.614 C23.610,6.614 24.027,6.563 24.257,6.655 C24.535,6.766 24.880,7.100 24.792,7.561 C24.738,7.846 24.537,8.121 24.298,8.220 C24.073,8.314 23.647,8.261 23.352,8.261 C22.495,8.261 21.638,8.261 20.781,8.261 C17.080,8.261 13.377,8.261 9.675,8.261 C8.526,8.261 6.359,8.541 6.034,7.767 C5.917,7.488 5.897,4.981 5.993,4.596 C6.032,4.442 6.150,4.250 6.261,4.163 C6.743,3.784 9.018,3.978 9.901,3.978 C13.178,3.978 16.456,3.978 19.732,3.978 C21.227,3.985 22.722,3.992 24.216,3.999 C24.469,4.077 24.699,4.316 24.771,4.575 C24.907,5.063 24.560,5.502 24.237,5.604 C23.126,5.612 22.015,5.619 20.905,5.626 C16.483,5.626 12.060,5.626 7.639,5.626 ZM37.544,7.932 C38.997,7.907 40.270,8.923 39.950,10.526 C39.859,10.985 39.538,11.250 39.436,11.659 C39.756,11.898 39.740,12.428 39.539,12.771 C39.038,13.643 38.538,14.515 38.038,15.386 C38.966,15.699 39.840,16.799 39.436,18.167 C39.328,18.533 39.063,18.846 38.881,19.155 C38.373,20.034 37.866,20.912 37.359,21.791 C37.058,22.301 36.559,23.805 35.652,23.541 C34.725,23.272 35.142,22.320 35.467,21.770 C36.275,20.370 37.085,18.969 37.893,17.569 C38.001,17.111 37.481,16.883 37.215,16.787 C36.413,18.173 35.611,19.560 34.808,20.946 C33.753,22.800 32.697,24.653 31.641,26.507 C31.093,27.158 30.544,27.810 29.996,28.462 C29.694,28.833 29.392,29.204 29.091,29.575 C28.750,30.083 28.533,30.783 28.062,31.160 C27.750,31.410 27.389,31.610 26.910,31.695 C26.675,31.738 26.231,31.619 26.129,31.695 C25.409,32.323 25.061,33.426 24.216,33.920 C23.460,34.361 22.579,33.901 22.262,33.384 C22.099,33.117 21.939,32.766 21.851,32.437 C21.844,32.451 21.837,32.464 21.830,32.478 C21.614,32.673 21.494,32.963 21.213,33.096 C21.035,33.151 20.857,33.205 20.678,33.260 C20.318,33.326 20.001,33.181 19.794,33.075 C18.987,32.660 19.084,31.872 18.910,30.810 C18.889,30.563 18.869,30.316 18.848,30.069 C18.848,30.083 18.848,30.096 18.848,30.110 C18.423,31.366 17.998,32.622 17.573,33.878 C17.389,34.392 16.923,35.010 16.256,34.558 C15.739,34.206 15.919,33.543 16.113,32.993 C16.503,31.847 16.894,30.700 17.285,29.554 C17.507,28.981 17.562,28.373 18.005,28.030 C18.169,27.902 18.397,27.778 18.622,27.721 C18.998,27.626 19.401,27.747 19.630,27.865 C20.615,28.374 20.371,29.240 20.576,30.481 C20.596,30.714 20.617,30.947 20.637,31.180 C20.637,31.167 20.637,31.153 20.637,31.140 C20.788,30.995 20.939,30.851 21.090,30.707 C22.363,29.938 23.346,31.210 23.558,32.210 C23.572,32.203 23.585,32.197 23.599,32.190 C23.990,31.703 24.381,31.215 24.771,30.728 C24.698,30.438 24.527,30.206 24.463,29.863 C24.284,28.906 25.008,27.980 25.327,27.433 C25.574,26.788 25.820,26.143 26.067,25.497 C26.293,24.873 26.520,24.248 26.746,23.623 C28.597,20.411 30.448,17.198 32.299,13.986 C32.049,13.742 31.661,13.681 31.518,13.327 C31.268,12.711 31.809,12.027 32.464,12.174 C32.697,12.290 32.930,12.407 33.163,12.524 C33.554,11.858 33.945,11.193 34.335,10.526 C34.527,10.207 34.670,9.743 34.973,9.538 C35.147,9.421 35.640,9.469 35.713,9.415 C35.850,9.188 35.988,8.962 36.125,8.735 C36.480,8.257 36.946,8.188 37.544,7.932 ZM8.708,9.250 C12.341,9.250 15.976,9.250 19.609,9.250 C20.716,9.250 23.061,8.904 22.818,10.197 C22.617,11.264 20.568,10.918 19.321,10.918 C15.729,10.911 12.136,10.904 8.544,10.897 C8.043,10.751 7.767,10.017 8.153,9.538 C8.291,9.367 8.488,9.346 8.708,9.250 ZM37.811,9.579 C37.426,9.751 37.330,9.912 37.153,10.279 C37.167,10.279 37.181,10.279 37.194,10.279 C37.468,10.437 37.743,10.595 38.017,10.753 C38.195,10.257 38.647,9.815 37.811,9.579 ZM35.734,11.371 C35.567,11.910 34.636,12.962 34.623,13.389 C35.281,13.760 35.940,14.130 36.598,14.501 C36.975,13.835 37.352,13.169 37.729,12.503 C37.064,12.126 36.399,11.748 35.734,11.371 ZM11.238,13.883 C15.241,13.883 19.246,13.883 23.249,13.883 C24.415,13.883 27.110,13.466 26.767,14.913 C26.706,15.169 26.446,15.428 26.211,15.510 C25.135,15.517 24.058,15.524 22.982,15.531 C19.068,15.531 15.152,15.531 11.238,15.531 C10.760,15.417 10.366,14.726 10.744,14.212 C10.865,14.048 11.057,13.990 11.238,13.883 ZM33.759,14.809 C32.066,17.768 30.372,20.727 28.679,23.685 C29.344,24.055 30.009,24.426 30.674,24.797 C32.368,21.853 34.061,18.907 35.754,15.963 C35.090,15.578 34.424,15.194 33.759,14.809 ZM5.397,17.837 C8.982,17.837 12.568,17.837 16.154,17.837 C17.417,17.837 19.446,17.454 19.527,18.681 C19.603,19.846 17.244,19.505 16.113,19.504 C12.541,19.504 8.968,19.504 5.397,19.504 C4.767,19.380 4.422,18.627 4.883,18.084 C5.002,17.942 5.215,17.920 5.397,17.837 ZM21.234,17.837 C22.427,17.837 23.620,17.837 24.813,17.837 C25.302,17.837 26.027,17.750 26.355,17.940 C26.595,18.079 26.882,18.410 26.767,18.887 C26.709,19.126 26.484,19.357 26.273,19.443 C25.996,19.556 25.512,19.504 25.142,19.504 C24.237,19.504 23.332,19.504 22.427,19.504 C21.962,19.504 21.277,19.590 20.946,19.422 C20.501,19.197 20.320,18.374 20.781,18.022 C20.932,17.960 21.083,17.899 21.234,17.837 ZM5.294,21.152 C7.241,21.152 9.188,21.152 11.135,21.152 C12.011,21.152 13.123,21.083 12.925,22.099 C12.774,22.872 12.039,22.800 11.115,22.800 C9.737,22.800 8.358,22.800 6.981,22.800 C6.462,22.800 5.620,22.931 5.191,22.759 C4.317,22.405 4.649,21.497 5.294,21.152 ZM14.508,21.152 C15.763,21.152 17.018,21.152 18.272,21.152 C18.743,21.152 19.492,21.058 19.794,21.255 C20.021,21.403 20.254,21.768 20.164,22.161 C20.104,22.425 19.882,22.667 19.650,22.759 C19.393,22.860 18.928,22.800 18.601,22.800 C17.676,22.800 16.750,22.800 15.825,22.800 C15.346,22.800 14.617,22.889 14.303,22.697 C13.535,22.228 13.954,21.493 14.508,21.152 ZM27.959,25.168 C27.692,25.902 27.425,26.636 27.157,27.371 C27.443,27.516 28.053,28.041 28.309,27.886 C28.775,27.323 29.242,26.760 29.708,26.198 C29.701,26.183 29.694,26.170 29.687,26.156 C29.111,25.827 28.535,25.497 27.959,25.168 ZM8.173,25.765 C9.741,25.728 10.889,26.176 11.793,26.815 C12.246,27.135 12.466,27.920 11.896,28.298 C11.388,28.635 10.921,28.211 10.600,28.009 C10.048,27.663 9.081,27.268 8.091,27.433 C7.406,27.547 6.814,27.701 6.322,28.009 C4.855,28.927 3.574,31.376 4.821,33.507 C5.307,34.338 6.000,35.032 6.939,35.402 C9.129,36.266 11.153,35.048 11.999,33.693 C12.233,33.318 12.396,32.830 12.513,32.355 C12.704,31.583 12.463,30.957 13.212,30.748 C13.428,30.688 13.712,30.742 13.850,30.831 C14.563,31.292 14.137,32.897 13.871,33.549 C13.032,35.597 11.584,36.897 9.119,37.317 C8.245,37.466 7.260,37.272 6.631,37.049 C4.240,36.204 1.637,33.142 2.990,29.656 C3.656,27.942 4.802,26.765 6.507,26.094 C6.871,26.005 7.234,25.916 7.598,25.827 C7.790,25.806 7.981,25.785 8.173,25.765 ZM26.458,28.895 C26.324,29.222 26.115,29.399 26.232,29.842 C26.899,30.369 26.996,29.807 27.322,29.410 C27.315,29.396 27.308,29.382 27.301,29.369 C27.020,29.211 26.739,29.053 26.458,28.895 Z
 M10.909,29.450 C11.563,29.441 12.185,29.999 11.793,30.686 C11.607,31.013 11.213,31.230 10.971,31.510 C10.504,32.049 9.611,33.074 9.017,33.425 C8.786,33.561 8.372,33.668 8.009,33.590 C7.469,33.475 5.930,32.008 5.685,31.572 C5.552,31.336 5.591,30.905 5.726,30.707 C5.892,30.464 6.384,30.212 6.795,30.419 C7.102,30.573 8.057,31.564 8.276,31.860 C8.311,31.826 8.345,31.792 8.379,31.757 C8.613,31.644 8.723,31.378 8.914,31.222 C9.611,30.651 10.082,29.895 10.909,29.450 Z"/>
</svg>