<svg 
 xmlns="http://www.w3.org/2000/svg"
 xmlns:xlink="http://www.w3.org/1999/xlink"
 width="40px" height="27px">
<path fill-rule="evenodd"  fill="rgb(42, 42, 42)"
 d="M29.415,8.967 C29.415,9.850 29.415,10.733 29.415,11.615 C29.395,12.187 29.374,12.760 29.354,13.333 C29.060,14.908 28.632,16.262 27.892,17.387 C26.876,18.774 25.860,20.159 24.845,21.545 C24.734,21.854 24.783,22.346 24.783,22.745 C24.783,24.574 25.147,26.471 23.692,26.904 C23.093,27.082 21.926,26.945 21.221,26.945 C19.457,26.945 17.693,26.945 15.930,26.945 C14.987,26.945 13.728,27.084 13.171,26.677 C12.942,26.510 12.707,26.208 12.615,25.910 C12.504,25.555 12.574,24.992 12.574,24.566 C12.574,23.490 12.574,22.414 12.574,21.339 C12.567,20.939 12.560,20.539 12.553,20.139 C12.402,19.489 11.843,18.878 11.503,18.360 C10.693,17.029 9.883,15.698 9.074,14.367 C8.630,13.650 7.858,12.802 8.168,11.491 C8.372,10.626 8.766,9.742 9.135,8.967 C8.933,8.960 8.427,8.902 8.312,9.009 C8.140,9.195 7.969,9.381 7.797,9.567 C7.200,10.051 6.551,10.498 5.718,10.746 C3.510,11.404 0.448,10.140 0.076,8.450 C-0.136,7.483 0.593,6.823 1.311,6.691 C2.621,6.451 3.777,7.104 4.420,6.133 C4.522,5.978 4.679,5.699 4.626,5.409 C4.242,3.298 1.166,5.202 0.220,3.568 C0.077,3.319 -0.061,2.918 0.035,2.491 C0.128,2.078 0.438,1.797 0.694,1.540 C1.781,0.447 3.665,-0.374 5.800,0.236 C6.971,0.572 7.607,1.312 8.374,2.037 C9.595,2.030 10.817,2.023 12.038,2.016 C12.233,0.915 13.734,-0.290 15.250,0.071 C15.868,0.218 16.249,0.529 16.671,0.857 C16.685,0.857 16.698,0.857 16.712,0.857 C17.508,-0.219 19.864,-0.184 20.644,0.878 C20.713,0.809 20.782,0.740 20.850,0.671 C21.135,0.547 21.361,0.318 21.674,0.195 C22.747,-0.225 24.121,0.205 24.618,0.878 C24.687,0.809 24.755,0.740 24.824,0.671 C25.207,0.505 25.510,0.218 25.977,0.092 C27.613,-0.352 28.988,0.900 29.292,2.037 C30.074,2.037 30.857,2.037 31.639,2.037 C31.894,1.584 32.353,1.255 32.771,0.961 C34.759,-0.440 37.157,-0.159 38.927,1.209 C39.320,1.512 39.833,1.934 39.957,2.491 C40.182,3.508 39.465,4.174 38.721,4.312 C37.391,4.559 36.242,3.899 35.592,4.892 C35.462,5.090 35.309,5.376 35.386,5.719 C35.825,7.675 38.884,5.780 39.751,7.477 C39.850,7.671 39.992,7.972 39.936,8.305 C39.811,9.048 39.337,9.442 38.845,9.815 C36.960,11.247 34.410,11.250 32.524,9.815 C32.239,9.598 31.825,9.313 31.680,8.967 C30.925,8.967 30.170,8.967 29.415,8.967 ZM4.029,1.664 C3.823,1.699 3.617,1.733 3.412,1.768 C2.803,1.954 2.167,2.276 1.806,2.719 C2.485,2.719 3.165,2.719 3.844,2.719 C5.175,2.989 6.815,4.484 6.129,6.339 C5.981,6.741 5.776,7.089 5.532,7.395 C4.811,8.300 3.549,8.317 1.888,8.305 C2.088,8.572 2.423,8.746 2.732,8.905 C4.381,9.751 6.255,9.036 7.118,7.912 C7.403,7.540 7.643,7.084 7.797,6.587 C8.644,3.859 6.461,1.648 4.029,1.664 ZM13.521,4.685 C14.303,4.685 15.085,4.685 15.868,4.685 C15.889,3.330 16.080,1.383 14.530,1.664 C13.322,1.882 13.500,3.255 13.521,4.685 ZM17.494,4.685 C18.265,4.679 19.201,4.617 19.842,4.768 C19.862,3.298 20.077,1.897 18.833,1.664 C17.290,1.375 17.477,3.342 17.494,4.685 ZM22.497,1.664 C22.027,1.861 21.711,1.955 21.530,2.429 C21.349,2.902 21.468,3.768 21.468,4.354 C21.468,5.912 20.996,9.029 22.827,8.678 C23.250,8.596 23.608,8.294 23.753,7.932 C23.864,7.657 23.815,7.184 23.815,6.815 C23.815,5.940 23.815,5.064 23.815,4.188 C23.815,3.469 23.906,2.568 23.609,2.140 C23.394,1.829 23.035,1.658 22.497,1.664 ZM26.471,1.664 C25.999,1.862 25.689,1.957 25.503,2.429 C25.319,2.900 25.442,3.788 25.442,4.374 C25.442,5.931 24.969,9.029 26.800,8.678 C27.200,8.601 27.568,8.314 27.706,7.974 C27.832,7.664 27.789,7.159 27.789,6.733 C27.789,5.884 27.789,5.036 27.789,4.188 C27.789,3.448 27.880,2.545 27.562,2.119 C27.340,1.821 27.002,1.658 26.471,1.664 ZM35.448,1.664 C35.090,1.803 34.720,1.780 34.398,1.913 C33.267,2.374 32.449,3.320 32.133,4.602 C31.578,6.854 33.117,8.554 34.521,9.091 C35.766,9.567 37.485,9.130 38.083,8.326 C35.838,8.353 34.658,8.165 33.986,6.587 C33.791,6.130 33.646,5.291 33.862,4.705 C34.007,4.316 34.203,3.970 34.439,3.671 C35.186,2.724 36.433,2.686 38.165,2.699 C38.159,2.685 38.152,2.671 38.145,2.657 C37.987,2.526 37.829,2.395 37.671,2.264 C37.089,1.871 36.429,1.665 35.448,1.664 ZM11.894,3.650 C11.009,3.650 10.123,3.650 9.238,3.650 C9.708,4.700 9.523,6.292 9.238,7.353 C9.417,7.353 9.595,7.353 9.773,7.353 C9.931,7.001 10.089,6.650 10.247,6.298 C10.589,5.752 11.199,5.131 11.894,4.954 C11.894,4.519 11.894,4.084 11.894,3.650 ZM29.415,3.650 C29.415,4.884 29.415,6.119 29.415,7.353 C29.861,7.353 30.307,7.353 30.754,7.353 C30.754,7.346 30.754,7.340 30.754,7.333 C30.267,6.081 30.500,4.901 30.733,3.650 C30.294,3.650 29.854,3.650 29.415,3.650 ZM14.180,25.311 C17.172,25.311 20.164,25.311 23.156,25.311 C23.156,24.456 23.156,23.601 23.156,22.745 C23.156,22.223 23.115,21.653 23.239,21.235 C23.431,20.588 23.841,20.189 24.186,19.705 C24.975,18.622 25.764,17.539 26.553,16.457 C27.217,15.363 27.552,14.189 27.789,12.629 C27.789,11.767 27.789,10.905 27.789,10.043 C26.728,10.546 25.208,10.229 24.639,9.464 C24.584,9.519 24.529,9.574 24.474,9.629 C24.172,9.776 23.916,10.048 23.568,10.167 C22.145,10.653 21.292,9.934 20.521,9.339 C20.500,9.353 20.480,9.367 20.459,9.381 C20.021,10.276 18.750,10.624 17.680,10.932 C17.707,10.967 17.735,11.002 17.762,11.036 C17.984,11.136 18.119,11.347 18.297,11.491 C19.414,12.394 20.213,13.687 20.644,15.277 C20.849,16.030 20.990,17.289 20.315,17.573 C19.854,17.768 19.380,17.472 19.244,17.139 C19.145,16.894 19.215,16.529 19.162,16.229 C19.088,15.810 19.004,15.416 18.874,15.050 C18.368,13.627 17.217,12.597 16.074,11.801 C15.525,11.420 14.023,10.977 13.891,10.291 C13.611,8.838 15.976,9.513 17.041,9.339 C18.256,9.142 18.996,8.856 19.471,7.932 C19.609,7.664 19.990,6.950 19.759,6.567 C19.518,6.167 18.445,6.319 17.824,6.319 C16.156,6.326 14.488,6.333 12.821,6.339 C12.495,6.417 12.205,6.572 11.977,6.753 C11.394,7.217 11.184,8.269 10.885,9.009 C10.618,9.684 10.350,10.360 10.082,11.036 C9.964,11.327 9.791,11.611 9.732,11.967 C9.629,12.595 10.546,13.655 10.803,14.077 C11.517,15.250 12.231,16.422 12.944,17.594 C13.295,18.159 13.823,18.754 14.035,19.415 C14.226,20.006 14.180,20.864 14.180,21.649 C14.180,22.870 14.180,24.090 14.180,25.311 Z"/>
</svg>