<svg 
 xmlns="http://www.w3.org/2000/svg"
 xmlns:xlink="http://www.w3.org/1999/xlink"
 width="33px" height="40px">
<path fill-rule="evenodd"  fill="rgb(42, 42, 42)"
 d="M11.247,-0.005 C14.802,0.002 18.357,0.008 21.912,0.015 C24.162,1.443 26.413,2.871 28.663,4.299 C29.690,4.951 30.718,5.604 31.745,6.256 C32.120,6.496 32.713,6.701 32.881,7.142 C33.052,7.594 32.921,9.222 32.921,9.840 C32.921,11.927 32.921,14.015 32.921,16.102 C32.921,18.604 33.143,21.508 32.678,23.641 C31.788,27.716 29.892,30.816 27.102,32.952 C25.648,34.065 24.058,35.023 22.540,36.062 C21.202,36.968 19.864,37.875 18.526,38.781 C18.129,39.064 17.134,39.886 16.701,39.997 C16.087,40.152 15.146,39.252 14.755,38.987 C13.133,37.889 11.511,36.790 9.889,35.691 C6.158,33.293 2.868,31.007 1.130,26.567 C0.734,25.553 0.488,24.462 0.238,23.291 C0.004,22.198 0.055,21.001 0.055,19.728 C0.055,18.039 0.055,16.349 0.055,14.660 C0.062,12.175 0.069,9.689 0.076,7.204 C0.211,6.695 2.319,5.566 2.853,5.227 C4.583,4.128 6.314,3.029 8.044,1.931 C9.087,1.264 10.051,0.492 11.247,-0.005 ZM11.491,1.663 C8.227,3.736 4.962,5.810 1.698,7.883 C1.698,11.144 1.698,14.407 1.698,17.668 C1.698,19.725 1.588,21.940 1.961,23.641 C2.404,25.657 3.202,27.381 4.212,28.832 C4.624,29.333 5.036,29.835 5.449,30.336 C6.234,31.336 7.456,32.058 8.530,32.766 C10.294,33.974 12.058,35.183 13.822,36.392 C14.714,36.989 15.606,37.587 16.498,38.184 C18.357,36.914 20.216,35.643 22.074,34.373 C25.835,31.877 28.742,30.127 30.488,25.516 C31.289,23.402 31.279,20.829 31.279,17.853 C31.279,14.530 31.279,11.206 31.279,7.883 C28.015,5.810 24.750,3.736 21.486,1.663 C18.155,1.663 14.822,1.663 11.491,1.663 ZM11.896,2.652 C14.998,2.658 18.100,2.665 21.202,2.673 C23.047,3.846 24.892,5.020 26.737,6.195 C27.602,6.744 28.467,7.293 29.332,7.843 C29.662,8.054 30.156,8.218 30.285,8.625 C30.292,10.836 30.299,13.048 30.306,15.258 C30.306,16.768 30.306,18.279 30.306,19.789 C30.306,20.982 30.338,22.165 30.123,23.147 C29.395,26.480 27.828,29.124 25.521,30.851 C24.298,31.682 23.074,32.512 21.851,33.343 C20.655,34.153 19.458,34.964 18.262,35.774 C17.817,36.070 17.157,36.722 16.600,36.824 C16.077,36.920 15.273,36.165 14.957,35.938 C13.619,35.032 12.281,34.126 10.943,33.219 C9.781,32.430 8.618,31.640 7.456,30.851 C5.148,29.124 3.583,26.479 2.853,23.147 C2.638,22.165 2.671,20.982 2.671,19.789 C2.671,18.286 2.671,16.782 2.671,15.279 C2.678,13.061 2.685,10.843 2.691,8.625 C2.861,8.088 4.581,7.246 5.104,6.915 C6.564,5.989 8.024,5.062 9.483,4.135 C10.276,3.631 11.012,3.061 11.896,2.652 ZM12.261,4.299 C9.605,5.988 6.949,7.678 4.293,9.367 C4.293,11.825 4.293,14.283 4.293,16.741 C4.293,17.853 4.293,18.966 4.293,20.078 C4.306,20.682 4.320,21.286 4.333,21.890 C4.517,23.047 4.737,24.046 5.084,25.001 C6.356,28.506 9.488,30.366 12.403,32.210 C13.754,33.137 15.106,34.064 16.458,34.991 C16.596,35.014 17.308,34.424 17.451,34.332 C18.506,33.618 19.560,32.904 20.614,32.190 C23.975,30.038 27.405,27.946 28.400,23.394 C28.755,21.770 28.684,19.650 28.684,17.647 C28.684,15.601 28.684,13.555 28.684,11.509 C28.684,11.168 28.767,9.512 28.643,9.367 C26.001,7.678 23.358,5.988 20.716,4.299 C17.898,4.299 15.079,4.299 12.261,4.299 ZM12.808,13.672 C14.511,13.672 16.215,13.672 17.918,13.672 C18.970,13.672 19.975,13.624 20.614,14.022 C21.669,14.679 22.406,16.403 23.331,17.276 C23.743,17.283 24.156,17.290 24.568,17.297 C25.066,17.447 25.463,18.021 25.845,18.327 C26.063,18.501 26.436,18.703 26.534,18.986 C26.541,19.405 26.548,19.824 26.555,20.243 C26.555,22.572 26.543,22.456 24.243,22.426 C23.749,23.995 20.553,23.962 20.046,22.426 C17.675,22.426 15.302,22.426 12.930,22.426 C12.593,23.422 10.966,23.926 9.767,23.415 C9.256,23.197 9.071,22.786 8.713,22.426 C7.935,22.437 6.897,22.552 6.564,22.097 C6.389,21.858 6.422,21.424 6.422,21.005 C6.422,20.085 6.231,18.584 6.604,17.977 C7.099,17.171 8.301,17.263 9.605,17.276 C9.760,17.016 9.916,16.755 10.071,16.494 C10.547,15.685 10.950,14.578 11.714,14.063 C12.036,13.846 12.408,13.841 12.808,13.672 ZM15.627,17.276 C15.627,16.590 15.627,15.904 15.627,15.217 C14.714,15.224 13.802,15.230 12.890,15.237 C12.556,15.370 11.765,16.887 11.572,17.276 C12.923,17.276 14.275,17.276 15.627,17.276 ZM17.370,15.217 C17.370,15.904 17.370,16.590 17.370,17.276 C18.641,17.276 19.912,17.276 21.182,17.276 C21.175,17.256 21.168,17.235 21.162,17.215 C20.648,16.576 20.134,15.937 19.621,15.299 C19.295,15.093 17.898,15.213 17.370,15.217 ZM8.165,18.821 C8.165,19.508 8.165,20.195 8.165,20.881 C8.355,20.881 8.544,20.881 8.733,20.881 C9.355,19.655 11.178,19.274 12.383,20.222 C12.598,20.392 12.837,20.592 12.930,20.881 C13.829,20.881 14.728,20.881 15.627,20.881 C15.627,20.195 15.627,19.508 15.627,18.821 C13.140,18.821 10.652,18.821 8.165,18.821 ZM17.370,18.821 C17.370,19.508 17.370,20.195 17.370,20.881 C18.262,20.881 19.154,20.881 20.046,20.881 C20.581,19.369 23.739,19.288 24.243,20.881 C24.433,20.881 24.622,20.881 24.811,20.881 C24.817,20.493 24.906,19.771 24.750,19.501 C24.480,19.274 24.210,19.048 23.939,18.821 C21.750,18.821 19.560,18.821 17.370,18.821 ZM10.781,21.211 C10.508,21.337 10.433,21.342 10.294,21.602 C10.325,22.126 11.140,22.254 11.328,21.808 C11.526,21.449 11.101,21.208 10.781,21.211 ZM22.094,21.211 C21.895,21.295 21.538,21.394 21.628,21.685 C21.677,22.190 22.525,22.186 22.662,21.767 C22.662,21.678 22.662,21.588 22.662,21.500 C22.545,21.322 22.379,21.218 22.094,21.211 Z"/>
</svg>