<svg 
 xmlns="http://www.w3.org/2000/svg"
 xmlns:xlink="http://www.w3.org/1999/xlink"
 width="42px" height="29px">
<path fill-rule="evenodd"  fill="rgb(42, 42, 42)"
 d="M7.888,18.526 C7.854,16.736 8.334,16.472 10.130,16.472 C10.680,16.472 11.761,16.345 11.969,16.689 C12.095,16.822 12.038,17.043 12.050,17.242 C12.062,17.450 12.107,17.823 11.989,17.973 C11.805,18.208 10.068,18.121 9.565,18.111 C9.565,18.249 9.565,18.388 9.565,18.526 C10.034,18.518 11.831,18.437 11.969,18.664 C12.094,18.792 12.113,19.841 11.989,19.987 C11.824,20.298 10.821,20.165 10.353,20.165 C8.689,20.165 7.025,20.165 5.362,20.165 C5.375,21.223 5.505,22.469 4.897,22.930 C4.138,23.506 1.821,23.385 1.321,22.713 C0.866,22.101 1.058,20.189 1.058,19.138 C1.058,17.499 1.058,15.859 1.058,14.220 C1.058,13.393 0.957,12.373 1.139,11.673 C1.348,10.867 1.888,10.492 2.250,9.876 C1.809,9.883 1.440,9.863 1.139,9.738 C0.313,9.391 -0.390,8.145 0.250,7.110 C0.712,6.364 2.010,5.838 3.200,6.340 C3.502,6.468 3.686,6.710 3.927,6.893 C4.102,6.426 4.278,5.959 4.453,5.491 C5.009,4.102 5.219,2.945 6.857,2.608 C8.137,2.595 9.417,2.581 10.696,2.568 C10.750,2.298 10.804,2.028 10.858,1.758 C11.361,-0.322 12.798,0.020 15.303,0.020 C16.193,0.020 17.405,-0.110 18.071,0.159 C19.164,0.600 19.058,1.445 19.405,2.588 C21.526,2.566 23.811,2.280 24.739,3.476 C24.976,3.781 25.340,4.238 25.164,4.701 C24.993,4.788 23.960,4.900 23.689,4.780 C23.442,4.671 23.390,4.347 23.082,4.247 C22.665,4.240 22.247,4.234 21.830,4.227 C18.308,4.227 14.784,4.227 11.262,4.227 C10.259,4.227 9.255,4.227 8.251,4.227 C7.832,4.227 7.213,4.151 6.898,4.287 C6.519,4.448 6.465,4.889 6.312,5.274 C5.941,6.262 5.571,7.249 5.200,8.236 C7.961,8.236 10.724,8.236 13.485,8.236 C14.022,8.236 16.007,8.129 16.172,8.394 C16.269,8.498 16.294,9.419 16.212,9.619 C16.168,9.727 16.006,9.821 15.889,9.856 C12.919,9.862 9.948,9.869 6.978,9.876 C6.345,9.876 5.712,9.876 5.079,9.876 C4.894,9.876 4.499,9.823 4.392,9.915 C4.073,10.167 2.859,11.666 2.755,12.067 C2.749,13.305 2.742,14.543 2.735,15.781 C2.735,16.452 2.598,17.894 2.897,18.269 C3.149,18.584 3.734,18.526 4.311,18.526 C5.503,18.526 6.696,18.526 7.888,18.526 ZM12.394,2.588 C14.158,2.588 15.923,2.588 17.687,2.588 C17.677,2.353 17.611,1.776 17.445,1.680 C15.842,1.680 14.239,1.680 12.636,1.680 C12.491,1.883 12.410,2.273 12.394,2.588 ZM36.641,25.853 C30.189,25.853 23.735,25.853 17.283,25.853 C17.296,26.911 17.427,28.157 16.819,28.618 C16.059,29.194 13.742,29.073 13.242,28.401 C12.787,27.788 12.979,25.877 12.979,24.826 C12.979,23.187 12.979,21.548 12.979,19.908 C12.979,19.081 12.878,18.061 13.060,17.360 C13.269,16.555 13.810,16.180 14.172,15.563 C13.731,15.571 13.361,15.551 13.060,15.425 C12.235,15.079 11.531,13.833 12.171,12.799 C12.633,12.052 13.932,11.526 15.121,12.028 C15.423,12.156 15.608,12.398 15.849,12.581 C16.024,12.114 16.199,11.647 16.374,11.179 C16.931,9.790 17.140,8.633 18.779,8.295 C20.058,8.282 21.338,8.270 22.618,8.256 C22.670,6.964 23.197,5.961 24.355,5.728 C25.312,5.722 26.268,5.715 27.225,5.709 C28.115,5.709 29.326,5.577 29.993,5.847 C31.024,6.262 30.990,7.163 31.326,8.276 C32.566,8.272 34.849,8.094 35.731,8.453 C36.884,8.922 37.092,10.027 37.550,11.179 C37.725,11.647 37.900,12.114 38.075,12.581 C38.316,12.398 38.501,12.155 38.803,12.028 C39.992,11.529 41.291,12.049 41.753,12.799 C42.390,13.832 41.691,15.080 40.864,15.425 C40.561,15.551 40.194,15.569 39.752,15.563 C40.109,16.185 40.653,16.553 40.864,17.360 C41.045,18.055 40.944,19.067 40.944,19.889 C40.944,21.508 40.944,23.128 40.944,24.747 C40.945,25.701 41.137,27.678 40.763,28.282 C40.624,28.505 40.374,28.731 40.116,28.835 C39.392,29.126 37.549,28.957 37.105,28.618 C36.497,28.154 36.630,26.914 36.641,25.853 ZM24.315,8.276 C26.079,8.276 27.844,8.276 29.609,8.276 C29.599,8.041 29.532,7.464 29.367,7.367 C27.764,7.367 26.160,7.367 24.557,7.367 C24.413,7.571 24.332,7.961 24.315,8.276 ZM1.846,7.821 C1.783,7.872 1.744,7.881 1.705,7.960 C1.698,7.999 1.691,8.039 1.684,8.078 C1.711,8.124 1.738,8.171 1.765,8.217 C2.014,8.217 2.264,8.217 2.513,8.217 C2.553,8.183 2.594,8.150 2.634,8.118 C2.627,8.065 2.621,8.013 2.614,7.960 C2.581,7.888 2.566,7.875 2.493,7.841 C2.277,7.834 2.062,7.828 1.846,7.821 ZM19.001,9.915 C18.820,10.015 18.629,10.050 18.516,10.212 C18.051,11.449 17.586,12.687 17.122,13.924 C23.681,13.924 30.243,13.924 36.802,13.924 C36.802,13.918 36.802,13.911 36.802,13.904 C36.466,13.016 36.129,12.127 35.792,11.238 C35.637,10.822 35.547,10.227 35.186,10.014 C34.904,9.846 34.288,9.915 33.852,9.915 C32.808,9.915 31.764,9.915 30.720,9.915 C26.814,9.915 22.907,9.915 19.001,9.915 ZM5.362,11.317 C5.730,11.408 6.070,11.412 6.352,11.574 C7.135,12.022 7.885,13.259 7.241,14.398 C7.043,14.748 6.739,15.063 6.392,15.267 C6.217,15.339 6.042,15.412 5.867,15.485 C7.299,15.616 7.314,17.854 5.685,18.111 C4.770,18.255 3.994,17.244 4.271,16.373 C4.413,15.924 4.722,15.764 5.079,15.524 C3.796,15.296 2.536,13.907 3.402,12.443 C3.673,11.984 4.110,11.585 4.675,11.416 C4.904,11.383 5.133,11.350 5.362,11.317 ZM9.181,11.850 C9.827,11.857 10.474,11.863 11.121,11.870 C11.494,12.033 11.326,13.233 11.121,13.450 C10.683,13.457 10.245,13.464 9.807,13.470 C9.841,13.615 9.875,13.760 9.908,13.904 C10.359,13.896 10.972,13.846 11.242,14.023 C11.337,14.258 11.386,15.196 11.242,15.366 C11.099,15.639 9.534,15.588 9.201,15.465 C8.901,15.354 8.629,15.127 8.474,14.872 C8.212,14.446 7.914,13.120 8.171,12.581 C8.379,12.143 8.734,12.067 9.181,11.850 ZM5.301,12.956 C4.585,13.224 4.818,14.013 5.382,13.904 C5.955,13.794 5.873,13.033 5.301,12.956 ZM13.768,13.510 C13.704,13.560 13.666,13.569 13.626,13.648 C13.619,13.687 13.613,13.727 13.606,13.766 C13.633,13.812 13.660,13.858 13.687,13.904 C13.936,13.904 14.185,13.904 14.434,13.904 C14.475,13.871 14.515,13.839 14.556,13.806 C14.549,13.753 14.542,13.700 14.535,13.648 C14.502,13.575 14.487,13.563 14.414,13.529 C14.199,13.522 13.983,13.517 13.768,13.510 ZM39.530,13.510 C39.476,13.555 39.422,13.601 39.368,13.648 C39.375,13.700 39.382,13.753 39.389,13.806 C39.422,13.845 39.456,13.884 39.490,13.924 C39.867,13.945 40.376,14.021 40.298,13.628 C40.168,13.470 39.825,13.500 39.530,13.510 ZM19.809,24.214 C19.798,23.289 19.879,22.710 20.435,22.357 C21.017,21.988 22.437,22.160 23.345,22.160 C25.702,22.160 28.060,22.160 30.417,22.160 C31.359,22.160 32.881,21.970 33.488,22.357 C34.046,22.712 34.124,23.288 34.115,24.214 C35.307,24.214 36.499,24.214 37.691,24.214 C38.267,24.214 38.855,24.273 39.106,23.957 C39.437,23.541 39.267,22.296 39.267,21.607 C39.267,20.685 39.267,19.764 39.267,18.842 C39.267,18.416 39.317,17.889 39.187,17.578 C38.856,16.790 37.977,16.318 37.610,15.563 C32.337,15.563 27.062,15.563 21.789,15.563 C20.436,15.563 19.082,15.563 17.728,15.563 C17.471,15.563 16.432,15.503 16.313,15.603 C15.995,15.855 14.781,17.354 14.677,17.756 C14.670,18.993 14.663,20.231 14.657,21.468 C14.657,22.140 14.519,23.582 14.818,23.957 C15.070,24.273 15.656,24.214 16.233,24.214 C17.425,24.214 18.617,24.214 19.809,24.214 ZM17.283,17.005 C17.651,17.096 17.991,17.101 18.273,17.262 C19.056,17.710 19.807,18.947 19.162,20.086 C18.965,20.436 18.661,20.751 18.314,20.955 C18.139,21.027 17.964,21.100 17.789,21.172 C19.221,21.305 19.235,23.543 17.607,23.799 C16.692,23.943 15.916,22.932 16.192,22.061 C16.335,21.612 16.643,21.452 17.000,21.212 C15.717,20.984 14.458,19.595 15.323,18.131 C15.595,17.672 16.031,17.272 16.596,17.104 C16.825,17.071 17.054,17.038 17.283,17.005 ZM36.620,17.005 C36.856,17.038 37.092,17.071 37.328,17.104 C37.892,17.273 38.330,17.671 38.601,18.131 C39.466,19.602 38.208,20.978 36.924,21.212 C36.924,21.218 36.924,21.225 36.924,21.232 C38.249,21.571 37.928,24.059 36.317,23.799 C34.691,23.536 34.700,21.309 36.135,21.172 C35.974,21.106 35.812,21.041 35.650,20.974 C35.334,20.806 35.029,20.520 34.842,20.224 C34.116,19.076 34.772,17.763 35.650,17.262 C35.932,17.101 36.277,17.135 36.620,17.005 ZM21.102,17.538 C24.382,17.538 27.663,17.538 30.943,17.538 C32.327,17.538 33.403,17.345 33.832,18.329 C33.907,18.502 34.014,18.782 33.953,19.079 C33.798,19.834 33.614,20.708 33.024,21.054 C32.455,21.387 31.154,21.232 30.296,21.232 C28.127,21.232 25.958,21.232 23.790,21.232 C22.896,21.232 21.496,21.404 20.900,21.054 C20.350,20.731 19.695,19.104 20.092,18.269 C20.301,17.830 20.657,17.757 21.102,17.538 ZM17.223,18.644 C16.506,18.912 16.740,19.701 17.304,19.592 C17.876,19.482 17.795,18.720 17.223,18.644 ZM36.661,18.644 C35.988,18.903 36.166,19.694 36.742,19.592 C37.346,19.486 37.240,18.737 36.661,18.644 ZM21.729,19.158 C21.762,19.303 21.796,19.448 21.830,19.592 C25.251,19.592 28.673,19.592 32.094,19.592 C32.128,19.448 32.162,19.303 32.195,19.158 C28.707,19.158 25.217,19.158 21.729,19.158 ZM2.735,21.607 C3.052,21.607 3.368,21.607 3.685,21.607 C3.685,21.126 3.685,20.645 3.685,20.165 C3.307,20.172 3.023,20.116 2.735,20.046 C2.735,20.567 2.735,21.087 2.735,21.607 ZM21.486,23.799 C21.486,23.937 21.486,24.075 21.486,24.214 C25.136,24.214 28.788,24.214 32.438,24.214 C32.438,24.075 32.438,23.937 32.438,23.799 C28.788,23.799 25.136,23.799 21.486,23.799 ZM14.657,27.294 C14.973,27.294 15.290,27.294 15.606,27.294 C15.606,26.814 15.606,26.334 15.606,25.853 C15.229,25.860 14.944,25.805 14.657,25.735 C14.657,26.255 14.657,26.774 14.657,27.294 ZM38.318,25.853 C38.318,26.334 38.318,26.814 38.318,27.294 C38.634,27.294 38.951,27.294 39.267,27.294 C39.267,26.774 39.267,26.255 39.267,25.735 C39.261,25.735 39.254,25.735 39.247,25.735 C38.980,25.824 38.681,25.854 38.318,25.853 Z"/>
</svg>