<?xml version="1.0" encoding="utf-8"?>
<!-- Generator: Adobe Illustrator 23.0.1, SVG Export Plug-In . SVG Version: 6.00 Build 0)  -->
<svg version="1.1" id="Слой_1" xmlns="http://www.w3.org/2000/svg" xmlns:xlink="http://www.w3.org/1999/xlink" x="0px" y="0px"
	 viewBox="0 0 42 29" style="enable-background:new 0 0 42 29;" xml:space="preserve">
<style type="text/css">
	.st0{fill-rule:evenodd;clip-rule:evenodd;fill:#2A2A2A;}
	.st1{fill-rule:evenodd;clip-rule:evenodd;fill:#5B970D;}
</style>
<path class="st0" d="M7.9,18.5c0-1.8,0.4-2.1,2.2-2.1c0.6,0,1.6-0.1,1.8,0.2c0.1,0.1,0.1,0.4,0.1,0.6c0,0.2,0.1,0.6-0.1,0.7
	c-0.2,0.2-1.9,0.1-2.4,0.1c0,0.1,0,0.3,0,0.4c0.5,0,2.3-0.1,2.4,0.1c0.1,0.1,0.1,1.2,0,1.3c-0.2,0.3-1.2,0.2-1.6,0.2
	c-1.7,0-3.3,0-5,0c0,1.1,0.1,2.3-0.5,2.8c-0.8,0.6-3.1,0.5-3.6-0.2c-0.5-0.6-0.3-2.5-0.3-3.6c0-1.6,0-3.3,0-4.9
	c0-0.8-0.1-1.8,0.1-2.5c0.2-0.8,0.7-1.2,1.1-1.8c-0.4,0-0.8,0-1.1-0.1C0.3,9.4-0.4,8.1,0.3,7.1c0.5-0.7,1.8-1.3,3-0.8
	c0.3,0.1,0.5,0.4,0.7,0.6C4.1,6.4,4.3,6,4.5,5.5C5,4.1,5.2,2.9,6.9,2.6c1.3,0,2.6,0,3.8,0c0.1-0.3,0.1-0.5,0.2-0.8
	C11.4-0.3,12.8,0,15.3,0c0.9,0,2.1-0.1,2.8,0.1c1.1,0.4,1,1.3,1.3,2.4c2.1,0,4.4-0.3,5.3,0.9c0.2,0.3,0.6,0.8,0.4,1.2
	C25,4.8,24,4.9,23.7,4.8c-0.2-0.1-0.3-0.4-0.6-0.5c-0.4,0-0.8,0-1.3,0c-3.5,0-7,0-10.6,0c-1,0-2,0-3,0c-0.4,0-1-0.1-1.4,0.1
	c-0.4,0.2-0.4,0.6-0.6,1c-0.4,1-0.7,2-1.1,3c2.8,0,5.5,0,8.3,0c0.5,0,2.5-0.1,2.7,0.2c0.1,0.1,0.1,1,0,1.2c0,0.1-0.2,0.2-0.3,0.2
	c-3,0-5.9,0-8.9,0c-0.6,0-1.3,0-1.9,0c-0.2,0-0.6-0.1-0.7,0c-0.3,0.3-1.5,1.8-1.6,2.2c0,1.2,0,2.5,0,3.7c0,0.7-0.1,2.1,0.2,2.5
	c0.3,0.3,0.8,0.3,1.4,0.3C5.5,18.5,6.7,18.5,7.9,18.5z M12.4,2.6c1.8,0,3.5,0,5.3,0c0-0.2-0.1-0.8-0.2-0.9c-1.6,0-3.2,0-4.8,0
	C12.5,1.9,12.4,2.3,12.4,2.6z M36.6,25.9c-6.5,0-12.9,0-19.4,0c0,1.1,0.1,2.3-0.5,2.8c-0.8,0.6-3.1,0.5-3.6-0.2
	c-0.5-0.6-0.3-2.5-0.3-3.6c0-1.6,0-3.3,0-4.9c0-0.8-0.1-1.8,0.1-2.5c0.2-0.8,0.8-1.2,1.1-1.8c-0.4,0-0.8,0-1.1-0.1
	c-0.8-0.3-1.5-1.6-0.9-2.6c0.5-0.7,1.8-1.3,3-0.8c0.3,0.1,0.5,0.4,0.7,0.6c0.2-0.5,0.3-0.9,0.5-1.4c0.6-1.4,0.8-2.5,2.4-2.9
	c1.3,0,2.6,0,3.8,0C22.7,7,23.2,6,24.4,5.7c1,0,1.9,0,2.9,0c0.9,0,2.1-0.1,2.8,0.1c1,0.4,1,1.3,1.3,2.4c1.2,0,3.5-0.2,4.4,0.2
	c1.2,0.5,1.4,1.6,1.8,2.7c0.2,0.5,0.4,0.9,0.5,1.4c0.2-0.2,0.4-0.4,0.7-0.6c1.2-0.5,2.5,0,2.9,0.8c0.6,1-0.1,2.3-0.9,2.6
	c-0.3,0.1-0.7,0.1-1.1,0.1c0.4,0.6,0.9,1,1.1,1.8c0.2,0.7,0.1,1.7,0.1,2.5c0,1.6,0,3.2,0,4.9c0,1,0.2,2.9-0.2,3.5
	c-0.1,0.2-0.4,0.4-0.6,0.6c-0.7,0.3-2.6,0.1-3-0.2C36.5,28.2,36.6,26.9,36.6,25.9z M24.3,8.3c1.8,0,3.5,0,5.3,0
	c0-0.2-0.1-0.8-0.2-0.9c-1.6,0-3.2,0-4.8,0C24.4,7.6,24.3,8,24.3,8.3z M1.8,7.8C1.8,7.9,1.7,7.9,1.7,8c0,0,0,0.1,0,0.1
	c0,0,0.1,0.1,0.1,0.1c0.2,0,0.5,0,0.7,0c0,0,0.1-0.1,0.1-0.1c0-0.1,0-0.1,0-0.2c0-0.1,0-0.1-0.1-0.1C2.3,7.8,2.1,7.8,1.8,7.8z
	 M19,9.9c-0.2,0.1-0.4,0.1-0.5,0.3c-0.5,1.2-0.9,2.5-1.4,3.7c6.6,0,13.1,0,19.7,0c0,0,0,0,0,0c-0.3-0.9-0.7-1.8-1-2.7
	c-0.2-0.4-0.2-1-0.6-1.2c-0.3-0.2-0.9-0.1-1.3-0.1c-1,0-2.1,0-3.1,0C26.8,9.9,22.9,9.9,19,9.9z M13.8,13.5c-0.1,0.1-0.1,0.1-0.1,0.1
	c0,0,0,0.1,0,0.1c0,0,0.1,0.1,0.1,0.1c0.2,0,0.5,0,0.7,0c0,0,0.1-0.1,0.1-0.1c0-0.1,0-0.1,0-0.2c0-0.1,0-0.1-0.1-0.1
	C14.2,13.5,14,13.5,13.8,13.5z M39.5,13.5c-0.1,0-0.1,0.1-0.2,0.1c0,0.1,0,0.1,0,0.2c0,0,0.1,0.1,0.1,0.1c0.4,0,0.9,0.1,0.8-0.3
	C40.2,13.5,39.8,13.5,39.5,13.5z M19.8,24.2c0-0.9,0.1-1.5,0.6-1.9c0.6-0.4,2-0.2,2.9-0.2c2.4,0,4.7,0,7.1,0c0.9,0,2.5-0.2,3.1,0.2
	c0.6,0.4,0.6,0.9,0.6,1.9c1.2,0,2.4,0,3.6,0c0.6,0,1.2,0.1,1.4-0.3c0.3-0.4,0.2-1.7,0.2-2.4c0-0.9,0-1.8,0-2.8c0-0.4,0.1-1-0.1-1.3
	c-0.3-0.8-1.2-1.3-1.6-2c-5.3,0-10.5,0-15.8,0c-1.4,0-2.7,0-4.1,0c-0.3,0-1.3-0.1-1.4,0c-0.3,0.3-1.5,1.8-1.6,2.2c0,1.2,0,2.5,0,3.7
	c0,0.7-0.1,2.1,0.2,2.5c0.3,0.3,0.8,0.3,1.4,0.3C17.4,24.2,18.6,24.2,19.8,24.2z M2.7,21.6c0.3,0,0.6,0,1,0c0-0.5,0-1,0-1.4
	c-0.4,0-0.7,0-1-0.1C2.7,20.6,2.7,21.1,2.7,21.6z M21.5,23.8c0,0.1,0,0.3,0,0.4c3.6,0,7.3,0,11,0c0-0.1,0-0.3,0-0.4
	C28.8,23.8,25.1,23.8,21.5,23.8z M14.7,27.3c0.3,0,0.6,0,0.9,0c0-0.5,0-1,0-1.4c-0.4,0-0.7,0-0.9-0.1C14.7,26.3,14.7,26.8,14.7,27.3
	z M38.3,25.9c0,0.5,0,1,0,1.4c0.3,0,0.6,0,0.9,0c0-0.5,0-1,0-1.6c0,0,0,0,0,0C39,25.8,38.7,25.9,38.3,25.9z"/>
<path class="st1" d="M10.7,2.6c0.1-0.3,0.1-0.5,0.2-0.8C11.4-0.3,12.8,0,15.3,0c0.9,0,2.1-0.1,2.8,0.1c1.1,0.4,1,1.3,1.3,2.4
	 M12.4,2.6c1.8,0,3.5,0,5.3,0c0-0.2-0.1-0.8-0.2-0.9c-1.6,0-3.2,0-4.8,0C12.5,1.9,12.4,2.3,12.4,2.6z M22.6,8.3
	C22.7,7,23.2,6,24.4,5.7c1,0,1.9,0,2.9,0c0.9,0,2.1-0.1,2.8,0.1c1,0.4,1,1.3,1.3,2.4 M24.3,8.3c1.8,0,3.5,0,5.3,0
	c0-0.2-0.1-0.8-0.2-0.9c-1.6,0-3.2,0-4.8,0C24.4,7.6,24.3,8,24.3,8.3z"/>
<path class="st1" d="M5.4,11.3c0.4,0.1,0.7,0.1,1,0.3c0.8,0.4,1.5,1.7,0.9,2.8c-0.2,0.4-0.5,0.7-0.8,0.9c-0.2,0.1-0.4,0.1-0.5,0.2
	c1.4,0.1,1.4,2.4-0.2,2.6c-0.9,0.1-1.7-0.9-1.4-1.7c0.1-0.4,0.5-0.6,0.8-0.8c-1.3-0.2-2.5-1.6-1.7-3.1c0.3-0.5,0.7-0.9,1.3-1
	C4.9,11.4,5.1,11.4,5.4,11.3z M9.2,11.9c0.6,0,1.3,0,1.9,0c0.4,0.2,0.2,1.4,0,1.6c-0.4,0-0.9,0-1.3,0c0,0.1,0.1,0.3,0.1,0.4
	c0.5,0,1.1-0.1,1.3,0.1c0.1,0.2,0.1,1.2,0,1.3c-0.1,0.3-1.7,0.2-2,0.1c-0.3-0.1-0.6-0.3-0.7-0.6c-0.3-0.4-0.6-1.8-0.3-2.3
	C8.4,12.1,8.7,12.1,9.2,11.9z M5.3,13c-0.7,0.3-0.5,1.1,0.1,0.9C6,13.8,5.9,13,5.3,13z M17.3,17c0.4,0.1,0.7,0.1,1,0.3
	c0.8,0.4,1.5,1.7,0.9,2.8c-0.2,0.4-0.5,0.7-0.8,0.9c-0.2,0.1-0.3,0.1-0.5,0.2c1.4,0.1,1.4,2.4-0.2,2.6c-0.9,0.1-1.7-0.9-1.4-1.7
	c0.1-0.4,0.5-0.6,0.8-0.8c-1.3-0.2-2.5-1.6-1.7-3.1c0.3-0.5,0.7-0.9,1.3-1C16.8,17.1,17.1,17,17.3,17z M36.6,17
	c0.2,0,0.5,0.1,0.7,0.1c0.6,0.2,1,0.6,1.3,1c0.9,1.5-0.4,2.8-1.7,3.1c0,0,0,0,0,0c1.3,0.3,1,2.8-0.6,2.6c-1.6-0.3-1.6-2.5-0.2-2.6
	C36,21.1,35.8,21,35.7,21c-0.3-0.2-0.6-0.5-0.8-0.8c-0.7-1.1-0.1-2.5,0.8-3C35.9,17.1,36.3,17.1,36.6,17z M21.1,17.5
	c3.3,0,6.6,0,9.8,0c1.4,0,2.5-0.2,2.9,0.8c0.1,0.2,0.2,0.5,0.1,0.8c-0.2,0.8-0.3,1.6-0.9,2c-0.6,0.3-1.9,0.2-2.7,0.2
	c-2.2,0-4.3,0-6.5,0c-0.9,0-2.3,0.2-2.9-0.2c-0.5-0.3-1.2-2-0.8-2.8C20.3,17.8,20.7,17.8,21.1,17.5z M17.2,18.6
	c-0.7,0.3-0.5,1.1,0.1,0.9C17.9,19.5,17.8,18.7,17.2,18.6z M36.7,18.6c-0.7,0.3-0.5,1.1,0.1,0.9C37.3,19.5,37.2,18.7,36.7,18.6z
	 M21.7,19.2c0,0.1,0.1,0.3,0.1,0.4c3.4,0,6.8,0,10.3,0c0-0.1,0.1-0.3,0.1-0.4C28.7,19.2,25.2,19.2,21.7,19.2z"/>
</svg>
