<?xml version="1.0" encoding="utf-8"?>
<!-- Generator: Adobe Illustrator 23.0.1, SVG Export Plug-In . SVG Version: 6.00 Build 0)  -->
<svg version="1.1" id="Слой_1" xmlns="http://www.w3.org/2000/svg" xmlns:xlink="http://www.w3.org/1999/xlink" x="0px" y="0px"
	 viewBox="0 0 45 32" style="enable-background:new 0 0 45 32;" xml:space="preserve">
<style type="text/css">
	.st0{fill-rule:evenodd;clip-rule:evenodd;fill:#2A2A2A;}
	.st1{fill-rule:evenodd;clip-rule:evenodd;fill:#5B970D;}
</style>
<path class="st0" d="M1.8,0c10.4,0,20.7,0,31.1,0c2.6,0,5.2,0,7.8,0c1.4,0,2.8-0.1,3.5,0.5c1,0.8,0.7,2.9,0.7,4.8
	c0,4.2,0,8.4,0,12.5c0,3.1,0,6.2,0,9.3c0,1.4,0.2,3.1-0.4,3.9c-0.7,1-1.7,0.9-3.3,0.9c-1.9,0-3.7,0-5.6,0c-8.6,0-17.3,0-25.9,0
	c-1.9,0-3.8,0-5.7,0c-2,0-3.4,0.2-4-1.4C-0.1,30,0,29,0,28.3c0-1.5,0-3,0-4.6c0-5.6,0-11.3,0-16.9c0-1.1,0-2.2,0-3.3
	c0-0.8-0.1-1.8,0.2-2.3C0.6,0.4,1,0.3,1.8,0z M1.9,1.4c-0.8,0.4-0.6,1-0.6,2.2c0,1.5,0,2.9,0,4.4c0,5.3,0,10.6,0,15.9
	c0,1.5,0,2.9,0,4.4c0,0.5-0.1,1.5,0.1,1.9c0.3,0.6,1.5,0.4,2.3,0.4c2.3,0,4.5,0,6.8,0c8.3,0,16.6,0,24.9,0c2,0,4,0,6,0
	c0.7,0,1.8,0.2,2.1-0.3c0.3-0.5,0.1-2.6,0.1-3.4c0-3,0-6,0-9c0-4.1,0-8.1,0-12.2c0-1,0.2-3.7-0.3-4.1c-0.4-0.3-2.3-0.1-3-0.1
	c-2.7,0-5.3,0-8,0C22.2,1.4,12,1.4,1.9,1.4z M4.7,6c3.2,0,6.5,0,9.7,0c0.8,0,3.1-0.2,3.5,0.2c0.4,0.3,0.2,2.4,0.2,3.1
	c0,3.1,0,6.2,0,9.2c0,0.8,0.2,3.1-0.2,3.4c-0.4,0.3-2.1,0.2-2.9,0.2c-2.6,0-5.2,0-7.7,0c-0.8,0-2.8,0.2-3.1-0.3
	c-0.2-0.3-0.1-1.7-0.1-2.3c0-2,0-4,0-5.9c0-1.8,0-3.6,0-5.4C4.2,7.2,4,6.5,4.7,6z M5.5,7.4c0,4.4,0,8.9,0,13.3c0.5,0,1,0,1.5,0
	c0-1.5-0.1-2.8,0.5-3.7c0.8-1,2.9-0.8,4.6-0.8c1,0,1.8,0,2.4,0.4c1,0.8,0.9,2.2,0.9,4c0.5,0,1,0,1.5,0c0-4.4,0-8.9,0-13.3
	C13.1,7.4,9.3,7.4,5.5,7.4z M11,9c2.6,0,4.5,2.4,3.4,5.2c-0.5,1.1-1.5,1.9-2.8,2.1c-2.4,0.4-4.5-2.4-3.6-4.9
	c0.4-1.1,1.2-1.9,2.2-2.3C10.4,9.1,10.7,9,11,9z M11,10.4c-0.2,0-0.4,0.1-0.5,0.1c-0.6,0.2-1.1,0.8-1.3,1.4c-0.5,1.5,0.8,3.3,2.3,3
	C14.1,14.4,13.9,10.3,11,10.4z M8.4,20.8c1.9,0,3.8,0,5.7,0c0-0.7,0.1-2.3-0.1-2.7c-0.4-0.6-3.1-0.3-4-0.3c-0.5,0-1-0.1-1.3,0.2
	C8.2,18.3,8.3,19.9,8.4,20.8z"/>
<g>
	<path class="st1" d="M21.6,6c3.3,0,6.6,0,9.9,0c0.9,0,3.2-0.4,2.9,0.8c-0.2,0.9-2.1,0.6-3.1,0.6c-3.2,0-6.5,0-9.7,0
		C20.8,7.2,21.1,6.4,21.6,6z"/>
	<path class="st1" d="M21.8,9.7c1.6,0,3.2,0,4.8,0c0.7,0,1.6,0,1.5,0.8c-0.1,0.7-0.7,0.6-1.5,0.6c-1.2,0-2.3,0-3.5,0
		c-0.4,0-1.1,0.1-1.5,0c-0.4-0.2-0.6-0.9-0.2-1.2C21.5,9.8,21.6,9.8,21.8,9.7z"/>
	<path class="st1" d="M30.2,9.7c2.7,0,5.4,0,8.1,0c0.9,0,2.6-0.3,2.4,0.8c-0.2,0.9-1.7,0.6-2.7,0.6c-2.6,0-5.3,0-7.9,0
		c-0.6-0.1-0.8-0.9-0.3-1.3C30,9.8,30.1,9.7,30.2,9.7z"/>
	<path class="st1" d="M21.7,13.4c4.2,0,8.3,0,12.5,0c1,0,4-0.4,3.7,0.9c-0.1,0.2-0.2,0.4-0.4,0.5c-0.2,0.1-0.7,0-1,0
		c-0.8,0-1.7,0-2.5,0c-4.1,0-8.3,0-12.4,0c-0.4-0.1-0.7-0.9-0.3-1.2C21.5,13.5,21.6,13.4,21.7,13.4z"/>
	<path class="st1" d="M21.7,17.1c2.4,0,4.7,0,7.1,0c0.8,0,2.3-0.2,2.1,0.9c-0.2,0.7-1.3,0.6-2.1,0.6c-1.7,0-3.4,0-5,0
		c-0.6,0-1.7,0.1-2.2,0c-0.4-0.2-0.6-0.9-0.2-1.2C21.5,17.2,21.6,17.1,21.7,17.1z"/>
	<path class="st1" d="M33,17.1c1,0,2.1,0,3.1,0c0.4,0,1.1-0.1,1.4,0c0.2,0.1,0.5,0.4,0.4,0.8c-0.1,0.2-0.2,0.4-0.4,0.5
		c-0.3,0-0.7,0-1,0c-0.8,0-1.7,0-2.5,0c-0.4,0-1.1,0.1-1.3-0.1C32,17.9,32.5,17.3,33,17.1z"/>
	<path class="st1" d="M21.7,20.8c1.4,0,2.9,0,4.3,0c0.7,0,1.5,0,1.4,0.9c-0.1,0.2-0.3,0.5-0.5,0.5c-1.3,0-2.7,0-4,0
		c-0.4,0-1,0.1-1.3,0c-0.4-0.2-0.6-0.9-0.2-1.2C21.5,20.9,21.6,20.8,21.7,20.8z"/>
	<path class="st1" d="M29.5,20.8c2.2,0,4.4,0,6.5,0c0.8,0,2.2-0.2,1.9,0.9c-0.2,0.7-1.1,0.6-2,0.6c-1.6,0-3.1,0-4.7,0
		c-0.6,0-1.6,0.1-2-0.1c-0.4-0.2-0.5-0.9-0.2-1.2C29.2,20.9,29.3,20.8,29.5,20.8z"/>
	<path class="st1" d="M4.8,24.5c0.9,0,1.8,0,2.8,0c0.3,0,0.8-0.1,1.1,0c0.2,0.1,0.5,0.4,0.4,0.8c-0.2,0.9-2.3,0.6-3.3,0.6
		c-0.4,0-1,0.1-1.2-0.1C3.8,25.4,4.3,24.7,4.8,24.5z"/>
	<path class="st1" d="M11.1,24.5c1.8,0,3.6,0,5.5,0c0.7,0,1.8-0.1,1.6,0.9c-0.1,0.6-0.9,0.5-1.6,0.5c-1.9,0-3.7,0-5.6,0
		c-0.4-0.1-0.6-0.7-0.3-1.1C10.8,24.6,11,24.5,11.1,24.5z"/>
</g>
</svg>
