<svg 
 xmlns="http://www.w3.org/2000/svg"
 xmlns:xlink="http://www.w3.org/1999/xlink"
 width="40px" height="40px">
<path fill-rule="evenodd"  fill="rgb(42, 42, 42)"
 d="M19.368,0.000 C21.731,-0.036 23.742,0.260 25.528,0.821 C31.958,2.836 36.787,7.564 38.937,13.857 C39.746,16.224 40.387,19.887 39.738,22.978 C39.450,24.350 39.145,25.610 38.711,26.811 C36.530,32.853 31.320,37.385 24.953,39.293 C24.023,39.572 23.031,39.665 21.996,39.847 C21.510,39.881 21.024,39.915 20.538,39.949 C19.772,40.077 18.562,39.941 17.910,39.827 C17.149,39.692 16.471,39.674 15.774,39.498 C14.303,39.127 12.980,38.635 11.729,38.084 C6.496,35.777 2.708,31.255 0.784,25.622 C-0.302,22.440 -0.280,17.510 0.784,14.328 C2.869,8.091 7.093,3.625 13.064,1.272 C14.259,0.800 15.562,0.515 16.945,0.226 C17.574,0.158 18.204,0.089 18.834,0.021 C19.012,0.014 19.190,0.007 19.368,0.000 ZM19.450,1.723 C18.752,1.784 18.054,1.845 17.356,1.907 C16.031,2.172 14.796,2.424 13.659,2.870 C8.294,4.978 4.733,8.823 2.632,14.205 C2.237,15.219 2.060,16.357 1.832,17.525 C1.356,19.961 1.813,22.858 2.366,24.802 C3.894,30.183 7.707,34.458 12.509,36.567 C13.656,37.071 14.875,37.497 16.226,37.838 C16.815,37.927 17.404,38.015 17.992,38.105 C18.610,38.213 19.738,38.345 20.456,38.227 C20.942,38.193 21.428,38.159 21.914,38.125 C23.016,37.927 24.058,37.795 25.035,37.489 C30.639,35.740 34.693,31.929 36.884,26.770 C38.661,22.584 38.607,17.217 36.822,13.099 C34.158,6.950 28.286,1.714 19.450,1.723 ZM19.347,3.342 C25.182,3.246 29.889,5.913 32.428,9.081 C33.559,10.493 34.692,11.961 35.405,13.795 C36.924,17.702 36.987,22.307 35.385,26.196 C33.411,30.985 29.586,34.381 24.419,35.994 C23.613,36.245 22.746,36.344 21.853,36.506 C21.415,36.540 20.976,36.574 20.538,36.608 C19.965,36.704 19.191,36.631 18.690,36.547 C17.885,36.411 17.178,36.412 16.452,36.239 C15.177,35.935 14.035,35.483 12.961,35.010 C8.604,33.087 5.606,29.384 4.008,24.679 C3.376,22.817 3.011,19.913 3.454,17.525 C3.631,16.570 3.793,15.620 4.090,14.759 C5.801,9.794 9.033,6.269 13.803,4.367 C14.947,3.911 16.187,3.735 17.540,3.465 C18.143,3.424 18.745,3.383 19.347,3.342 ZM19.614,5.063 C19.005,5.111 18.396,5.159 17.787,5.207 C16.653,5.421 15.559,5.607 14.583,5.986 C10.344,7.634 7.562,10.524 5.918,14.759 C5.551,15.703 5.378,16.744 5.158,17.833 C4.741,19.901 5.118,22.438 5.630,24.064 C7.017,28.467 9.736,31.440 13.577,33.390 C14.663,33.941 15.900,34.354 17.253,34.640 C17.852,34.767 18.420,34.740 19.080,34.846 C19.484,34.859 19.888,34.873 20.292,34.887 C20.648,34.866 21.004,34.846 21.360,34.825 C22.213,34.677 23.037,34.607 23.803,34.374 C28.543,32.931 31.940,29.870 33.783,25.540 C34.681,23.429 35.252,20.138 34.645,17.280 C34.441,16.317 34.132,15.424 33.824,14.595 C31.934,9.508 26.652,5.054 19.614,5.063 ZM23.927,16.009 C25.316,16.009 26.706,16.009 28.095,16.009 C28.654,16.009 29.459,15.915 29.799,16.152 C30.216,16.443 30.148,17.102 30.148,17.812 C30.148,19.165 30.148,20.518 30.148,21.871 C30.148,22.431 30.245,23.251 30.005,23.592 C29.706,24.017 29.006,23.941 28.280,23.941 C26.829,23.941 25.378,23.941 23.927,23.941 C23.927,25.321 23.927,26.701 23.927,28.082 C23.927,28.646 24.021,29.457 23.783,29.803 C23.497,30.218 22.845,30.152 22.140,30.152 C20.778,30.152 19.416,30.152 18.054,30.152 C17.498,30.152 16.663,30.253 16.329,30.008 C15.905,29.699 15.980,29.002 15.980,28.266 C15.980,26.824 15.980,25.383 15.980,23.941 C14.590,23.941 13.201,23.941 11.811,23.941 C11.253,23.941 10.447,24.035 10.107,23.798 C9.690,23.507 9.758,22.849 9.758,22.137 C9.758,20.784 9.758,19.431 9.758,18.079 C9.758,17.519 9.661,16.699 9.902,16.357 C10.201,15.933 10.900,16.009 11.626,16.009 C13.077,16.009 14.529,16.009 15.980,16.009 C15.980,14.628 15.980,13.248 15.980,11.868 C15.980,11.304 15.885,10.494 16.123,10.147 C16.409,9.732 17.061,9.798 17.766,9.798 C19.128,9.798 20.491,9.798 21.853,9.798 C22.408,9.798 23.244,9.697 23.577,9.942 C24.001,10.251 23.927,10.948 23.927,11.684 C23.927,13.125 23.927,14.567 23.927,16.009 ZM17.705,11.520 C17.705,12.961 17.705,14.403 17.705,15.845 C17.705,16.502 17.785,17.234 17.417,17.525 C17.059,17.809 16.291,17.730 15.651,17.730 C14.262,17.730 12.872,17.730 11.483,17.730 C11.483,19.227 11.483,20.723 11.483,22.219 C12.927,22.219 14.371,22.219 15.816,22.219 C16.474,22.219 17.207,22.139 17.499,22.506 C17.783,22.864 17.705,23.630 17.705,24.269 C17.705,25.656 17.705,27.043 17.705,28.430 C19.203,28.430 20.703,28.430 22.202,28.430 C22.202,26.988 22.202,25.547 22.202,24.105 C22.202,23.447 22.121,22.716 22.489,22.425 C22.847,22.141 23.615,22.219 24.255,22.219 C25.645,22.219 27.034,22.219 28.424,22.219 C28.424,20.723 28.424,19.227 28.424,17.730 C26.979,17.730 25.535,17.730 24.091,17.730 C23.432,17.730 22.699,17.811 22.407,17.443 C22.123,17.086 22.202,16.320 22.202,15.681 C22.202,14.294 22.202,12.907 22.202,11.520 C20.703,11.520 19.203,11.520 17.705,11.520 Z"/>
</svg>