<?xml version="1.0" encoding="utf-8"?>
<!-- Generator: Adobe Illustrator 23.0.1, SVG Export Plug-In . SVG Version: 6.00 Build 0)  -->
<svg version="1.1" id="Слой_1" xmlns="http://www.w3.org/2000/svg" xmlns:xlink="http://www.w3.org/1999/xlink" x="0px" y="0px"
	 viewBox="0 0 40 40" style="enable-background:new 0 0 40 40;" xml:space="preserve">
<style type="text/css">
	.st0{fill-rule:evenodd;clip-rule:evenodd;fill:#2A2A2A;}
	.st1{fill-rule:evenodd;clip-rule:evenodd;fill:#5B970D;}
</style>
<path class="st0" d="M19.4,0c2.4,0,4.4,0.3,6.2,0.8c6.4,2,11.3,6.7,13.4,13c0.8,2.4,1.5,6,0.8,9.1c-0.3,1.4-0.6,2.6-1,3.8
	c-2.2,6-7.4,10.6-13.8,12.5c-0.9,0.3-1.9,0.4-3,0.6c-0.5,0-1,0.1-1.5,0.1c-0.8,0.1-2,0-2.6-0.1c-0.8-0.1-1.4-0.2-2.1-0.3
	c-1.5-0.4-2.8-0.9-4-1.4c-5.2-2.3-9-6.8-10.9-12.5c-1.1-3.2-1.1-8.1,0-11.3C2.9,8.1,7.1,3.6,13.1,1.3c1.2-0.5,2.5-0.8,3.9-1
	c0.6-0.1,1.3-0.1,1.9-0.2C19,0,19.2,0,19.4,0z M19.5,1.7c-0.7,0.1-1.4,0.1-2.1,0.2c-1.3,0.3-2.6,0.5-3.7,1c-5.4,2.1-8.9,6-11,11.3
	c-0.4,1-0.6,2.2-0.8,3.3c-0.5,2.4,0,5.3,0.5,7.3c1.5,5.4,5.3,9.7,10.1,11.8c1.1,0.5,2.4,0.9,3.7,1.3c0.6,0.1,1.2,0.2,1.8,0.3
	c0.6,0.1,1.7,0.2,2.5,0.1c0.5,0,1-0.1,1.5-0.1c1.1-0.2,2.1-0.3,3.1-0.6c5.6-1.7,9.7-5.6,11.8-10.7c1.8-4.2,1.7-9.6-0.1-13.7
	C34.2,6.9,28.3,1.7,19.5,1.7z M19.3,3.3c5.8-0.1,10.5,2.6,13.1,5.7c1.1,1.4,2.3,2.9,3,4.7c1.5,3.9,1.6,8.5,0,12.4
	c-2,4.8-5.8,8.2-11,9.8c-0.8,0.3-1.7,0.4-2.6,0.5c-0.4,0-0.9,0.1-1.3,0.1c-0.6,0.1-1.3,0-1.8-0.1c-0.8-0.1-1.5-0.1-2.2-0.3
	C15.2,35.9,14,35.5,13,35c-4.4-1.9-7.4-5.6-9-10.3c-0.6-1.9-1-4.8-0.6-7.2c0.2-1,0.3-1.9,0.6-2.8c1.7-5,4.9-8.5,9.7-10.4
	c1.1-0.5,2.4-0.6,3.7-0.9C18.1,3.4,18.7,3.4,19.3,3.3z M19.6,5.1c-0.6,0-1.2,0.1-1.8,0.1c-1.1,0.2-2.2,0.4-3.2,0.8
	c-4.2,1.6-7,4.5-8.7,8.8c-0.4,0.9-0.5,2-0.8,3.1c-0.4,2.1,0,4.6,0.5,6.2c1.4,4.4,4.1,7.4,7.9,9.3c1.1,0.6,2.3,1,3.7,1.3
	c0.6,0.1,1.2,0.1,1.8,0.2c0.4,0,0.8,0,1.2,0c0.4,0,0.7,0,1.1-0.1c0.9-0.1,1.7-0.2,2.4-0.5c4.7-1.4,8.1-4.5,10-8.8
	c0.9-2.1,1.5-5.4,0.9-8.3c-0.2-1-0.5-1.9-0.8-2.7C31.9,9.5,26.7,5.1,19.6,5.1z"/>
<path class="st1" d="M23.9,16c1.4,0,2.8,0,4.2,0c0.6,0,1.4-0.1,1.7,0.1c0.4,0.3,0.3,0.9,0.3,1.7c0,1.4,0,2.7,0,4.1
	c0,0.6,0.1,1.4-0.1,1.7c-0.3,0.4-1,0.3-1.7,0.3c-1.5,0-2.9,0-4.4,0c0,1.4,0,2.8,0,4.1c0,0.6,0.1,1.4-0.1,1.7
	c-0.3,0.4-0.9,0.3-1.6,0.3c-1.4,0-2.7,0-4.1,0c-0.6,0-1.4,0.1-1.7-0.1c-0.4-0.3-0.3-1-0.3-1.7c0-1.4,0-2.9,0-4.3c-1.4,0-2.8,0-4.2,0
	c-0.6,0-1.4,0.1-1.7-0.1c-0.4-0.3-0.3-0.9-0.3-1.7c0-1.4,0-2.7,0-4.1c0-0.6-0.1-1.4,0.1-1.7c0.3-0.4,1-0.3,1.7-0.3
	c1.5,0,2.9,0,4.4,0c0-1.4,0-2.8,0-4.1c0-0.6-0.1-1.4,0.1-1.7c0.3-0.4,0.9-0.3,1.6-0.3c1.4,0,2.7,0,4.1,0c0.6,0,1.4-0.1,1.7,0.1
	c0.4,0.3,0.4,1,0.4,1.7C23.9,13.1,23.9,14.6,23.9,16z M17.7,11.5c0,1.4,0,2.9,0,4.3c0,0.7,0.1,1.4-0.3,1.7c-0.4,0.3-1.1,0.2-1.8,0.2
	c-1.4,0-2.8,0-4.2,0c0,1.5,0,3,0,4.5c1.4,0,2.9,0,4.3,0c0.7,0,1.4-0.1,1.7,0.3c0.3,0.4,0.2,1.1,0.2,1.8c0,1.4,0,2.8,0,4.2
	c1.5,0,3,0,4.5,0c0-1.4,0-2.9,0-4.3c0-0.7-0.1-1.4,0.3-1.7c0.4-0.3,1.1-0.2,1.8-0.2c1.4,0,2.8,0,4.2,0c0-1.5,0-3,0-4.5
	c-1.4,0-2.9,0-4.3,0c-0.7,0-1.4,0.1-1.7-0.3c-0.3-0.4-0.2-1.1-0.2-1.8c0-1.4,0-2.8,0-4.2C20.7,11.5,19.2,11.5,17.7,11.5z"/>
</svg>
