<svg 
 xmlns="http://www.w3.org/2000/svg"
 xmlns:xlink="http://www.w3.org/1999/xlink"
 width="40px" height="40px">
<path fill-rule="evenodd"  fill="rgb(42, 42, 42)"
 d="M19.573,0.006 C28.284,-0.128 34.146,4.174 37.454,9.455 C38.310,10.821 38.963,12.258 39.550,13.934 C39.715,14.407 40.191,15.215 39.907,15.851 C39.677,16.364 39.002,16.800 38.613,17.188 C37.625,18.175 36.636,19.163 35.648,20.152 C32.267,23.531 28.885,26.911 25.504,30.291 C23.021,32.771 20.539,35.253 18.057,37.734 C17.462,38.327 16.867,38.922 16.273,39.517 C16.083,39.707 15.843,40.090 15.381,39.984 C8.334,38.375 3.240,32.997 0.978,26.547 C-0.083,23.522 -0.369,18.727 0.577,15.316 C1.103,13.416 1.761,11.670 2.673,10.145 C5.253,5.831 8.997,2.545 14.244,0.898 C15.254,0.581 16.338,0.394 17.455,0.185 C18.161,0.125 18.867,0.066 19.573,0.006 ZM19.461,1.677 C18.874,1.730 18.287,1.782 17.700,1.834 C16.521,2.041 15.310,2.240 14.289,2.636 C9.537,4.476 6.294,7.406 3.832,11.528 C3.045,12.845 2.526,14.497 2.115,16.163 C1.348,19.277 1.692,23.581 2.673,26.123 C3.081,27.182 3.405,28.205 3.943,29.132 C6.303,33.190 9.572,36.239 14.333,37.890 C14.327,37.667 14.155,36.197 14.066,36.107 C13.731,35.965 13.397,35.825 13.062,35.683 C12.323,35.358 11.611,34.922 10.944,34.503 C8.511,32.970 6.720,30.775 5.259,28.263 C4.596,27.123 4.118,25.728 3.765,24.318 C1.754,16.297 5.995,9.538 10.454,6.402 C11.923,5.369 13.647,4.550 15.560,3.973 C16.447,3.705 17.402,3.585 18.391,3.416 C20.401,3.071 22.685,3.411 24.299,3.817 C28.595,4.896 31.740,7.145 33.976,10.279 C34.774,11.398 35.648,12.673 36.094,14.112 C36.703,14.194 37.313,14.276 37.922,14.358 C37.857,13.893 37.599,13.471 37.432,13.087 C36.827,11.697 36.133,10.496 35.314,9.343 C32.109,4.836 27.171,1.666 19.461,1.677 ZM8.224,22.893 C8.232,19.654 8.239,16.415 8.247,13.176 C11.486,13.184 14.727,13.191 17.967,13.199 C17.967,16.236 17.967,19.275 17.967,22.313 C17.990,22.298 18.012,22.283 18.034,22.268 C18.223,21.736 18.754,21.387 19.082,20.976 C19.859,20.004 20.750,19.131 21.758,18.391 C22.040,18.190 22.323,17.990 22.605,17.789 C22.612,16.252 22.620,14.714 22.627,13.176 C25.867,13.184 29.108,13.191 32.348,13.199 C32.348,13.511 32.348,13.823 32.348,14.135 C32.980,14.105 33.612,14.075 34.243,14.045 C34.179,13.709 33.955,13.396 33.798,13.132 C33.277,12.255 32.741,11.464 32.148,10.681 C30.204,8.110 27.381,6.292 23.787,5.377 C23.056,5.191 22.281,5.157 21.490,5.020 C21.163,5.013 20.836,5.005 20.509,4.998 C19.574,4.846 18.082,5.075 17.276,5.265 C15.977,5.572 14.814,5.961 13.709,6.447 C9.851,8.142 6.951,11.678 5.616,15.917 C5.371,16.693 5.245,17.512 5.081,18.369 C4.780,19.929 4.967,22.003 5.303,23.338 C6.309,27.324 8.037,30.171 10.900,32.274 C11.847,32.970 12.830,33.784 14.021,34.213 C14.044,33.708 14.066,33.203 14.088,32.697 C14.269,31.627 14.330,30.595 14.579,29.622 C15.046,27.792 15.660,26.055 16.518,24.586 C16.867,24.021 17.217,23.457 17.566,22.893 C14.453,22.893 11.338,22.893 8.224,22.893 ZM9.718,14.714 C9.718,16.942 9.718,19.171 9.718,21.399 C11.947,21.399 14.177,21.399 16.407,21.399 C16.407,19.171 16.407,16.942 16.407,14.714 C14.177,14.714 11.947,14.714 9.718,14.714 ZM24.277,14.737 C24.277,15.397 24.277,16.059 24.277,16.719 C25.767,16.003 27.245,15.190 29.049,14.759 C29.049,14.751 29.049,14.744 29.049,14.737 C27.458,14.737 25.868,14.737 24.277,14.737 ZM33.574,15.717 C32.794,15.798 32.014,15.880 31.233,15.962 C29.743,16.288 28.391,16.609 27.131,17.143 C21.233,19.644 17.313,24.412 15.939,31.471 C15.583,33.301 15.809,35.613 15.983,37.399 C23.125,30.261 30.268,23.122 37.409,15.984 C37.409,15.977 37.409,15.969 37.409,15.962 C36.867,15.895 36.324,15.828 35.782,15.761 C35.046,15.747 34.310,15.732 33.574,15.717 Z"/>
</svg>