<?xml version="1.0" encoding="utf-8"?>
<!-- Generator: Adobe Illustrator 23.0.1, SVG Export Plug-In . SVG Version: 6.00 Build 0)  -->
<svg version="1.1" id="Слой_1" xmlns="http://www.w3.org/2000/svg" xmlns:xlink="http://www.w3.org/1999/xlink" x="0px" y="0px"
	 viewBox="0 0 40 40" style="enable-background:new 0 0 40 40;" xml:space="preserve">
<style type="text/css">
	.st0{fill-rule:evenodd;clip-rule:evenodd;fill:#2A2A2A;}
	.st1{fill-rule:evenodd;clip-rule:evenodd;fill:#5B970D;}
</style>
<path class="st0" d="M19.6,0c8.7-0.1,14.6,4.2,17.9,9.4c0.9,1.4,1.5,2.8,2.1,4.5c0.2,0.5,0.6,1.3,0.4,1.9c-0.2,0.5-0.9,0.9-1.3,1.3
	c-1,1-2,2-3,3c-3.4,3.4-6.8,6.8-10.1,10.1c-2.5,2.5-5,5-7.4,7.4c-0.6,0.6-1.2,1.2-1.8,1.8c-0.2,0.2-0.4,0.6-0.9,0.5
	C8.3,38.4,3.2,33,1,26.5c-1.1-3-1.3-7.8-0.4-11.2c0.5-1.9,1.2-3.6,2.1-5.2C5.3,5.8,9,2.5,14.2,0.9c1-0.3,2.1-0.5,3.2-0.7
	C18.2,0.1,18.9,0.1,19.6,0z M19.5,1.7c-0.6,0.1-1.2,0.1-1.8,0.2c-1.2,0.2-2.4,0.4-3.4,0.8c-4.8,1.8-8,4.8-10.5,8.9
	c-0.8,1.3-1.3,3-1.7,4.6c-0.8,3.1-0.4,7.4,0.6,10c0.4,1.1,0.7,2.1,1.3,3c2.4,4.1,5.6,7.1,10.4,8.8c0-0.2-0.2-1.7-0.3-1.8
	c-0.3-0.1-0.7-0.3-1-0.4c-0.7-0.3-1.5-0.8-2.1-1.2c-2.4-1.5-4.2-3.7-5.7-6.2c-0.7-1.1-1.1-2.5-1.5-3.9c-2-8,2.2-14.8,6.7-17.9
	c1.5-1,3.2-1.9,5.1-2.4c0.9-0.3,1.8-0.4,2.8-0.6c2-0.3,4.3,0,5.9,0.4c4.3,1.1,7.4,3.3,9.7,6.5c0.8,1.1,1.7,2.4,2.1,3.8
	c0.6,0.1,1.2,0.2,1.8,0.2c-0.1-0.5-0.3-0.9-0.5-1.3c-0.6-1.4-1.3-2.6-2.1-3.7C32.1,4.8,27.2,1.7,19.5,1.7z M8.2,22.9
	c0-3.2,0-6.5,0-9.7c3.2,0,6.5,0,9.7,0c0,3,0,6.1,0,9.1c0,0,0,0,0.1,0c0.2-0.5,0.7-0.9,1-1.3c0.8-1,1.7-1.8,2.7-2.6
	c0.3-0.2,0.6-0.4,0.8-0.6c0-1.5,0-3.1,0-4.6c3.2,0,6.5,0,9.7,0c0,0.3,0,0.6,0,0.9c0.6,0,1.3-0.1,1.9-0.1c-0.1-0.3-0.3-0.6-0.4-0.9
	c-0.5-0.9-1.1-1.7-1.7-2.5c-1.9-2.6-4.8-4.4-8.4-5.3c-0.7-0.2-1.5-0.2-2.3-0.4c-0.3,0-0.7,0-1,0c-0.9-0.2-2.4,0.1-3.2,0.3
	C16,5.6,14.8,6,13.7,6.4C9.9,8.1,7,11.7,5.6,15.9c-0.2,0.8-0.4,1.6-0.5,2.5c-0.3,1.6-0.1,3.6,0.2,5c1,4,2.7,6.8,5.6,8.9
	c0.9,0.7,1.9,1.5,3.1,1.9c0-0.5,0-1,0.1-1.5c0.2-1.1,0.2-2.1,0.5-3.1c0.5-1.8,1.1-3.6,1.9-5c0.3-0.6,0.7-1.1,1-1.7
	C14.5,22.9,11.3,22.9,8.2,22.9z M9.7,14.7c0,2.2,0,4.5,0,6.7c2.2,0,4.5,0,6.7,0c0-2.2,0-4.5,0-6.7C14.2,14.7,11.9,14.7,9.7,14.7z
	 M24.3,14.7c0,0.7,0,1.3,0,2c1.5-0.7,3-1.5,4.8-2c0,0,0,0,0,0C27.5,14.7,25.9,14.7,24.3,14.7z M33.6,15.7c-0.8,0.1-1.6,0.2-2.3,0.2
	c-1.5,0.3-2.8,0.6-4.1,1.2c-5.9,2.5-9.8,7.3-11.2,14.3c-0.4,1.8-0.1,4.1,0,5.9c7.1-7.1,14.3-14.3,21.4-21.4c0,0,0,0,0,0
	c-0.5-0.1-1.1-0.1-1.6-0.2C35,15.7,34.3,15.7,33.6,15.7z"/>
<path class="st1" d="M17.6,22.9c-3.1,0-6.2,0-9.3,0c0-3.2,0-6.5,0-9.7c3.2,0,6.5,0,9.7,0c0,3,0,6.1,0,9.1 M22.6,17.8
	c0-1.5,0-3.1,0-4.6c3.2,0,6.5,0,9.7,0c0,0.3,0,0.6,0,0.9L29,14.8l-0.3,0.1c-1.5,0.4-2.9,1-4.3,1.8l-0.2,0.1L22.6,17.8z M9.7,14.7
	c0,2.2,0,4.5,0,6.7c2.2,0,4.5,0,6.7,0c0-2.2,0-4.5,0-6.7C14.2,14.7,11.9,14.7,9.7,14.7z M29,14.7c-1.6,0-3.2,0-4.8,0
	c0,0.7,0,1.3,0,2C25.8,16,27.2,15.2,29,14.7C29,14.8,29,14.7,29,14.7"/>
</svg>
